{"glyphs":{"0":{"ha":743,"x_min":65,"x_max":679,"o":"m 372 -21 q 144 67 224 -21 q 65 301 65 154 l 65 811 q 142 1053 65 965 q 372 1142 219 1142 q 602 1053 525 1142 q 679 811 679 964 l 679 301 q 599 67 679 156 q 372 -21 518 -21 m 372 186 q 443 307 443 186 l 443 806 q 431 897 443 860 q 372 935 418 935 q 315 899 326 935 q 303 806 303 863 l 303 307 q 372 186 303 186 z "},"1":{"ha":736,"x_min":135,"x_max":521,"o":"m 288 896 q 210 861 261 882 q 135 828 160 842 l 135 1000 q 262 1070 210 1040 q 338 1125 314 1100 l 521 1125 l 521 0 l 288 0 l 288 896 z "},"2":{"ha":739,"x_min":75,"x_max":696,"o":"m 78 164 l 347 578 l 364 603 q 442 735 417 682 q 467 847 467 789 q 447 919 467 894 q 393 943 428 943 q 320 902 340 943 q 300 789 300 861 l 300 733 l 75 733 l 75 793 q 152 1046 75 951 q 390 1140 229 1140 q 617 1063 539 1140 q 696 843 696 985 q 676 722 696 779 q 628 619 656 665 q 542 489 600 574 l 336 182 l 665 182 l 665 0 l 78 0 l 78 164 z "},"3":{"ha":735,"x_min":68,"x_max":686,"o":"m 378 -21 q 139 71 210 -21 q 68 332 68 163 l 68 372 l 300 372 l 300 332 q 317 210 300 246 q 381 175 335 175 q 442 210 426 175 q 457 325 457 244 q 432 455 457 414 q 339 497 407 496 l 296 497 l 296 657 l 333 657 q 431 695 404 657 q 457 822 457 733 q 439 924 457 890 q 375 957 421 957 q 316 922 332 957 q 300 818 300 886 l 300 760 l 68 760 l 68 828 q 149 1060 68 979 q 375 1142 231 1142 q 604 1064 522 1142 q 686 838 686 986 q 647 674 686 742 q 549 590 608 607 q 649 506 613 567 q 686 331 686 444 q 613 73 686 167 q 378 -21 539 -21 z "},"4":{"ha":743,"x_min":47,"x_max":704,"o":"m 390 260 l 47 260 l 47 431 l 340 1125 l 597 1125 l 597 426 l 704 426 l 704 260 l 597 260 l 597 0 l 390 0 l 390 260 m 390 426 l 390 899 l 219 426 l 390 426 z "},"5":{"ha":739,"x_min":82,"x_max":682,"o":"m 375 -21 q 192 22 257 -21 q 105 139 128 64 q 82 329 82 214 l 306 329 q 322 191 306 231 q 383 151 338 151 q 439 177 421 151 q 461 249 457 203 q 465 386 465 296 q 447 529 465 479 q 378 579 429 579 q 289 476 307 579 l 88 476 l 108 1125 l 635 1125 l 635 931 l 294 931 l 282 699 q 347 737 299 721 q 447 753 396 753 q 622 658 561 753 q 682 392 682 564 q 658 169 682 257 q 568 30 635 81 q 375 -21 501 -21 z "},"6":{"ha":743,"x_min":71,"x_max":689,"o":"m 382 -17 q 147 83 224 -17 q 71 353 71 183 l 71 760 q 139 1041 71 942 q 381 1140 207 1140 q 601 1069 536 1140 q 667 851 667 999 l 668 832 l 450 832 q 438 936 450 907 q 382 965 426 965 q 334 946 350 965 q 313 881 318 926 q 307 742 307 835 l 307 642 q 364 688 325 671 q 453 704 403 704 q 632 615 575 704 q 689 381 689 526 q 619 86 689 189 q 382 -17 550 -17 m 385 154 q 442 197 429 154 q 456 344 456 240 q 451 448 456 413 q 432 505 447 483 q 382 526 417 526 q 338 513 358 526 q 307 482 317 499 l 307 299 q 385 154 307 154 z "},"7":{"ha":704,"x_min":93,"x_max":626,"o":"m 400 949 l 93 949 l 93 1125 l 626 1125 l 626 965 l 382 0 l 156 0 l 400 949 z "},"8":{"ha":739,"x_min":61,"x_max":678,"o":"m 369 -18 q 135 74 210 -18 q 61 325 61 165 q 94 489 61 418 q 192 592 126 560 q 110 692 142 628 q 79 849 79 756 q 155 1063 79 986 q 369 1140 231 1140 q 583 1063 510 1140 q 657 849 657 986 q 626 690 657 754 q 547 592 596 626 q 645 487 613 560 q 678 319 678 414 q 604 72 678 161 q 369 -18 531 -18 m 369 675 q 438 843 438 675 q 420 934 438 901 q 369 967 403 967 q 315 934 333 967 q 297 844 297 901 q 315 717 297 760 q 369 675 332 675 m 369 153 q 435 204 422 153 q 449 335 449 256 q 432 449 449 407 q 369 492 415 492 q 305 446 319 492 q 290 317 290 400 q 305 199 290 246 q 369 153 319 153 z "},"9":{"ha":743,"x_min":60,"x_max":678,"o":"m 367 -17 q 147 54 211 -17 q 81 274 82 125 l 81 292 l 299 292 q 311 188 299 217 q 368 158 324 158 q 415 178 400 158 q 435 243 431 197 q 440 382 440 289 l 440 482 q 384 436 422 453 q 297 419 346 419 q 117 513 174 419 q 60 757 60 607 q 133 1041 60 942 q 368 1140 206 1140 q 603 1047 528 1140 q 678 783 678 953 l 678 364 q 610 83 678 182 q 367 -17 542 -17 m 371 597 q 440 642 415 597 l 440 825 q 426 931 440 893 q 368 969 411 969 q 310 926 324 969 q 297 779 297 882 q 301 675 297 710 q 320 619 304 640 q 371 597 336 597 z "},"\u0000":{"ha":0,"x_min":0,"x_max":0,"o":""},"\r":{"ha":356,"x_min":0,"x_max":0,"o":""}," ":{"ha":356,"x_min":0,"x_max":0,"o":""},"A":{"ha":765,"x_min":29,"x_max":735,"o":"m 242 1125 l 525 1125 l 735 0 l 506 0 l 468 238 l 303 238 l 264 0 l 29 0 l 242 1125 m 444 386 l 385 825 l 325 386 l 444 386 z "},"Á":{"ha":765,"x_min":29,"x_max":735,"o":"m 242 1125 l 525 1125 l 735 0 l 506 0 l 468 238 l 303 238 l 264 0 l 29 0 l 242 1125 m 444 386 l 385 825 l 325 386 l 444 386 m 396 1493 l 626 1493 l 451 1214 l 308 1214 l 396 1493 z "},"Ă":{"ha":765,"x_min":29,"x_max":735,"o":"m 242 1125 l 525 1125 l 735 0 l 506 0 l 468 238 l 303 238 l 264 0 l 29 0 l 242 1125 m 444 386 l 385 825 l 325 386 l 444 386 m 383 1215 q 224 1272 283 1215 q 165 1432 165 1328 l 293 1432 q 314 1355 293 1379 q 383 1331 335 1331 q 452 1356 431 1331 q 474 1432 474 1381 l 601 1432 q 542 1272 601 1329 q 383 1215 483 1215 z "},"Ắ":{"ha":765,"x_min":29,"x_max":735,"o":"m 242 1125 l 525 1125 l 735 0 l 506 0 l 468 238 l 303 238 l 264 0 l 29 0 l 242 1125 m 444 386 l 385 825 l 325 386 l 444 386 m 389 1640 l 574 1640 l 421 1479 l 290 1479 l 389 1640 m 383 1210 q 224 1266 283 1210 q 165 1426 165 1322 l 293 1426 q 314 1349 293 1374 q 383 1325 335 1325 q 452 1350 431 1325 q 474 1426 474 1375 l 601 1426 q 542 1267 601 1324 q 383 1210 483 1210 z "},"Ặ":{"ha":765,"x_min":29,"x_max":735,"o":"m 242 1125 l 525 1125 l 735 0 l 506 0 l 468 238 l 303 238 l 264 0 l 29 0 l 242 1125 m 444 386 l 385 825 l 325 386 l 444 386 m 285 -97 l 479 -97 l 479 -289 l 285 -289 l 285 -97 m 383 1215 q 224 1272 283 1215 q 165 1432 165 1328 l 293 1432 q 314 1355 293 1379 q 383 1331 335 1331 q 452 1356 431 1331 q 474 1432 474 1381 l 601 1432 q 542 1272 601 1329 q 383 1215 483 1215 z "},"Ằ":{"ha":765,"x_min":29,"x_max":735,"o":"m 242 1125 l 525 1125 l 735 0 l 506 0 l 468 238 l 303 238 l 264 0 l 29 0 l 242 1125 m 444 386 l 385 825 l 325 386 l 444 386 m 193 1640 l 376 1640 l 475 1479 l 346 1479 l 193 1640 m 383 1210 q 224 1266 283 1210 q 165 1426 165 1322 l 293 1426 q 314 1349 293 1374 q 383 1325 335 1325 q 452 1350 431 1325 q 474 1426 474 1375 l 601 1426 q 542 1267 601 1324 q 383 1210 483 1210 z "},"Ẳ":{"ha":765,"x_min":29,"x_max":735,"o":"m 242 1125 l 525 1125 l 735 0 l 506 0 l 468 238 l 303 238 l 264 0 l 29 0 l 242 1125 m 444 386 l 385 825 l 325 386 l 444 386 m 338 1504 q 376 1544 363 1525 q 389 1588 389 1564 q 372 1628 389 1614 q 325 1643 354 1643 q 254 1629 293 1643 l 254 1724 q 369 1746 314 1746 q 485 1710 442 1746 q 529 1608 529 1675 q 494 1508 529 1549 q 401 1436 460 1468 l 338 1504 m 383 1215 q 224 1272 283 1215 q 165 1432 165 1328 l 293 1432 q 314 1355 293 1379 q 383 1331 335 1331 q 452 1356 431 1331 q 474 1432 474 1381 l 601 1432 q 542 1272 601 1329 q 383 1215 483 1215 z "},"Ẵ":{"ha":765,"x_min":29,"x_max":735,"o":"m 242 1125 l 525 1125 l 735 0 l 506 0 l 468 238 l 303 238 l 264 0 l 29 0 l 242 1125 m 444 386 l 385 825 l 325 386 l 444 386 m 383 1215 q 224 1272 283 1215 q 165 1432 165 1328 l 293 1432 q 314 1355 293 1379 q 383 1331 335 1331 q 452 1356 431 1331 q 474 1432 474 1381 l 601 1432 q 542 1272 601 1329 q 383 1215 483 1215 m 496 1507 q 449 1516 471 1507 q 399 1543 426 1525 q 356 1565 374 1557 q 322 1572 339 1572 q 272 1515 272 1572 l 164 1515 q 289 1713 161 1713 q 332 1705 313 1713 q 381 1681 351 1697 q 422 1659 404 1667 q 460 1651 440 1651 q 503 1704 503 1651 l 603 1704 q 582 1562 603 1617 q 496 1507 561 1507 z "},"Â":{"ha":765,"x_min":29,"x_max":735,"o":"m 242 1125 l 525 1125 l 735 0 l 506 0 l 468 238 l 303 238 l 264 0 l 29 0 l 242 1125 m 444 386 l 385 825 l 325 386 l 444 386 m 289 1490 l 474 1490 l 610 1224 l 443 1224 l 382 1389 l 322 1224 l 157 1224 l 289 1490 z "},"Ấ":{"ha":765,"x_min":29,"x_max":813,"o":"m 242 1125 l 525 1125 l 735 0 l 506 0 l 468 238 l 303 238 l 264 0 l 29 0 l 242 1125 m 444 386 l 385 825 l 325 386 l 444 386 m 644 1558 l 813 1558 l 690 1388 l 571 1388 l 644 1558 m 289 1456 l 474 1456 l 610 1224 l 449 1224 l 382 1363 l 317 1224 l 157 1224 l 289 1456 z "},"Ậ":{"ha":765,"x_min":29,"x_max":735,"o":"m 242 1125 l 525 1125 l 735 0 l 506 0 l 468 238 l 303 238 l 264 0 l 29 0 l 242 1125 m 444 386 l 385 825 l 325 386 l 444 386 m 289 1456 l 474 1456 l 610 1224 l 449 1224 l 382 1363 l 317 1224 l 157 1224 l 289 1456 m 285 -97 l 479 -97 l 479 -289 l 285 -289 l 285 -97 z "},"Ầ":{"ha":765,"x_min":29,"x_max":735,"o":"m 242 1125 l 525 1125 l 735 0 l 506 0 l 468 238 l 303 238 l 264 0 l 29 0 l 242 1125 m 444 386 l 385 825 l 325 386 l 444 386 m 489 1558 l 658 1558 l 732 1388 l 611 1388 l 489 1558 m 289 1456 l 474 1456 l 610 1224 l 449 1224 l 382 1363 l 317 1224 l 157 1224 l 289 1456 z "},"Ẩ":{"ha":765,"x_min":29,"x_max":754,"o":"m 242 1125 l 525 1125 l 735 0 l 506 0 l 468 238 l 303 238 l 264 0 l 29 0 l 242 1125 m 444 386 l 385 825 l 325 386 l 444 386 m 564 1419 q 602 1460 589 1440 q 615 1503 615 1479 q 598 1544 615 1529 q 551 1558 581 1558 q 481 1544 517 1558 l 481 1639 q 594 1661 539 1661 q 710 1626 667 1661 q 754 1524 754 1590 q 721 1423 754 1463 q 628 1351 688 1383 l 564 1419 m 289 1456 l 474 1456 l 610 1224 l 449 1224 l 382 1363 l 317 1224 l 157 1224 l 289 1456 z "},"Ẫ":{"ha":765,"x_min":29,"x_max":735,"o":"m 242 1125 l 525 1125 l 735 0 l 506 0 l 468 238 l 303 238 l 264 0 l 29 0 l 242 1125 m 444 386 l 385 825 l 325 386 l 444 386 m 289 1456 l 474 1456 l 610 1224 l 449 1224 l 382 1363 l 317 1224 l 157 1224 l 289 1456 m 496 1524 q 449 1533 471 1524 q 399 1560 426 1542 q 356 1581 374 1574 q 322 1589 339 1589 q 272 1532 272 1589 l 164 1532 q 289 1729 161 1729 q 332 1722 313 1729 q 381 1697 351 1714 q 422 1676 404 1683 q 460 1668 440 1668 q 503 1721 503 1668 l 603 1721 q 582 1578 603 1633 q 496 1524 561 1524 z "},"Ȁ":{"ha":765,"x_min":29,"x_max":735,"o":"m 242 1125 l 525 1125 l 735 0 l 506 0 l 468 238 l 303 238 l 264 0 l 29 0 l 242 1125 m 444 386 l 385 825 l 325 386 l 444 386 m 74 1496 l 246 1496 l 335 1208 l 213 1208 l 74 1496 m 328 1496 l 493 1496 l 575 1208 l 456 1208 l 328 1496 z "},"Ä":{"ha":765,"x_min":29,"x_max":735,"o":"m 242 1125 l 525 1125 l 735 0 l 506 0 l 468 238 l 303 238 l 264 0 l 29 0 l 242 1125 m 444 386 l 385 825 l 325 386 l 444 386 m 142 1447 l 322 1447 l 322 1242 l 142 1242 l 142 1447 m 444 1447 l 625 1447 l 625 1242 l 444 1242 l 444 1447 z "},"Ạ":{"ha":765,"x_min":29,"x_max":735,"o":"m 242 1125 l 525 1125 l 735 0 l 506 0 l 468 238 l 303 238 l 264 0 l 29 0 l 242 1125 m 444 386 l 385 825 l 325 386 l 444 386 m 285 -97 l 479 -97 l 479 -289 l 285 -289 l 285 -97 z "},"À":{"ha":765,"x_min":29,"x_max":735,"o":"m 242 1125 l 525 1125 l 735 0 l 506 0 l 468 238 l 303 238 l 264 0 l 29 0 l 242 1125 m 444 386 l 385 825 l 325 386 l 444 386 m 140 1493 l 374 1493 l 458 1214 l 317 1214 l 140 1493 z "},"Ả":{"ha":765,"x_min":29,"x_max":735,"o":"m 242 1125 l 525 1125 l 735 0 l 506 0 l 468 238 l 303 238 l 264 0 l 29 0 l 242 1125 m 444 386 l 385 825 l 325 386 l 444 386 m 307 1265 q 384 1308 361 1292 q 407 1354 407 1325 q 328 1403 407 1403 q 242 1393 283 1403 l 242 1488 q 383 1506 308 1506 q 505 1472 457 1506 q 553 1368 553 1439 q 508 1261 553 1301 q 383 1193 463 1221 l 307 1265 z "},"Ȃ":{"ha":765,"x_min":29,"x_max":735,"o":"m 242 1125 l 525 1125 l 735 0 l 506 0 l 468 238 l 303 238 l 264 0 l 29 0 l 242 1125 m 444 386 l 385 825 l 325 386 l 444 386 m 165 1224 q 223 1387 165 1329 q 383 1444 281 1444 q 544 1387 486 1444 q 601 1224 601 1329 l 474 1224 q 453 1304 474 1279 q 383 1329 432 1329 q 314 1304 335 1329 q 293 1224 293 1279 l 165 1224 z "},"Ā":{"ha":765,"x_min":29,"x_max":735,"o":"m 242 1125 l 525 1125 l 735 0 l 506 0 l 468 238 l 303 238 l 264 0 l 29 0 l 242 1125 m 444 386 l 385 825 l 325 386 l 444 386 m 192 1354 l 575 1354 l 575 1247 l 192 1247 l 192 1354 z "},"Ą":{"ha":765,"x_min":29,"x_max":761,"o":"m 242 1125 l 525 1125 l 735 0 l 506 0 l 468 238 l 303 238 l 264 0 l 29 0 l 242 1125 m 444 386 l 385 825 l 325 386 l 444 386 m 693 -361 q 536 -330 600 -361 q 472 -211 472 -299 q 504 -99 472 -158 q 581 0 536 -40 l 682 0 q 632 -168 632 -92 q 657 -231 632 -211 q 721 -250 682 -250 q 761 -247 742 -250 l 739 -357 q 693 -361 722 -361 z "},"Å":{"ha":765,"x_min":29,"x_max":735,"o":"m 242 1125 l 525 1125 l 735 0 l 506 0 l 468 238 l 303 238 l 264 0 l 29 0 l 242 1125 m 444 386 l 385 825 l 325 386 l 444 386 m 382 1186 q 267 1226 313 1186 q 221 1338 221 1265 q 267 1450 221 1410 q 382 1490 313 1490 q 499 1450 451 1490 q 546 1338 546 1410 q 499 1226 546 1265 q 382 1186 453 1186 m 382 1265 q 433 1286 415 1265 q 451 1338 451 1307 q 433 1390 451 1369 q 382 1411 415 1411 q 332 1390 350 1411 q 314 1338 314 1369 q 332 1286 314 1307 q 382 1265 350 1265 z "},"Ǻ":{"ha":765,"x_min":29,"x_max":735,"o":"m 242 1125 l 525 1125 l 735 0 l 506 0 l 468 238 l 303 238 l 264 0 l 29 0 l 242 1125 m 444 386 l 385 825 l 325 386 l 444 386 m 382 1186 q 267 1226 313 1186 q 221 1338 221 1265 q 267 1450 221 1410 q 382 1490 313 1490 q 499 1450 451 1490 q 546 1338 546 1410 q 499 1226 546 1265 q 382 1186 453 1186 m 382 1265 q 433 1286 415 1265 q 451 1338 451 1307 q 433 1390 451 1369 q 382 1411 415 1411 q 332 1390 350 1411 q 314 1338 314 1369 q 332 1286 314 1307 q 382 1265 350 1265 m 396 1831 l 626 1831 l 451 1551 l 308 1551 l 396 1831 z "},"Ã":{"ha":765,"x_min":29,"x_max":735,"o":"m 242 1125 l 525 1125 l 735 0 l 506 0 l 468 238 l 303 238 l 264 0 l 29 0 l 242 1125 m 444 386 l 385 825 l 325 386 l 444 386 m 496 1250 q 449 1259 471 1250 q 399 1286 426 1268 q 356 1308 374 1300 q 322 1315 339 1315 q 272 1258 272 1315 l 164 1258 q 289 1456 161 1456 q 332 1448 313 1456 q 381 1424 351 1440 q 422 1402 404 1410 q 460 1394 440 1394 q 503 1447 503 1394 l 603 1447 q 582 1305 603 1360 q 496 1250 561 1250 z "},"Æ":{"ha":983,"x_min":-18,"x_max":957,"o":"m 472 1108 l 957 1108 l 957 939 l 721 939 l 721 668 l 888 668 l 888 494 l 721 494 l 721 168 l 957 168 l 957 0 l 508 0 l 508 235 l 326 235 l 231 0 l -18 0 l 472 1108 m 508 390 l 508 742 l 376 390 l 508 390 z "},"Ǽ":{"ha":983,"x_min":-18,"x_max":957,"o":"m 472 1108 l 957 1108 l 957 939 l 721 939 l 721 668 l 888 668 l 888 494 l 721 494 l 721 168 l 957 168 l 957 0 l 508 0 l 508 235 l 326 235 l 231 0 l -18 0 l 472 1108 m 508 390 l 508 742 l 376 390 l 508 390 m 626 1493 l 857 1493 l 682 1214 l 539 1214 l 626 1493 z "},"B":{"ha":817,"x_min":83,"x_max":769,"o":"m 83 1125 l 376 1125 q 640 1065 544 1125 q 735 839 735 1006 q 569 604 735 635 q 719 521 669 592 q 769 326 769 450 q 429 0 769 0 l 83 0 l 83 1125 m 381 675 q 488 711 460 675 q 517 824 517 747 q 481 924 517 890 q 375 958 444 958 l 332 958 l 332 675 l 381 675 m 385 174 q 497 213 464 174 q 529 338 529 253 q 497 472 529 433 q 383 511 464 511 l 332 511 l 332 174 l 385 174 z "},"Ḃ":{"ha":817,"x_min":83,"x_max":769,"o":"m 83 1125 l 376 1125 q 640 1065 544 1125 q 735 839 735 1006 q 569 604 735 635 q 719 521 669 592 q 769 326 769 450 q 429 0 769 0 l 83 0 l 83 1125 m 381 675 q 488 711 460 675 q 517 824 517 747 q 481 924 517 890 q 375 958 444 958 l 332 958 l 332 675 l 381 675 m 385 174 q 497 213 464 174 q 529 338 529 253 q 497 472 529 433 q 383 511 464 511 l 332 511 l 332 174 l 385 174 m 303 1442 l 517 1442 l 517 1228 l 303 1228 l 303 1442 z "},"C":{"ha":782,"x_min":68,"x_max":729,"o":"m 406 -17 q 145 80 222 -17 q 68 358 68 176 l 68 764 q 144 1045 68 950 q 406 1140 221 1140 q 656 1056 582 1140 q 729 815 729 971 l 729 718 l 486 718 l 486 831 q 472 931 486 896 q 406 965 458 965 q 336 928 353 965 q 319 826 319 892 l 319 297 q 337 195 319 231 q 406 160 354 160 q 472 195 457 160 q 486 297 486 231 l 486 415 l 729 415 l 729 318 q 656 72 729 160 q 406 -17 582 -17 z "},"Ć":{"ha":782,"x_min":68,"x_max":729,"o":"m 406 -17 q 145 80 222 -17 q 68 358 68 176 l 68 764 q 144 1045 68 950 q 406 1140 221 1140 q 656 1056 582 1140 q 729 815 729 971 l 729 718 l 486 718 l 486 831 q 472 931 486 896 q 406 965 458 965 q 336 928 353 965 q 319 826 319 892 l 319 297 q 337 195 319 231 q 406 160 354 160 q 472 195 457 160 q 486 297 486 231 l 486 415 l 729 415 l 729 318 q 656 72 729 160 q 406 -17 582 -17 m 415 1493 l 646 1493 l 471 1214 l 328 1214 l 415 1493 z "},"Č":{"ha":782,"x_min":68,"x_max":729,"o":"m 406 -17 q 145 80 222 -17 q 68 358 68 176 l 68 764 q 144 1045 68 950 q 406 1140 221 1140 q 656 1056 582 1140 q 729 815 729 971 l 729 718 l 486 718 l 486 831 q 472 931 486 896 q 406 965 458 965 q 336 928 353 965 q 319 826 319 892 l 319 297 q 337 195 319 231 q 406 160 354 160 q 472 195 457 160 q 486 297 486 231 l 486 415 l 729 415 l 729 318 q 656 72 729 160 q 406 -17 582 -17 m 171 1469 l 332 1469 l 403 1317 l 474 1469 l 635 1469 l 513 1210 l 293 1210 l 171 1469 z "},"Ç":{"ha":782,"x_min":68,"x_max":729,"o":"m 486 718 l 486 831 q 472 931 486 896 q 406 965 458 965 q 336 928 353 965 q 319 826 319 892 l 319 297 q 337 195 319 231 q 406 160 354 160 q 472 195 457 160 q 486 297 486 231 l 486 415 l 729 415 l 729 318 q 662 79 729 167 q 433 -17 594 -8 l 433 -92 q 573 -128 522 -92 q 624 -236 624 -164 q 565 -348 624 -311 q 419 -385 507 -385 q 314 -368 364 -385 l 314 -271 q 393 -282 353 -282 q 479 -233 479 -282 q 441 -181 479 -199 q 351 -161 403 -164 l 351 -14 q 133 95 199 0 q 68 358 68 190 l 68 764 q 144 1045 68 950 q 406 1140 221 1140 q 656 1056 582 1140 q 729 815 729 971 l 729 718 l 486 718 z "},"Ĉ":{"ha":782,"x_min":68,"x_max":729,"o":"m 406 -17 q 145 80 222 -17 q 68 358 68 176 l 68 764 q 144 1045 68 950 q 406 1140 221 1140 q 656 1056 582 1140 q 729 815 729 971 l 729 718 l 486 718 l 486 831 q 472 931 486 896 q 406 965 458 965 q 336 928 353 965 q 319 826 319 892 l 319 297 q 337 195 319 231 q 406 160 354 160 q 472 195 457 160 q 486 297 486 231 l 486 415 l 729 415 l 729 318 q 656 72 729 160 q 406 -17 582 -17 m 308 1490 l 493 1490 l 629 1224 l 463 1224 l 401 1389 l 342 1224 l 176 1224 l 308 1490 z "},"Ċ":{"ha":782,"x_min":68,"x_max":729,"o":"m 406 -17 q 145 80 222 -17 q 68 358 68 176 l 68 764 q 144 1045 68 950 q 406 1140 221 1140 q 656 1056 582 1140 q 729 815 729 971 l 729 718 l 486 718 l 486 831 q 472 931 486 896 q 406 965 458 965 q 336 928 353 965 q 319 826 319 892 l 319 297 q 337 195 319 231 q 406 160 354 160 q 472 195 457 160 q 486 297 486 231 l 486 415 l 729 415 l 729 318 q 656 72 729 160 q 406 -17 582 -17 m 296 1442 l 510 1442 l 510 1228 l 296 1228 l 296 1442 z "},"D":{"ha":814,"x_min":83,"x_max":746,"o":"m 83 1125 l 368 1125 q 596 1089 514 1125 q 712 976 678 1053 q 746 769 746 899 l 746 361 q 712 153 746 231 q 597 38 678 75 q 371 0 515 0 l 83 0 l 83 1125 m 371 172 q 451 188 425 172 q 483 234 476 204 q 490 322 490 264 l 490 813 q 483 895 490 867 q 449 938 475 924 q 369 951 424 951 l 332 951 l 332 172 l 371 172 z "},"Ǳ":{"ha":1415,"x_min":83,"x_max":1376,"o":"m 83 1125 l 368 1125 q 596 1089 514 1125 q 712 976 678 1053 q 746 769 746 899 l 746 361 q 712 153 746 231 q 597 38 678 75 q 371 0 515 0 l 83 0 l 83 1125 m 371 172 q 451 188 425 172 q 483 234 476 204 q 490 322 490 264 l 490 813 q 483 895 490 867 q 449 938 475 924 q 369 951 424 951 l 332 951 l 332 172 l 371 172 m 854 150 l 1129 957 l 867 957 l 867 1125 l 1374 1125 l 1374 985 l 1094 168 l 1376 168 l 1376 0 l 854 0 l 854 150 z "},"Ǆ":{"ha":1415,"x_min":83,"x_max":1376,"o":"m 83 1125 l 368 1125 q 596 1089 514 1125 q 712 976 678 1053 q 746 769 746 899 l 746 361 q 712 153 746 231 q 597 38 678 75 q 371 0 515 0 l 83 0 l 83 1125 m 371 172 q 451 188 425 172 q 483 234 476 204 q 490 322 490 264 l 490 813 q 483 895 490 867 q 449 938 475 924 q 369 951 424 951 l 332 951 l 332 172 l 371 172 m 854 150 l 1129 957 l 867 957 l 867 1125 l 1374 1125 l 1374 985 l 1094 168 l 1376 168 l 1376 0 l 854 0 l 854 150 m 883 1469 l 1044 1469 l 1115 1317 l 1186 1469 l 1347 1469 l 1225 1210 l 1006 1210 l 883 1469 z "},"Ð":{"ha":782,"x_min":10,"x_max":735,"o":"m 71 514 l 10 514 l 10 638 l 71 638 l 71 1125 l 357 1125 q 585 1089 503 1125 q 701 976 667 1053 q 735 769 735 899 l 735 361 q 701 153 735 231 q 585 38 667 75 q 360 0 504 0 l 71 0 l 71 514 m 360 172 q 440 188 414 172 q 473 234 465 204 q 481 322 481 264 l 481 813 q 473 895 481 867 q 440 938 465 924 q 360 951 414 951 l 321 951 l 321 638 l 378 638 l 378 514 l 321 514 l 321 172 l 360 172 z "},"Ď":{"ha":814,"x_min":83,"x_max":746,"o":"m 83 1125 l 368 1125 q 596 1089 514 1125 q 712 976 678 1053 q 746 769 746 899 l 746 361 q 712 153 746 231 q 597 38 678 75 q 371 0 515 0 l 83 0 l 83 1125 m 371 172 q 451 188 425 172 q 483 234 476 204 q 490 322 490 264 l 490 813 q 483 895 490 867 q 449 938 475 924 q 369 951 424 951 l 332 951 l 332 172 l 371 172 m 175 1469 l 336 1469 l 407 1317 l 478 1469 l 639 1469 l 517 1210 l 297 1210 l 175 1469 z "},"Đ":{"ha":818,"x_min":18,"x_max":751,"o":"m 89 519 l 18 519 l 18 633 l 89 633 l 89 1125 l 374 1125 q 603 1089 521 1125 q 718 976 685 1053 q 751 769 751 899 l 751 361 q 717 153 751 231 q 602 38 683 75 q 378 0 521 0 l 89 0 l 89 519 m 382 172 q 462 188 436 172 q 495 234 488 204 q 503 322 503 264 l 503 813 q 494 895 503 867 q 460 938 486 924 q 382 951 435 951 l 332 951 l 332 633 l 400 633 l 400 519 l 332 519 l 332 172 l 382 172 z "},"Ḋ":{"ha":814,"x_min":83,"x_max":746,"o":"m 83 1125 l 368 1125 q 596 1089 514 1125 q 712 976 678 1053 q 746 769 746 899 l 746 361 q 712 153 746 231 q 597 38 678 75 q 371 0 515 0 l 83 0 l 83 1125 m 371 172 q 451 188 425 172 q 483 234 476 204 q 490 322 490 264 l 490 813 q 483 895 490 867 q 449 938 475 924 q 369 951 424 951 l 332 951 l 332 172 l 371 172 m 300 1442 l 514 1442 l 514 1228 l 300 1228 l 300 1442 z "},"ǲ":{"ha":1358,"x_min":83,"x_max":1322,"o":"m 83 1125 l 368 1125 q 596 1089 514 1125 q 712 976 678 1053 q 746 769 746 899 l 746 361 q 712 153 746 231 q 597 38 678 75 q 371 0 515 0 l 83 0 l 83 1125 m 371 172 q 451 188 425 172 q 483 234 476 204 q 490 322 490 264 l 490 813 q 483 895 490 867 q 449 938 475 924 q 369 951 424 951 l 332 951 l 332 172 l 371 172 m 863 146 l 1083 638 l 879 638 l 879 803 l 1319 803 l 1319 665 l 1096 165 l 1322 165 l 1322 0 l 863 0 l 863 146 z "},"ǅ":{"ha":1358,"x_min":83,"x_max":1322,"o":"m 83 1125 l 368 1125 q 596 1089 514 1125 q 712 976 678 1053 q 746 769 746 899 l 746 361 q 712 153 746 231 q 597 38 678 75 q 371 0 515 0 l 83 0 l 83 1125 m 371 172 q 451 188 425 172 q 483 234 476 204 q 490 322 490 264 l 490 813 q 483 895 490 867 q 449 938 475 924 q 369 951 424 951 l 332 951 l 332 172 l 371 172 m 863 146 l 1083 638 l 879 638 l 879 803 l 1319 803 l 1319 665 l 1096 165 l 1322 165 l 1322 0 l 863 0 l 863 146 m 854 1147 l 1015 1147 l 1086 994 l 1157 1147 l 1318 1147 l 1196 888 l 976 888 l 854 1147 z "},"E":{"ha":621,"x_min":83,"x_max":592,"o":"m 83 1125 l 589 1125 l 589 956 l 332 956 l 332 676 l 528 676 l 528 504 l 332 504 l 332 168 l 592 168 l 592 0 l 83 0 l 83 1125 z "},"É":{"ha":621,"x_min":83,"x_max":592,"o":"m 83 1125 l 589 1125 l 589 956 l 332 956 l 332 676 l 528 676 l 528 504 l 332 504 l 332 168 l 592 168 l 592 0 l 83 0 l 83 1125 m 351 1493 l 582 1493 l 407 1214 l 264 1214 l 351 1493 z "},"Ĕ":{"ha":621,"x_min":83,"x_max":592,"o":"m 83 1125 l 589 1125 l 589 956 l 332 956 l 332 676 l 528 676 l 528 504 l 332 504 l 332 168 l 592 168 l 592 0 l 83 0 l 83 1125 m 339 1215 q 180 1272 239 1215 q 121 1432 121 1328 l 249 1432 q 269 1355 249 1379 q 339 1331 290 1331 q 408 1356 386 1331 q 429 1432 429 1381 l 557 1432 q 498 1272 557 1329 q 339 1215 439 1215 z "},"Ě":{"ha":621,"x_min":83,"x_max":592,"o":"m 83 1125 l 589 1125 l 589 956 l 332 956 l 332 676 l 528 676 l 528 504 l 332 504 l 332 168 l 592 168 l 592 0 l 83 0 l 83 1125 m 107 1469 l 268 1469 l 339 1317 l 410 1469 l 571 1469 l 449 1210 l 229 1210 l 107 1469 z "},"Ê":{"ha":621,"x_min":83,"x_max":592,"o":"m 83 1125 l 589 1125 l 589 956 l 332 956 l 332 676 l 528 676 l 528 504 l 332 504 l 332 168 l 592 168 l 592 0 l 83 0 l 83 1125 m 244 1490 l 429 1490 l 565 1224 l 399 1224 l 338 1389 l 278 1224 l 113 1224 l 244 1490 z "},"Ế":{"ha":621,"x_min":83,"x_max":768,"o":"m 83 1125 l 589 1125 l 589 956 l 332 956 l 332 676 l 528 676 l 528 504 l 332 504 l 332 168 l 592 168 l 592 0 l 83 0 l 83 1125 m 600 1558 l 768 1558 l 646 1388 l 526 1388 l 600 1558 m 244 1456 l 429 1456 l 565 1224 l 404 1224 l 338 1363 l 272 1224 l 113 1224 l 244 1456 z "},"Ệ":{"ha":621,"x_min":83,"x_max":592,"o":"m 83 1125 l 589 1125 l 589 956 l 332 956 l 332 676 l 528 676 l 528 504 l 332 504 l 332 168 l 592 168 l 592 0 l 83 0 l 83 1125 m 244 1456 l 429 1456 l 565 1224 l 404 1224 l 338 1363 l 272 1224 l 113 1224 l 244 1456 m 214 -97 l 408 -97 l 408 -289 l 214 -289 l 214 -97 z "},"Ề":{"ha":621,"x_min":83,"x_max":688,"o":"m 83 1125 l 589 1125 l 589 956 l 332 956 l 332 676 l 528 676 l 528 504 l 332 504 l 332 168 l 592 168 l 592 0 l 83 0 l 83 1125 m 444 1558 l 614 1558 l 688 1388 l 567 1388 l 444 1558 m 244 1456 l 429 1456 l 565 1224 l 404 1224 l 338 1363 l 272 1224 l 113 1224 l 244 1456 z "},"Ể":{"ha":621,"x_min":83,"x_max":710,"o":"m 83 1125 l 589 1125 l 589 956 l 332 956 l 332 676 l 528 676 l 528 504 l 332 504 l 332 168 l 592 168 l 592 0 l 83 0 l 83 1125 m 519 1419 q 558 1460 544 1440 q 571 1503 571 1479 q 553 1544 571 1529 q 507 1558 536 1558 q 436 1544 472 1558 l 436 1639 q 550 1661 494 1661 q 666 1626 622 1661 q 710 1524 710 1590 q 676 1423 710 1463 q 583 1351 643 1383 l 519 1419 m 244 1456 l 429 1456 l 565 1224 l 404 1224 l 338 1363 l 272 1224 l 113 1224 l 244 1456 z "},"Ễ":{"ha":621,"x_min":83,"x_max":592,"o":"m 83 1125 l 589 1125 l 589 956 l 332 956 l 332 676 l 528 676 l 528 504 l 332 504 l 332 168 l 592 168 l 592 0 l 83 0 l 83 1125 m 244 1456 l 429 1456 l 565 1224 l 404 1224 l 338 1363 l 272 1224 l 113 1224 l 244 1456 m 451 1524 q 404 1533 426 1524 q 354 1560 382 1542 q 312 1581 329 1574 q 278 1589 294 1589 q 228 1532 228 1589 l 119 1532 q 244 1729 117 1729 q 288 1722 268 1729 q 336 1697 307 1714 q 378 1676 360 1683 q 415 1668 396 1668 q 458 1721 458 1668 l 558 1721 q 538 1578 558 1633 q 451 1524 517 1524 z "},"Ȅ":{"ha":621,"x_min":29,"x_max":592,"o":"m 83 1125 l 589 1125 l 589 956 l 332 956 l 332 676 l 528 676 l 528 504 l 332 504 l 332 168 l 592 168 l 592 0 l 83 0 l 83 1125 m 29 1496 l 201 1496 l 290 1208 l 168 1208 l 29 1496 m 283 1496 l 449 1496 l 531 1208 l 411 1208 l 283 1496 z "},"Ë":{"ha":621,"x_min":83,"x_max":592,"o":"m 83 1125 l 589 1125 l 589 956 l 332 956 l 332 676 l 528 676 l 528 504 l 332 504 l 332 168 l 592 168 l 592 0 l 83 0 l 83 1125 m 97 1447 l 278 1447 l 278 1242 l 97 1242 l 97 1447 m 400 1447 l 581 1447 l 581 1242 l 400 1242 l 400 1447 z "},"Ė":{"ha":621,"x_min":83,"x_max":592,"o":"m 83 1125 l 589 1125 l 589 956 l 332 956 l 332 676 l 528 676 l 528 504 l 332 504 l 332 168 l 592 168 l 592 0 l 83 0 l 83 1125 m 232 1442 l 446 1442 l 446 1228 l 232 1228 l 232 1442 z "},"Ẹ":{"ha":621,"x_min":83,"x_max":592,"o":"m 83 1125 l 589 1125 l 589 956 l 332 956 l 332 676 l 528 676 l 528 504 l 332 504 l 332 168 l 592 168 l 592 0 l 83 0 l 83 1125 m 214 -97 l 408 -97 l 408 -289 l 214 -289 l 214 -97 z "},"È":{"ha":621,"x_min":83,"x_max":592,"o":"m 83 1125 l 589 1125 l 589 956 l 332 956 l 332 676 l 528 676 l 528 504 l 332 504 l 332 168 l 592 168 l 592 0 l 83 0 l 83 1125 m 96 1493 l 329 1493 l 414 1214 l 272 1214 l 96 1493 z "},"Ẻ":{"ha":621,"x_min":83,"x_max":592,"o":"m 83 1125 l 589 1125 l 589 956 l 332 956 l 332 676 l 528 676 l 528 504 l 332 504 l 332 168 l 592 168 l 592 0 l 83 0 l 83 1125 m 263 1265 q 340 1308 317 1292 q 363 1354 363 1325 q 283 1403 363 1403 q 197 1393 239 1403 l 197 1488 q 339 1506 264 1506 q 460 1472 413 1506 q 508 1368 508 1439 q 463 1261 508 1301 q 339 1193 418 1221 l 263 1265 z "},"Ȇ":{"ha":621,"x_min":83,"x_max":592,"o":"m 83 1125 l 589 1125 l 589 956 l 332 956 l 332 676 l 528 676 l 528 504 l 332 504 l 332 168 l 592 168 l 592 0 l 83 0 l 83 1125 m 121 1224 q 178 1387 121 1329 q 339 1444 236 1444 q 499 1387 442 1444 q 557 1224 557 1329 l 429 1224 q 408 1304 429 1279 q 339 1329 388 1329 q 269 1304 290 1329 q 249 1224 249 1279 l 121 1224 z "},"Ē":{"ha":621,"x_min":83,"x_max":592,"o":"m 83 1125 l 589 1125 l 589 956 l 332 956 l 332 676 l 528 676 l 528 504 l 332 504 l 332 168 l 592 168 l 592 0 l 83 0 l 83 1125 m 147 1354 l 531 1354 l 531 1247 l 147 1247 l 147 1354 z "},"Ę":{"ha":621,"x_min":83,"x_max":592,"o":"m 83 1125 l 589 1125 l 589 956 l 332 956 l 332 676 l 528 676 l 528 504 l 332 504 l 332 168 l 592 168 l 592 0 l 83 0 l 83 1125 m 499 -361 q 342 -330 406 -361 q 278 -211 278 -299 q 310 -99 278 -158 q 386 0 342 -40 l 488 0 q 438 -168 438 -92 q 463 -231 438 -211 q 526 -250 488 -250 q 567 -247 547 -250 l 544 -357 q 499 -361 528 -361 z "},"Ẽ":{"ha":621,"x_min":83,"x_max":592,"o":"m 83 1125 l 589 1125 l 589 956 l 332 956 l 332 676 l 528 676 l 528 504 l 332 504 l 332 168 l 592 168 l 592 0 l 83 0 l 83 1125 m 451 1250 q 404 1259 426 1250 q 354 1286 382 1268 q 312 1308 329 1300 q 278 1315 294 1315 q 228 1258 228 1315 l 119 1258 q 244 1456 117 1456 q 288 1448 268 1456 q 336 1424 307 1440 q 378 1402 360 1410 q 415 1394 396 1394 q 458 1447 458 1394 l 558 1447 q 538 1305 558 1360 q 451 1250 517 1250 z "},"F":{"ha":603,"x_min":83,"x_max":569,"o":"m 83 1125 l 569 1125 l 569 957 l 332 957 l 332 674 l 539 674 l 539 500 l 332 500 l 332 0 l 83 0 l 83 1125 z "},"Ḟ":{"ha":603,"x_min":83,"x_max":569,"o":"m 83 1125 l 569 1125 l 569 957 l 332 957 l 332 674 l 539 674 l 539 500 l 332 500 l 332 0 l 83 0 l 83 1125 m 196 1442 l 410 1442 l 410 1228 l 196 1228 l 196 1442 z "},"G":{"ha":808,"x_min":68,"x_max":736,"o":"m 376 -17 q 139 85 210 -17 q 68 372 68 186 l 68 750 q 145 1040 68 940 q 406 1140 222 1140 q 658 1054 582 1140 q 735 811 735 968 l 735 739 l 492 739 l 492 831 q 476 931 492 897 q 408 965 461 965 q 338 928 354 965 q 322 824 322 890 l 322 303 q 342 198 322 236 q 415 160 363 160 q 513 306 513 160 l 513 438 l 411 438 l 411 583 l 736 583 l 736 0 l 572 0 l 558 93 q 376 -17 506 -17 z "},"Ǵ":{"ha":808,"x_min":68,"x_max":736,"o":"m 376 -17 q 139 85 210 -17 q 68 372 68 186 l 68 750 q 145 1040 68 940 q 406 1140 222 1140 q 658 1054 582 1140 q 735 811 735 968 l 735 739 l 492 739 l 492 831 q 476 931 492 897 q 408 965 461 965 q 338 928 354 965 q 322 824 322 890 l 322 303 q 342 198 322 236 q 415 160 363 160 q 513 306 513 160 l 513 438 l 411 438 l 411 583 l 736 583 l 736 0 l 572 0 l 558 93 q 376 -17 506 -17 m 417 1493 l 647 1493 l 472 1214 l 329 1214 l 417 1493 z "},"Ğ":{"ha":808,"x_min":68,"x_max":736,"o":"m 376 -17 q 139 85 210 -17 q 68 372 68 186 l 68 750 q 145 1040 68 940 q 406 1140 222 1140 q 658 1054 582 1140 q 735 811 735 968 l 735 739 l 492 739 l 492 831 q 476 931 492 897 q 408 965 461 965 q 338 928 354 965 q 322 824 322 890 l 322 303 q 342 198 322 236 q 415 160 363 160 q 513 306 513 160 l 513 438 l 411 438 l 411 583 l 736 583 l 736 0 l 572 0 l 558 93 q 376 -17 506 -17 m 404 1215 q 245 1272 304 1215 q 186 1432 186 1328 l 314 1432 q 335 1355 314 1379 q 404 1331 356 1331 q 473 1356 451 1331 q 494 1432 494 1381 l 622 1432 q 563 1272 622 1329 q 404 1215 504 1215 z "},"Ǧ":{"ha":808,"x_min":68,"x_max":736,"o":"m 376 -17 q 139 85 210 -17 q 68 372 68 186 l 68 750 q 145 1040 68 940 q 406 1140 222 1140 q 658 1054 582 1140 q 735 811 735 968 l 735 739 l 492 739 l 492 831 q 476 931 492 897 q 408 965 461 965 q 338 928 354 965 q 322 824 322 890 l 322 303 q 342 198 322 236 q 415 160 363 160 q 513 306 513 160 l 513 438 l 411 438 l 411 583 l 736 583 l 736 0 l 572 0 l 558 93 q 376 -17 506 -17 m 172 1469 l 333 1469 l 404 1317 l 475 1469 l 636 1469 l 514 1210 l 294 1210 l 172 1469 z "},"Ĝ":{"ha":808,"x_min":68,"x_max":736,"o":"m 376 -17 q 139 85 210 -17 q 68 372 68 186 l 68 750 q 145 1040 68 940 q 406 1140 222 1140 q 658 1054 582 1140 q 735 811 735 968 l 735 739 l 492 739 l 492 831 q 476 931 492 897 q 408 965 461 965 q 338 928 354 965 q 322 824 322 890 l 322 303 q 342 198 322 236 q 415 160 363 160 q 513 306 513 160 l 513 438 l 411 438 l 411 583 l 736 583 l 736 0 l 572 0 l 558 93 q 376 -17 506 -17 m 310 1490 l 494 1490 l 631 1224 l 464 1224 l 403 1389 l 343 1224 l 178 1224 l 310 1490 z "},"Ģ":{"ha":808,"x_min":68,"x_max":736,"o":"m 376 -17 q 139 85 210 -17 q 68 372 68 186 l 68 750 q 145 1040 68 940 q 406 1140 222 1140 q 658 1054 582 1140 q 735 811 735 968 l 735 739 l 492 739 l 492 831 q 476 931 492 897 q 408 965 461 965 q 338 928 354 965 q 322 824 322 890 l 322 303 q 342 198 322 236 q 415 160 363 160 q 513 306 513 160 l 513 438 l 411 438 l 411 583 l 736 583 l 736 0 l 572 0 l 558 93 q 376 -17 506 -17 m 317 -419 q 389 -386 363 -411 q 415 -307 415 -361 l 297 -307 l 297 -96 l 511 -96 l 510 -276 q 335 -494 510 -490 l 317 -419 z "},"Ġ":{"ha":808,"x_min":68,"x_max":736,"o":"m 376 -17 q 139 85 210 -17 q 68 372 68 186 l 68 750 q 145 1040 68 940 q 406 1140 222 1140 q 658 1054 582 1140 q 735 811 735 968 l 735 739 l 492 739 l 492 831 q 476 931 492 897 q 408 965 461 965 q 338 928 354 965 q 322 824 322 890 l 322 303 q 342 198 322 236 q 415 160 363 160 q 513 306 513 160 l 513 438 l 411 438 l 411 583 l 736 583 l 736 0 l 572 0 l 558 93 q 376 -17 506 -17 m 297 1442 l 511 1442 l 511 1228 l 297 1228 l 297 1442 z "},"H":{"ha":847,"x_min":88,"x_max":760,"o":"m 88 1125 l 336 1125 l 336 669 l 510 669 l 510 1125 l 760 1125 l 760 0 l 510 0 l 510 492 l 336 492 l 336 0 l 88 0 l 88 1125 z "},"Ħ":{"ha":750,"x_min":-18,"x_max":768,"o":"m 53 854 l -18 854 l -18 932 l 53 932 l 53 1125 l 301 1125 l 301 932 l 464 932 l 464 1125 l 714 1125 l 714 932 l 768 932 l 768 854 l 714 854 l 714 0 l 464 0 l 464 492 l 301 492 l 301 0 l 53 0 l 53 854 m 464 669 l 464 854 l 301 854 l 301 669 l 464 669 z "},"Ĥ":{"ha":847,"x_min":88,"x_max":760,"o":"m 88 1125 l 336 1125 l 336 669 l 510 669 l 510 1125 l 760 1125 l 760 0 l 510 0 l 510 492 l 336 492 l 336 0 l 88 0 l 88 1125 m 329 1490 l 514 1490 l 650 1224 l 483 1224 l 422 1389 l 363 1224 l 197 1224 l 329 1490 z "},"I":{"ha":418,"x_min":85,"x_max":333,"o":"m 85 1125 l 333 1125 l 333 0 l 85 0 l 85 1125 z "},"Ĳ":{"ha":903,"x_min":85,"x_max":819,"o":"m 85 1125 l 333 1125 l 333 0 l 85 0 l 85 1125 m 436 144 q 518 152 490 143 q 558 185 546 161 q 571 258 571 210 l 571 1125 l 819 1125 l 819 247 q 794 92 818 151 q 714 1 771 32 q 557 -29 657 -29 l 436 -29 l 436 144 z "},"Í":{"ha":418,"x_min":85,"x_max":451,"o":"m 85 1125 l 333 1125 l 333 0 l 85 0 l 85 1125 m 221 1493 l 451 1493 l 276 1214 l 133 1214 l 221 1493 z "},"Ĭ":{"ha":418,"x_min":-10,"x_max":426,"o":"m 85 1125 l 333 1125 l 333 0 l 85 0 l 85 1125 m 208 1215 q 49 1272 108 1215 q -10 1432 -10 1328 l 118 1432 q 139 1355 118 1379 q 208 1331 160 1331 q 277 1356 256 1331 q 299 1432 299 1381 l 426 1432 q 367 1272 426 1329 q 208 1215 308 1215 z "},"Î":{"ha":418,"x_min":-18,"x_max":435,"o":"m 85 1125 l 333 1125 l 333 0 l 85 0 l 85 1125 m 114 1490 l 299 1490 l 435 1224 l 268 1224 l 207 1389 l 147 1224 l -18 1224 l 114 1490 z "},"Ȉ":{"ha":418,"x_min":-101,"x_max":400,"o":"m 85 1125 l 333 1125 l 333 0 l 85 0 l 85 1125 m -101 1496 l 71 1496 l 160 1208 l 38 1208 l -101 1496 m 153 1496 l 318 1496 l 400 1208 l 281 1208 l 153 1496 z "},"Ï":{"ha":418,"x_min":-33,"x_max":450,"o":"m 85 1125 l 333 1125 l 333 0 l 85 0 l 85 1125 m -33 1447 l 147 1447 l 147 1242 l -33 1242 l -33 1447 m 269 1447 l 450 1447 l 450 1242 l 269 1242 l 269 1447 z "},"İ":{"ha":418,"x_min":85,"x_max":333,"o":"m 85 1125 l 333 1125 l 333 0 l 85 0 l 85 1125 m 101 1442 l 315 1442 l 315 1228 l 101 1228 l 101 1442 z "},"Ị":{"ha":418,"x_min":85,"x_max":333,"o":"m 85 1125 l 333 1125 l 333 0 l 85 0 l 85 1125 m 111 -97 l 306 -97 l 306 -289 l 111 -289 l 111 -97 z "},"Ì":{"ha":418,"x_min":-35,"x_max":333,"o":"m 85 1125 l 333 1125 l 333 0 l 85 0 l 85 1125 m -35 1493 l 199 1493 l 283 1214 l 142 1214 l -35 1493 z "},"Ỉ":{"ha":418,"x_min":67,"x_max":378,"o":"m 85 1125 l 333 1125 l 333 0 l 85 0 l 85 1125 m 132 1265 q 209 1308 186 1292 q 232 1354 232 1325 q 153 1403 232 1403 q 67 1393 108 1403 l 67 1488 q 208 1506 133 1506 q 330 1472 282 1506 q 378 1368 378 1439 q 333 1261 378 1301 q 208 1193 288 1221 l 132 1265 z "},"Ȋ":{"ha":418,"x_min":-10,"x_max":426,"o":"m 85 1125 l 333 1125 l 333 0 l 85 0 l 85 1125 m -10 1224 q 48 1387 -10 1329 q 208 1444 106 1444 q 369 1387 311 1444 q 426 1224 426 1329 l 299 1224 q 278 1304 299 1279 q 208 1329 257 1329 q 139 1304 160 1329 q 118 1224 118 1279 l -10 1224 z "},"Ī":{"ha":418,"x_min":17,"x_max":400,"o":"m 85 1125 l 333 1125 l 333 0 l 85 0 l 85 1125 m 17 1354 l 400 1354 l 400 1247 l 17 1247 l 17 1354 z "},"Į":{"ha":418,"x_min":51,"x_max":340,"o":"m 85 1125 l 333 1125 l 333 0 l 85 0 l 85 1125 m 272 -361 q 115 -330 179 -361 q 51 -211 51 -299 q 83 -99 51 -158 q 160 0 115 -40 l 261 0 q 211 -168 211 -92 q 236 -231 211 -211 q 300 -250 261 -250 q 340 -247 321 -250 l 318 -357 q 272 -361 301 -361 z "},"Ĩ":{"ha":418,"x_min":-11,"x_max":428,"o":"m 85 1125 l 333 1125 l 333 0 l 85 0 l 85 1125 m 321 1250 q 274 1259 296 1250 q 224 1286 251 1268 q 181 1308 199 1300 q 147 1315 164 1315 q 97 1258 97 1315 l -11 1258 q 114 1456 -14 1456 q 157 1448 138 1456 q 206 1424 176 1440 q 247 1402 229 1410 q 285 1394 265 1394 q 328 1447 328 1394 l 428 1447 q 407 1305 428 1360 q 321 1250 386 1250 z "},"J":{"ha":485,"x_min":18,"x_max":401,"o":"m 18 144 q 100 152 72 143 q 140 185 128 161 q 153 258 153 210 l 153 1125 l 401 1125 l 401 247 q 376 92 400 151 q 296 1 353 32 q 139 -29 239 -29 l 18 -29 l 18 144 z "},"Ĵ":{"ha":485,"x_min":18,"x_max":504,"o":"m 18 144 q 100 152 72 143 q 140 185 128 161 q 153 258 153 210 l 153 1125 l 401 1125 l 401 247 q 376 92 400 151 q 296 1 353 32 q 139 -29 239 -29 l 18 -29 l 18 144 m 183 1490 l 368 1490 l 504 1224 l 338 1224 l 276 1389 l 217 1224 l 51 1224 l 183 1490 z "},"K":{"ha":788,"x_min":83,"x_max":774,"o":"m 83 1125 l 332 1125 l 332 665 l 521 1125 l 764 1125 l 556 617 l 774 0 l 521 0 l 358 497 l 332 453 l 332 0 l 83 0 l 83 1125 z "},"Ķ":{"ha":788,"x_min":83,"x_max":774,"o":"m 83 1125 l 332 1125 l 332 665 l 521 1125 l 764 1125 l 556 617 l 774 0 l 521 0 l 358 497 l 332 453 l 332 0 l 83 0 l 83 1125 m 307 -419 q 379 -386 353 -411 q 406 -307 406 -361 l 288 -307 l 288 -96 l 501 -96 l 500 -276 q 325 -494 500 -490 l 307 -419 z "},"L":{"ha":615,"x_min":83,"x_max":590,"o":"m 83 1125 l 332 1125 l 332 168 l 590 168 l 590 0 l 83 0 l 83 1125 z "},"Ǉ":{"ha":1100,"x_min":83,"x_max":1017,"o":"m 83 1125 l 332 1125 l 332 168 l 590 168 l 590 0 l 83 0 l 83 1125 m 633 144 q 715 152 688 143 q 756 185 743 161 q 768 258 768 210 l 768 1125 l 1017 1125 l 1017 247 q 992 92 1015 151 q 911 1 968 32 q 754 -29 854 -29 l 633 -29 l 633 144 z "},"Ĺ":{"ha":615,"x_min":83,"x_max":590,"o":"m 83 1125 l 332 1125 l 332 168 l 590 168 l 590 0 l 83 0 l 83 1125 m 219 1493 l 450 1493 l 275 1214 l 132 1214 l 219 1493 z "},"Ľ":{"ha":615,"x_min":83,"x_max":631,"o":"m 83 1125 l 332 1125 l 332 168 l 590 168 l 590 0 l 83 0 l 83 1125 m 438 790 q 536 913 536 815 l 417 913 l 417 1126 l 631 1126 l 631 940 q 451 718 631 733 l 438 790 z "},"Ļ":{"ha":615,"x_min":83,"x_max":590,"o":"m 83 1125 l 332 1125 l 332 168 l 590 168 l 590 0 l 83 0 l 83 1125 m 249 -419 q 321 -386 294 -411 q 347 -307 347 -361 l 229 -307 l 229 -96 l 443 -96 l 442 -276 q 267 -494 442 -490 l 249 -419 z "},"Ŀ":{"ha":615,"x_min":83,"x_max":593,"o":"m 83 1125 l 332 1125 l 332 168 l 590 168 l 590 0 l 83 0 l 83 1125 m 439 736 l 593 736 l 593 525 l 439 525 l 439 736 z "},"ǈ":{"ha":1000,"x_min":83,"x_max":931,"o":"m 83 1125 l 332 1125 l 332 168 l 590 168 l 590 0 l 83 0 l 83 1125 m 704 1096 l 931 1096 l 931 939 l 704 939 l 704 1096 m 724 -250 q 603 -232 661 -250 l 603 -69 q 643 -75 628 -75 q 704 -7 704 -75 l 704 803 l 931 803 l 931 -35 q 877 -191 931 -132 q 724 -250 824 -250 z "},"Ł":{"ha":625,"x_min":11,"x_max":601,"o":"m 94 497 l 11 458 l 11 594 l 94 633 l 94 1125 l 343 1125 l 343 750 l 479 815 l 479 679 l 343 614 l 343 168 l 601 168 l 601 0 l 94 0 l 94 497 z "},"M":{"ha":978,"x_min":79,"x_max":899,"o":"m 99 1125 l 365 1125 l 489 471 l 622 1125 l 879 1125 l 899 0 l 722 0 l 701 749 l 571 0 l 414 0 l 275 754 l 258 0 l 79 0 l 99 1125 z "},"Ṁ":{"ha":978,"x_min":79,"x_max":899,"o":"m 99 1125 l 365 1125 l 489 471 l 622 1125 l 879 1125 l 899 0 l 722 0 l 701 749 l 571 0 l 414 0 l 275 754 l 258 0 l 79 0 l 99 1125 m 382 1442 l 596 1442 l 596 1228 l 382 1228 l 382 1442 z "},"N":{"ha":779,"x_min":83,"x_max":694,"o":"m 83 1125 l 258 1125 l 489 583 l 489 1125 l 694 1125 l 694 0 l 526 0 l 296 583 l 296 0 l 83 0 l 83 1125 z "},"Ǌ":{"ha":1264,"x_min":83,"x_max":1181,"o":"m 83 1125 l 258 1125 l 489 583 l 489 1125 l 694 1125 l 694 0 l 526 0 l 296 583 l 296 0 l 83 0 l 83 1125 m 797 144 q 879 152 851 143 q 919 185 907 161 q 932 258 932 210 l 932 1125 l 1181 1125 l 1181 247 q 1156 92 1179 151 q 1075 1 1132 32 q 918 -29 1018 -29 l 797 -29 l 797 144 z "},"Ń":{"ha":779,"x_min":83,"x_max":694,"o":"m 83 1125 l 258 1125 l 489 583 l 489 1125 l 694 1125 l 694 0 l 526 0 l 296 583 l 296 0 l 83 0 l 83 1125 m 401 1493 l 632 1493 l 457 1214 l 314 1214 l 401 1493 z "},"Ň":{"ha":779,"x_min":83,"x_max":694,"o":"m 83 1125 l 258 1125 l 489 583 l 489 1125 l 694 1125 l 694 0 l 526 0 l 296 583 l 296 0 l 83 0 l 83 1125 m 157 1469 l 318 1469 l 389 1317 l 460 1469 l 621 1469 l 499 1210 l 279 1210 l 157 1469 z "},"Ņ":{"ha":779,"x_min":83,"x_max":694,"o":"m 83 1125 l 258 1125 l 489 583 l 489 1125 l 694 1125 l 694 0 l 526 0 l 296 583 l 296 0 l 83 0 l 83 1125 m 301 -419 q 374 -386 347 -411 q 400 -307 400 -361 l 282 -307 l 282 -96 l 496 -96 l 494 -276 q 319 -494 494 -490 l 301 -419 z "},"Ŋ":{"ha":789,"x_min":88,"x_max":700,"o":"m 340 -142 q 470 -117 433 -143 q 507 -21 507 -90 l 507 106 l 299 583 l 299 0 l 88 0 l 88 1125 l 264 1125 l 496 583 l 496 1125 l 700 1125 l 700 0 q 678 -164 700 -101 q 601 -258 657 -226 q 443 -290 544 -290 l 340 -290 l 340 -142 z "},"ǋ":{"ha":1164,"x_min":83,"x_max":1094,"o":"m 83 1125 l 258 1125 l 489 583 l 489 1125 l 694 1125 l 694 0 l 526 0 l 296 583 l 296 0 l 83 0 l 83 1125 m 868 1096 l 1094 1096 l 1094 939 l 868 939 l 868 1096 m 888 -250 q 767 -232 825 -250 l 767 -69 q 807 -75 792 -75 q 868 -7 868 -75 l 868 803 l 1094 803 l 1094 -35 q 1041 -191 1094 -132 q 888 -250 988 -250 z "},"Ñ":{"ha":779,"x_min":83,"x_max":694,"o":"m 83 1125 l 258 1125 l 489 583 l 489 1125 l 694 1125 l 694 0 l 526 0 l 296 583 l 296 0 l 83 0 l 83 1125 m 501 1250 q 454 1259 476 1250 q 404 1286 432 1268 q 362 1308 379 1300 q 328 1315 344 1315 q 278 1258 278 1315 l 169 1258 q 294 1456 167 1456 q 338 1448 318 1456 q 386 1424 357 1440 q 428 1402 410 1410 q 465 1394 446 1394 q 508 1447 508 1394 l 608 1447 q 588 1305 608 1360 q 501 1250 567 1250 z "},"O":{"ha":814,"x_min":68,"x_max":746,"o":"m 406 -17 q 146 77 224 -17 q 68 354 68 171 l 68 772 q 146 1048 68 956 q 406 1140 224 1140 q 667 1047 589 1140 q 746 772 746 954 l 746 354 q 667 77 746 171 q 406 -17 589 -17 m 406 160 q 475 195 458 160 q 492 292 492 231 l 492 833 q 475 931 492 896 q 406 965 458 965 q 339 930 356 965 q 322 833 322 894 l 322 292 q 338 195 322 231 q 406 160 353 160 z "},"Ó":{"ha":814,"x_min":68,"x_max":746,"o":"m 406 -17 q 146 77 224 -17 q 68 354 68 171 l 68 772 q 146 1048 68 956 q 406 1140 224 1140 q 667 1047 589 1140 q 746 772 746 954 l 746 354 q 667 77 746 171 q 406 -17 589 -17 m 406 160 q 475 195 458 160 q 492 292 492 231 l 492 833 q 475 931 492 896 q 406 965 458 965 q 339 930 356 965 q 322 833 322 894 l 322 292 q 338 195 322 231 q 406 160 353 160 m 419 1493 l 650 1493 l 475 1214 l 332 1214 l 419 1493 z "},"Ŏ":{"ha":814,"x_min":68,"x_max":746,"o":"m 406 -17 q 146 77 224 -17 q 68 354 68 171 l 68 772 q 146 1048 68 956 q 406 1140 224 1140 q 667 1047 589 1140 q 746 772 746 954 l 746 354 q 667 77 746 171 q 406 -17 589 -17 m 406 160 q 475 195 458 160 q 492 292 492 231 l 492 833 q 475 931 492 896 q 406 965 458 965 q 339 930 356 965 q 322 833 322 894 l 322 292 q 338 195 322 231 q 406 160 353 160 m 407 1215 q 248 1272 307 1215 q 189 1432 189 1328 l 317 1432 q 338 1355 317 1379 q 407 1331 358 1331 q 476 1356 454 1331 q 497 1432 497 1381 l 625 1432 q 566 1272 625 1329 q 407 1215 507 1215 z "},"Ô":{"ha":814,"x_min":68,"x_max":746,"o":"m 406 -17 q 146 77 224 -17 q 68 354 68 171 l 68 772 q 146 1048 68 956 q 406 1140 224 1140 q 667 1047 589 1140 q 746 772 746 954 l 746 354 q 667 77 746 171 q 406 -17 589 -17 m 406 160 q 475 195 458 160 q 492 292 492 231 l 492 833 q 475 931 492 896 q 406 965 458 965 q 339 930 356 965 q 322 833 322 894 l 322 292 q 338 195 322 231 q 406 160 353 160 m 313 1490 l 497 1490 l 633 1224 l 467 1224 l 406 1389 l 346 1224 l 181 1224 l 313 1490 z "},"Ố":{"ha":814,"x_min":68,"x_max":836,"o":"m 406 -17 q 146 77 224 -17 q 68 354 68 171 l 68 772 q 146 1048 68 956 q 406 1140 224 1140 q 667 1047 589 1140 q 746 772 746 954 l 746 354 q 667 77 746 171 q 406 -17 589 -17 m 406 160 q 475 195 458 160 q 492 292 492 231 l 492 833 q 475 931 492 896 q 406 965 458 965 q 339 930 356 965 q 322 833 322 894 l 322 292 q 338 195 322 231 q 406 160 353 160 m 668 1558 l 836 1558 l 714 1388 l 594 1388 l 668 1558 m 313 1456 l 497 1456 l 633 1224 l 472 1224 l 406 1363 l 340 1224 l 181 1224 l 313 1456 z "},"Ộ":{"ha":814,"x_min":68,"x_max":746,"o":"m 406 -17 q 146 77 224 -17 q 68 354 68 171 l 68 772 q 146 1048 68 956 q 406 1140 224 1140 q 667 1047 589 1140 q 746 772 746 954 l 746 354 q 667 77 746 171 q 406 -17 589 -17 m 406 160 q 475 195 458 160 q 492 292 492 231 l 492 833 q 475 931 492 896 q 406 965 458 965 q 339 930 356 965 q 322 833 322 894 l 322 292 q 338 195 322 231 q 406 160 353 160 m 313 1456 l 497 1456 l 633 1224 l 472 1224 l 406 1363 l 340 1224 l 181 1224 l 313 1456 m 310 -97 l 504 -97 l 504 -289 l 310 -289 l 310 -97 z "},"Ồ":{"ha":814,"x_min":68,"x_max":756,"o":"m 406 -17 q 146 77 224 -17 q 68 354 68 171 l 68 772 q 146 1048 68 956 q 406 1140 224 1140 q 667 1047 589 1140 q 746 772 746 954 l 746 354 q 667 77 746 171 q 406 -17 589 -17 m 406 160 q 475 195 458 160 q 492 292 492 231 l 492 833 q 475 931 492 896 q 406 965 458 965 q 339 930 356 965 q 322 833 322 894 l 322 292 q 338 195 322 231 q 406 160 353 160 m 513 1558 l 682 1558 l 756 1388 l 635 1388 l 513 1558 m 313 1456 l 497 1456 l 633 1224 l 472 1224 l 406 1363 l 340 1224 l 181 1224 l 313 1456 z "},"Ổ":{"ha":814,"x_min":68,"x_max":778,"o":"m 406 -17 q 146 77 224 -17 q 68 354 68 171 l 68 772 q 146 1048 68 956 q 406 1140 224 1140 q 667 1047 589 1140 q 746 772 746 954 l 746 354 q 667 77 746 171 q 406 -17 589 -17 m 406 160 q 475 195 458 160 q 492 292 492 231 l 492 833 q 475 931 492 896 q 406 965 458 965 q 339 930 356 965 q 322 833 322 894 l 322 292 q 338 195 322 231 q 406 160 353 160 m 588 1419 q 626 1460 613 1440 q 639 1503 639 1479 q 622 1544 639 1529 q 575 1558 604 1558 q 504 1544 540 1558 l 504 1639 q 618 1661 563 1661 q 734 1626 690 1661 q 778 1524 778 1590 q 744 1423 778 1463 q 651 1351 711 1383 l 588 1419 m 313 1456 l 497 1456 l 633 1224 l 472 1224 l 406 1363 l 340 1224 l 181 1224 l 313 1456 z "},"Ỗ":{"ha":814,"x_min":68,"x_max":746,"o":"m 406 -17 q 146 77 224 -17 q 68 354 68 171 l 68 772 q 146 1048 68 956 q 406 1140 224 1140 q 667 1047 589 1140 q 746 772 746 954 l 746 354 q 667 77 746 171 q 406 -17 589 -17 m 406 160 q 475 195 458 160 q 492 292 492 231 l 492 833 q 475 931 492 896 q 406 965 458 965 q 339 930 356 965 q 322 833 322 894 l 322 292 q 338 195 322 231 q 406 160 353 160 m 313 1456 l 497 1456 l 633 1224 l 472 1224 l 406 1363 l 340 1224 l 181 1224 l 313 1456 m 519 1524 q 472 1533 494 1524 q 422 1560 450 1542 q 380 1581 397 1574 q 346 1589 363 1589 q 296 1532 296 1589 l 188 1532 q 313 1729 185 1729 q 356 1722 336 1729 q 404 1697 375 1714 q 446 1676 428 1683 q 483 1668 464 1668 q 526 1721 526 1668 l 626 1721 q 606 1578 626 1633 q 519 1524 585 1524 z "},"Ȍ":{"ha":814,"x_min":68,"x_max":746,"o":"m 406 -17 q 146 77 224 -17 q 68 354 68 171 l 68 772 q 146 1048 68 956 q 406 1140 224 1140 q 667 1047 589 1140 q 746 772 746 954 l 746 354 q 667 77 746 171 q 406 -17 589 -17 m 406 160 q 475 195 458 160 q 492 292 492 231 l 492 833 q 475 931 492 896 q 406 965 458 965 q 339 930 356 965 q 322 833 322 894 l 322 292 q 338 195 322 231 q 406 160 353 160 m 97 1496 l 269 1496 l 358 1208 l 236 1208 l 97 1496 m 351 1496 l 517 1496 l 599 1208 l 479 1208 l 351 1496 z "},"Ö":{"ha":814,"x_min":68,"x_max":746,"o":"m 406 -17 q 146 77 224 -17 q 68 354 68 171 l 68 772 q 146 1048 68 956 q 406 1140 224 1140 q 667 1047 589 1140 q 746 772 746 954 l 746 354 q 667 77 746 171 q 406 -17 589 -17 m 406 160 q 475 195 458 160 q 492 292 492 231 l 492 833 q 475 931 492 896 q 406 965 458 965 q 339 930 356 965 q 322 833 322 894 l 322 292 q 338 195 322 231 q 406 160 353 160 m 165 1447 l 346 1447 l 346 1242 l 165 1242 l 165 1447 m 468 1447 l 649 1447 l 649 1242 l 468 1242 l 468 1447 z "},"Ȫ":{"ha":814,"x_min":68,"x_max":746,"o":"m 406 -17 q 146 77 224 -17 q 68 354 68 171 l 68 772 q 146 1048 68 956 q 406 1140 224 1140 q 667 1047 589 1140 q 746 772 746 954 l 746 354 q 667 77 746 171 q 406 -17 589 -17 m 406 160 q 475 195 458 160 q 492 292 492 231 l 492 833 q 475 931 492 896 q 406 965 458 965 q 339 930 356 965 q 322 833 322 894 l 322 292 q 338 195 322 231 q 406 160 353 160 m 165 1447 l 346 1447 l 346 1242 l 165 1242 l 165 1447 m 468 1447 l 649 1447 l 649 1242 l 468 1242 l 468 1447 m 215 1676 l 599 1676 l 599 1569 l 215 1569 l 215 1676 z "},"Ȱ":{"ha":814,"x_min":68,"x_max":746,"o":"m 406 -17 q 146 77 224 -17 q 68 354 68 171 l 68 772 q 146 1048 68 956 q 406 1140 224 1140 q 667 1047 589 1140 q 746 772 746 954 l 746 354 q 667 77 746 171 q 406 -17 589 -17 m 406 160 q 475 195 458 160 q 492 292 492 231 l 492 833 q 475 931 492 896 q 406 965 458 965 q 339 930 356 965 q 322 833 322 894 l 322 292 q 338 195 322 231 q 406 160 353 160 m 300 1442 l 514 1442 l 514 1228 l 300 1228 l 300 1442 m 215 1671 l 599 1671 l 599 1564 l 215 1564 l 215 1671 z "},"Ọ":{"ha":814,"x_min":68,"x_max":746,"o":"m 406 -17 q 146 77 224 -17 q 68 354 68 171 l 68 772 q 146 1048 68 956 q 406 1140 224 1140 q 667 1047 589 1140 q 746 772 746 954 l 746 354 q 667 77 746 171 q 406 -17 589 -17 m 406 160 q 475 195 458 160 q 492 292 492 231 l 492 833 q 475 931 492 896 q 406 965 458 965 q 339 930 356 965 q 322 833 322 894 l 322 292 q 338 195 322 231 q 406 160 353 160 m 310 -97 l 504 -97 l 504 -289 l 310 -289 l 310 -97 z "},"Ò":{"ha":814,"x_min":68,"x_max":746,"o":"m 406 -17 q 146 77 224 -17 q 68 354 68 171 l 68 772 q 146 1048 68 956 q 406 1140 224 1140 q 667 1047 589 1140 q 746 772 746 954 l 746 354 q 667 77 746 171 q 406 -17 589 -17 m 406 160 q 475 195 458 160 q 492 292 492 231 l 492 833 q 475 931 492 896 q 406 965 458 965 q 339 930 356 965 q 322 833 322 894 l 322 292 q 338 195 322 231 q 406 160 353 160 m 164 1493 l 397 1493 l 482 1214 l 340 1214 l 164 1493 z "},"Ỏ":{"ha":814,"x_min":68,"x_max":746,"o":"m 406 -17 q 146 77 224 -17 q 68 354 68 171 l 68 772 q 146 1048 68 956 q 406 1140 224 1140 q 667 1047 589 1140 q 746 772 746 954 l 746 354 q 667 77 746 171 q 406 -17 589 -17 m 406 160 q 475 195 458 160 q 492 292 492 231 l 492 833 q 475 931 492 896 q 406 965 458 965 q 339 930 356 965 q 322 833 322 894 l 322 292 q 338 195 322 231 q 406 160 353 160 m 331 1265 q 408 1308 385 1292 q 431 1354 431 1325 q 351 1403 431 1403 q 265 1393 307 1403 l 265 1488 q 407 1506 332 1506 q 528 1472 481 1506 q 576 1368 576 1439 q 531 1261 576 1301 q 407 1193 486 1221 l 331 1265 z "},"Ơ":{"ha":814,"x_min":68,"x_max":746,"o":"m 647 1068 q 746 772 746 981 l 746 354 q 667 77 746 171 q 406 -17 589 -17 q 146 77 224 -17 q 68 354 68 171 l 68 772 q 146 1048 68 956 q 406 1140 224 1140 q 526 1128 475 1140 q 568 1162 556 1133 q 581 1244 581 1190 l 739 1244 q 647 1068 739 1122 m 492 833 q 475 931 492 896 q 406 965 458 965 q 339 930 356 965 q 322 833 322 894 l 322 292 q 338 195 322 231 q 406 160 353 160 q 475 195 458 160 q 492 292 492 231 l 492 833 z "},"Ớ":{"ha":814,"x_min":68,"x_max":746,"o":"m 647 1068 q 746 772 746 981 l 746 354 q 667 77 746 171 q 406 -17 589 -17 q 146 77 224 -17 q 68 354 68 171 l 68 772 q 146 1048 68 956 q 406 1140 224 1140 q 526 1128 475 1140 q 568 1162 556 1133 q 581 1244 581 1190 l 739 1244 q 647 1068 739 1122 m 492 833 q 475 931 492 896 q 406 965 458 965 q 339 930 356 965 q 322 833 322 894 l 322 292 q 338 195 322 231 q 406 160 353 160 q 475 195 458 160 q 492 292 492 231 l 492 833 m 419 1493 l 650 1493 l 475 1214 l 332 1214 l 419 1493 z "},"Ợ":{"ha":814,"x_min":68,"x_max":746,"o":"m 647 1068 q 746 772 746 981 l 746 354 q 667 77 746 171 q 406 -17 589 -17 q 146 77 224 -17 q 68 354 68 171 l 68 772 q 146 1048 68 956 q 406 1140 224 1140 q 526 1128 475 1140 q 568 1162 556 1133 q 581 1244 581 1190 l 739 1244 q 647 1068 739 1122 m 492 833 q 475 931 492 896 q 406 965 458 965 q 339 930 356 965 q 322 833 322 894 l 322 292 q 338 195 322 231 q 406 160 353 160 q 475 195 458 160 q 492 292 492 231 l 492 833 m 310 -97 l 504 -97 l 504 -289 l 310 -289 l 310 -97 z "},"Ờ":{"ha":814,"x_min":68,"x_max":746,"o":"m 647 1068 q 746 772 746 981 l 746 354 q 667 77 746 171 q 406 -17 589 -17 q 146 77 224 -17 q 68 354 68 171 l 68 772 q 146 1048 68 956 q 406 1140 224 1140 q 526 1128 475 1140 q 568 1162 556 1133 q 581 1244 581 1190 l 739 1244 q 647 1068 739 1122 m 492 833 q 475 931 492 896 q 406 965 458 965 q 339 930 356 965 q 322 833 322 894 l 322 292 q 338 195 322 231 q 406 160 353 160 q 475 195 458 160 q 492 292 492 231 l 492 833 m 164 1493 l 397 1493 l 482 1214 l 340 1214 l 164 1493 z "},"Ở":{"ha":814,"x_min":68,"x_max":746,"o":"m 647 1068 q 746 772 746 981 l 746 354 q 667 77 746 171 q 406 -17 589 -17 q 146 77 224 -17 q 68 354 68 171 l 68 772 q 146 1048 68 956 q 406 1140 224 1140 q 526 1128 475 1140 q 568 1162 556 1133 q 581 1244 581 1190 l 739 1244 q 647 1068 739 1122 m 492 833 q 475 931 492 896 q 406 965 458 965 q 339 930 356 965 q 322 833 322 894 l 322 292 q 338 195 322 231 q 406 160 353 160 q 475 195 458 160 q 492 292 492 231 l 492 833 m 331 1265 q 408 1308 385 1292 q 431 1354 431 1325 q 351 1403 431 1403 q 265 1393 307 1403 l 265 1488 q 407 1506 332 1506 q 528 1472 481 1506 q 576 1368 576 1439 q 531 1261 576 1301 q 407 1193 486 1221 l 331 1265 z "},"Ỡ":{"ha":814,"x_min":68,"x_max":746,"o":"m 647 1068 q 746 772 746 981 l 746 354 q 667 77 746 171 q 406 -17 589 -17 q 146 77 224 -17 q 68 354 68 171 l 68 772 q 146 1048 68 956 q 406 1140 224 1140 q 526 1128 475 1140 q 568 1162 556 1133 q 581 1244 581 1190 l 739 1244 q 647 1068 739 1122 m 492 833 q 475 931 492 896 q 406 965 458 965 q 339 930 356 965 q 322 833 322 894 l 322 292 q 338 195 322 231 q 406 160 353 160 q 475 195 458 160 q 492 292 492 231 l 492 833 m 519 1250 q 472 1259 494 1250 q 422 1286 450 1268 q 380 1308 397 1300 q 346 1315 363 1315 q 296 1258 296 1315 l 188 1258 q 313 1456 185 1456 q 356 1448 336 1456 q 404 1424 375 1440 q 446 1402 428 1410 q 483 1394 464 1394 q 526 1447 526 1394 l 626 1447 q 606 1305 626 1360 q 519 1250 585 1250 z "},"Ő":{"ha":814,"x_min":68,"x_max":749,"o":"m 406 -17 q 146 77 224 -17 q 68 354 68 171 l 68 772 q 146 1048 68 956 q 406 1140 224 1140 q 667 1047 589 1140 q 746 772 746 954 l 746 354 q 667 77 746 171 q 406 -17 589 -17 m 406 160 q 475 195 458 160 q 492 292 492 231 l 492 833 q 475 931 492 896 q 406 965 458 965 q 339 930 356 965 q 322 833 322 894 l 322 292 q 338 195 322 231 q 406 160 353 160 m 301 1501 l 485 1501 l 335 1201 l 218 1201 l 301 1501 m 554 1501 l 749 1501 l 582 1201 l 465 1201 l 554 1501 z "},"Ȏ":{"ha":814,"x_min":68,"x_max":746,"o":"m 406 -17 q 146 77 224 -17 q 68 354 68 171 l 68 772 q 146 1048 68 956 q 406 1140 224 1140 q 667 1047 589 1140 q 746 772 746 954 l 746 354 q 667 77 746 171 q 406 -17 589 -17 m 406 160 q 475 195 458 160 q 492 292 492 231 l 492 833 q 475 931 492 896 q 406 965 458 965 q 339 930 356 965 q 322 833 322 894 l 322 292 q 338 195 322 231 q 406 160 353 160 m 189 1224 q 247 1387 189 1329 q 407 1444 304 1444 q 567 1387 510 1444 q 625 1224 625 1329 l 497 1224 q 476 1304 497 1279 q 407 1329 456 1329 q 338 1304 358 1329 q 317 1224 317 1279 l 189 1224 z "},"Ō":{"ha":814,"x_min":68,"x_max":746,"o":"m 406 -17 q 146 77 224 -17 q 68 354 68 171 l 68 772 q 146 1048 68 956 q 406 1140 224 1140 q 667 1047 589 1140 q 746 772 746 954 l 746 354 q 667 77 746 171 q 406 -17 589 -17 m 406 160 q 475 195 458 160 q 492 292 492 231 l 492 833 q 475 931 492 896 q 406 965 458 965 q 339 930 356 965 q 322 833 322 894 l 322 292 q 338 195 322 231 q 406 160 353 160 m 215 1354 l 599 1354 l 599 1247 l 215 1247 l 215 1354 z "},"Ǫ":{"ha":814,"x_min":68,"x_max":746,"o":"m 406 1140 q 667 1047 589 1140 q 746 772 746 954 l 746 354 q 686 101 746 193 q 488 -11 626 8 q 443 -168 443 -100 q 468 -231 443 -211 q 532 -250 493 -250 q 572 -247 553 -250 l 550 -357 q 504 -361 533 -361 q 347 -330 411 -361 q 283 -211 283 -299 q 310 -110 283 -164 q 375 -15 336 -57 q 139 85 210 -8 q 68 354 68 179 l 68 772 q 146 1048 68 956 q 406 1140 224 1140 m 322 292 q 338 195 322 231 q 406 160 353 160 q 475 195 458 160 q 492 292 492 231 l 492 833 q 475 931 492 896 q 406 965 458 965 q 339 930 356 965 q 322 833 322 894 l 322 292 z "},"Ø":{"ha":794,"x_min":68,"x_max":746,"o":"m 622 1088 q 717 965 688 1044 q 746 772 746 886 l 746 354 q 667 77 746 171 q 406 -17 589 -17 q 221 19 296 -17 l 167 -125 l 113 -103 l 171 53 q 68 354 68 140 l 68 772 q 146 1048 68 956 q 406 1140 224 1140 q 568 1114 503 1140 l 611 1228 l 667 1207 l 622 1088 m 322 457 l 488 896 q 462 947 481 929 q 406 965 443 965 q 339 930 356 965 q 322 833 322 894 l 322 457 m 406 160 q 475 195 458 160 q 492 292 492 231 l 492 740 l 322 289 q 338 194 322 229 q 406 160 354 160 z "},"Ǿ":{"ha":794,"x_min":68,"x_max":746,"o":"m 622 1088 q 717 965 688 1044 q 746 772 746 886 l 746 354 q 667 77 746 171 q 406 -17 589 -17 q 221 19 296 -17 l 167 -125 l 113 -103 l 171 53 q 68 354 68 140 l 68 772 q 146 1048 68 956 q 406 1140 224 1140 q 568 1114 503 1140 l 611 1228 l 667 1207 l 622 1088 m 322 457 l 488 896 q 462 947 481 929 q 406 965 443 965 q 339 930 356 965 q 322 833 322 894 l 322 457 m 406 160 q 475 195 458 160 q 492 292 492 231 l 492 740 l 322 289 q 338 194 322 229 q 406 160 354 160 m 410 1493 l 640 1493 l 465 1214 l 322 1214 l 410 1493 z "},"Õ":{"ha":814,"x_min":68,"x_max":746,"o":"m 406 -17 q 146 77 224 -17 q 68 354 68 171 l 68 772 q 146 1048 68 956 q 406 1140 224 1140 q 667 1047 589 1140 q 746 772 746 954 l 746 354 q 667 77 746 171 q 406 -17 589 -17 m 406 160 q 475 195 458 160 q 492 292 492 231 l 492 833 q 475 931 492 896 q 406 965 458 965 q 339 930 356 965 q 322 833 322 894 l 322 292 q 338 195 322 231 q 406 160 353 160 m 519 1250 q 472 1259 494 1250 q 422 1286 450 1268 q 380 1308 397 1300 q 346 1315 363 1315 q 296 1258 296 1315 l 188 1258 q 313 1456 185 1456 q 356 1448 336 1456 q 404 1424 375 1440 q 446 1402 428 1410 q 483 1394 464 1394 q 526 1447 526 1394 l 626 1447 q 606 1305 626 1360 q 519 1250 585 1250 z "},"Ȭ":{"ha":814,"x_min":68,"x_max":746,"o":"m 406 -17 q 146 77 224 -17 q 68 354 68 171 l 68 772 q 146 1048 68 956 q 406 1140 224 1140 q 667 1047 589 1140 q 746 772 746 954 l 746 354 q 667 77 746 171 q 406 -17 589 -17 m 406 160 q 475 195 458 160 q 492 292 492 231 l 492 833 q 475 931 492 896 q 406 965 458 965 q 339 930 356 965 q 322 833 322 894 l 322 292 q 338 195 322 231 q 406 160 353 160 m 519 1250 q 472 1259 494 1250 q 422 1286 450 1268 q 380 1308 397 1300 q 346 1315 363 1315 q 296 1258 296 1315 l 188 1258 q 313 1456 185 1456 q 356 1448 336 1456 q 404 1424 375 1440 q 446 1402 428 1410 q 483 1394 464 1394 q 526 1447 526 1394 l 626 1447 q 606 1305 626 1360 q 519 1250 585 1250 m 215 1685 l 599 1685 l 599 1578 l 215 1578 l 215 1685 z "},"Œ":{"ha":997,"x_min":68,"x_max":961,"o":"m 410 0 q 147 99 226 0 q 68 386 68 199 l 68 722 q 407 1121 68 1119 l 960 1121 l 960 951 l 726 951 l 726 668 l 899 668 l 899 494 l 726 494 l 726 168 l 961 168 l 961 0 l 410 0 m 479 172 l 479 944 l 410 944 q 333 897 350 944 q 317 767 317 850 l 317 339 q 334 215 317 260 q 410 172 351 171 l 479 172 z "},"P":{"ha":793,"x_min":83,"x_max":757,"o":"m 83 1125 l 461 1125 q 683 1041 610 1125 q 757 799 757 957 q 672 548 757 618 q 432 478 586 478 l 332 478 l 332 0 l 83 0 l 83 1125 m 415 651 q 502 686 481 651 q 524 803 524 721 q 503 914 524 878 q 414 950 482 950 l 332 950 l 332 651 l 415 651 z "},"Ṗ":{"ha":793,"x_min":83,"x_max":757,"o":"m 83 1125 l 461 1125 q 683 1041 610 1125 q 757 799 757 957 q 672 548 757 618 q 432 478 586 478 l 332 478 l 332 0 l 83 0 l 83 1125 m 415 651 q 502 686 481 651 q 524 803 524 721 q 503 914 524 878 q 414 950 482 950 l 332 950 l 332 651 l 415 651 m 290 1442 l 504 1442 l 504 1228 l 290 1228 l 290 1442 z "},"Þ":{"ha":781,"x_min":71,"x_max":760,"o":"m 71 1125 l 321 1125 l 321 975 l 429 975 q 679 901 599 975 q 760 663 760 828 q 723 458 760 531 q 613 356 686 385 q 417 325 539 326 l 321 325 l 321 0 l 71 0 l 71 1125 m 400 501 q 503 535 472 501 q 533 650 533 569 q 504 761 533 726 q 406 796 475 796 l 321 796 l 321 501 l 400 501 z "},"Q":{"ha":814,"x_min":68,"x_max":746,"o":"m 660 -221 q 540 -140 610 -200 q 429 -15 471 -79 l 406 -17 q 146 77 224 -17 q 68 354 68 171 l 68 772 q 146 1048 68 956 q 406 1140 224 1140 q 667 1047 589 1140 q 746 772 746 954 l 746 354 q 710 148 746 231 q 597 25 675 65 q 713 -74 668 -51 l 660 -221 m 406 160 q 475 195 458 160 q 492 292 492 231 l 492 833 q 475 931 492 896 q 406 965 458 965 q 338 931 353 965 q 322 833 322 897 l 322 292 q 338 195 322 231 q 406 160 353 160 z "},"R":{"ha":833,"x_min":83,"x_max":783,"o":"m 83 1125 l 393 1125 q 672 1060 578 1125 q 767 828 767 994 q 738 649 767 715 q 629 544 708 582 l 783 0 l 526 0 l 403 504 l 332 504 l 332 0 l 83 0 l 83 1125 m 401 647 q 506 687 476 647 q 536 806 536 726 q 508 920 536 882 q 413 958 481 958 l 332 958 l 332 647 l 401 647 z "},"Ŕ":{"ha":833,"x_min":83,"x_max":783,"o":"m 83 1125 l 393 1125 q 672 1060 578 1125 q 767 828 767 994 q 738 649 767 715 q 629 544 708 582 l 783 0 l 526 0 l 403 504 l 332 504 l 332 0 l 83 0 l 83 1125 m 401 647 q 506 687 476 647 q 536 806 536 726 q 508 920 536 882 q 413 958 481 958 l 332 958 l 332 647 l 401 647 m 429 1493 l 660 1493 l 485 1214 l 342 1214 l 429 1493 z "},"Ř":{"ha":833,"x_min":83,"x_max":783,"o":"m 83 1125 l 393 1125 q 672 1060 578 1125 q 767 828 767 994 q 738 649 767 715 q 629 544 708 582 l 783 0 l 526 0 l 403 504 l 332 504 l 332 0 l 83 0 l 83 1125 m 401 647 q 506 687 476 647 q 536 806 536 726 q 508 920 536 882 q 413 958 481 958 l 332 958 l 332 647 l 401 647 m 185 1469 l 346 1469 l 417 1317 l 488 1469 l 649 1469 l 526 1210 l 307 1210 l 185 1469 z "},"Ŗ":{"ha":833,"x_min":83,"x_max":783,"o":"m 83 1125 l 393 1125 q 672 1060 578 1125 q 767 828 767 994 q 738 649 767 715 q 629 544 708 582 l 783 0 l 526 0 l 403 504 l 332 504 l 332 0 l 83 0 l 83 1125 m 401 647 q 506 687 476 647 q 536 806 536 726 q 508 920 536 882 q 413 958 481 958 l 332 958 l 332 647 l 401 647 m 329 -419 q 401 -386 375 -411 q 428 -307 428 -361 l 310 -307 l 310 -96 l 524 -96 l 522 -276 q 347 -494 522 -490 l 329 -419 z "},"Ȑ":{"ha":833,"x_min":83,"x_max":783,"o":"m 83 1125 l 393 1125 q 672 1060 578 1125 q 767 828 767 994 q 738 649 767 715 q 629 544 708 582 l 783 0 l 526 0 l 403 504 l 332 504 l 332 0 l 83 0 l 83 1125 m 401 647 q 506 687 476 647 q 536 806 536 726 q 508 920 536 882 q 413 958 481 958 l 332 958 l 332 647 l 401 647 m 107 1496 l 279 1496 l 368 1208 l 246 1208 l 107 1496 m 361 1496 l 526 1496 l 608 1208 l 489 1208 l 361 1496 z "},"Ȓ":{"ha":833,"x_min":83,"x_max":783,"o":"m 83 1125 l 393 1125 q 672 1060 578 1125 q 767 828 767 994 q 738 649 767 715 q 629 544 708 582 l 783 0 l 526 0 l 403 504 l 332 504 l 332 0 l 83 0 l 83 1125 m 401 647 q 506 687 476 647 q 536 806 536 726 q 508 920 536 882 q 413 958 481 958 l 332 958 l 332 647 l 401 647 m 199 1224 q 256 1387 199 1329 q 417 1444 314 1444 q 577 1387 519 1444 q 635 1224 635 1329 l 507 1224 q 486 1304 507 1279 q 417 1329 465 1329 q 347 1304 368 1329 q 326 1224 326 1279 l 199 1224 z "},"S":{"ha":714,"x_min":58,"x_max":676,"o":"m 382 -17 q 142 69 221 -17 q 58 340 64 154 l 271 372 q 297 219 272 265 q 369 172 321 172 q 432 254 432 172 q 402 367 432 319 q 308 468 372 414 l 211 553 q 98 683 136 618 q 60 846 60 747 q 144 1064 60 988 q 375 1140 228 1140 q 592 1047 535 1140 q 654 821 650 954 l 440 794 q 424 921 438 882 q 367 958 411 960 q 317 931 335 958 q 300 871 300 904 q 327 773 300 811 q 408 686 354 735 l 501 604 q 631 451 585 529 q 676 267 676 374 q 640 123 676 188 q 536 21 603 58 q 382 -17 469 -17 z "},"Ś":{"ha":714,"x_min":58,"x_max":676,"o":"m 382 -17 q 142 69 221 -17 q 58 340 64 154 l 271 372 q 297 219 272 265 q 369 172 321 172 q 432 254 432 172 q 402 367 432 319 q 308 468 372 414 l 211 553 q 98 683 136 618 q 60 846 60 747 q 144 1064 60 988 q 375 1140 228 1140 q 592 1047 535 1140 q 654 821 650 954 l 440 794 q 424 921 438 882 q 367 958 411 960 q 317 931 335 958 q 300 871 300 904 q 327 773 300 811 q 408 686 354 735 l 501 604 q 631 451 585 529 q 676 267 676 374 q 640 123 676 188 q 536 21 603 58 q 382 -17 469 -17 m 369 1493 l 600 1493 l 425 1214 l 282 1214 l 369 1493 z "},"Š":{"ha":714,"x_min":58,"x_max":676,"o":"m 382 -17 q 142 69 221 -17 q 58 340 64 154 l 271 372 q 297 219 272 265 q 369 172 321 172 q 432 254 432 172 q 402 367 432 319 q 308 468 372 414 l 211 553 q 98 683 136 618 q 60 846 60 747 q 144 1064 60 988 q 375 1140 228 1140 q 592 1047 535 1140 q 654 821 650 954 l 440 794 q 424 921 438 882 q 367 958 411 960 q 317 931 335 958 q 300 871 300 904 q 327 773 300 811 q 408 686 354 735 l 501 604 q 631 451 585 529 q 676 267 676 374 q 640 123 676 188 q 536 21 603 58 q 382 -17 469 -17 m 125 1469 l 286 1469 l 357 1317 l 428 1469 l 589 1469 l 467 1210 l 247 1210 l 125 1469 z "},"Ş":{"ha":714,"x_min":58,"x_max":676,"o":"m 676 267 q 642 127 676 190 q 545 26 608 64 q 399 -17 482 -12 l 399 -92 q 538 -128 488 -92 q 589 -236 589 -164 q 531 -348 589 -311 q 385 -385 472 -385 q 279 -368 329 -385 l 279 -271 q 358 -282 318 -282 q 444 -233 444 -282 q 406 -181 444 -199 q 317 -161 368 -164 l 317 -12 q 127 89 190 3 q 58 340 64 175 l 271 372 q 297 219 272 265 q 369 172 321 172 q 432 254 432 172 q 402 367 432 319 q 308 468 372 414 l 211 553 q 98 683 136 618 q 60 846 60 747 q 144 1064 60 988 q 375 1140 228 1140 q 592 1047 535 1140 q 654 821 650 954 l 440 794 q 424 921 438 882 q 367 958 411 960 q 317 931 335 958 q 300 871 300 904 q 327 773 300 811 q 408 686 354 735 l 501 604 q 631 451 585 529 q 676 267 676 374 z "},"Ŝ":{"ha":714,"x_min":58,"x_max":676,"o":"m 382 -17 q 142 69 221 -17 q 58 340 64 154 l 271 372 q 297 219 272 265 q 369 172 321 172 q 432 254 432 172 q 402 367 432 319 q 308 468 372 414 l 211 553 q 98 683 136 618 q 60 846 60 747 q 144 1064 60 988 q 375 1140 228 1140 q 592 1047 535 1140 q 654 821 650 954 l 440 794 q 424 921 438 882 q 367 958 411 960 q 317 931 335 958 q 300 871 300 904 q 327 773 300 811 q 408 686 354 735 l 501 604 q 631 451 585 529 q 676 267 676 374 q 640 123 676 188 q 536 21 603 58 q 382 -17 469 -17 m 263 1490 l 447 1490 l 583 1224 l 417 1224 l 356 1389 l 296 1224 l 131 1224 l 263 1490 z "},"Ș":{"ha":714,"x_min":58,"x_max":676,"o":"m 382 -17 q 142 69 221 -17 q 58 340 64 154 l 271 372 q 297 219 272 265 q 369 172 321 172 q 432 254 432 172 q 402 367 432 319 q 308 468 372 414 l 211 553 q 98 683 136 618 q 60 846 60 747 q 144 1064 60 988 q 375 1140 228 1140 q 592 1047 535 1140 q 654 821 650 954 l 440 794 q 424 921 438 882 q 367 958 411 960 q 317 931 335 958 q 300 871 300 904 q 327 773 300 811 q 408 686 354 735 l 501 604 q 631 451 585 529 q 676 267 676 374 q 640 123 676 188 q 536 21 603 58 q 382 -17 469 -17 m 269 -419 q 342 -386 315 -411 q 368 -307 368 -361 l 250 -307 l 250 -96 l 464 -96 l 463 -276 q 288 -494 463 -490 l 269 -419 z "},"Ṡ":{"ha":714,"x_min":58,"x_max":676,"o":"m 382 -17 q 142 69 221 -17 q 58 340 64 154 l 271 372 q 297 219 272 265 q 369 172 321 172 q 432 254 432 172 q 402 367 432 319 q 308 468 372 414 l 211 553 q 98 683 136 618 q 60 846 60 747 q 144 1064 60 988 q 375 1140 228 1140 q 592 1047 535 1140 q 654 821 650 954 l 440 794 q 424 921 438 882 q 367 958 411 960 q 317 931 335 958 q 300 871 300 904 q 327 773 300 811 q 408 686 354 735 l 501 604 q 631 451 585 529 q 676 267 676 374 q 640 123 676 188 q 536 21 603 58 q 382 -17 469 -17 m 250 1442 l 464 1442 l 464 1228 l 250 1228 l 250 1442 z "},"ẞ":{"ha":864,"x_min":75,"x_max":818,"o":"m 617 619 q 767 520 717 594 q 818 326 818 446 q 728 66 818 149 q 460 -17 638 -17 l 418 -17 l 418 153 l 444 153 q 544 194 510 153 q 579 322 579 236 q 547 449 579 407 q 444 492 514 492 l 433 492 l 432 656 l 583 944 q 483 965 539 965 q 325 781 325 965 l 325 0 l 75 0 l 75 774 q 171 1042 75 943 q 458 1140 267 1140 q 622 1121 549 1140 q 765 1064 696 1101 l 765 899 l 617 619 z "},"Ə":{"ha":808,"x_min":63,"x_max":740,"o":"m 404 -17 q 151 72 240 -17 q 63 328 63 160 l 63 585 l 486 585 l 486 842 q 465 937 486 908 q 400 965 444 965 q 338 937 358 965 q 317 842 317 908 l 317 682 l 63 682 l 63 797 q 151 1053 63 965 q 404 1140 240 1140 q 650 1046 560 1140 q 740 783 740 951 l 740 339 q 651 77 740 171 q 404 -17 561 -17 m 401 158 q 465 188 444 158 q 486 281 486 217 l 486 435 l 317 435 l 317 281 q 338 188 317 217 q 401 158 358 158 z "},"T":{"ha":621,"x_min":14,"x_max":607,"o":"m 186 940 l 14 940 l 14 1125 l 607 1125 l 607 940 l 436 940 l 436 0 l 186 0 l 186 940 z "},"Ŧ":{"ha":621,"x_min":14,"x_max":607,"o":"m 436 940 l 436 633 l 564 633 l 564 513 l 436 513 l 436 0 l 186 0 l 186 513 l 64 513 l 64 633 l 186 633 l 186 940 l 14 940 l 14 1125 l 607 1125 l 607 940 l 436 940 z "},"Ť":{"ha":621,"x_min":14,"x_max":607,"o":"m 186 940 l 14 940 l 14 1125 l 607 1125 l 607 940 l 436 940 l 436 0 l 186 0 l 186 940 m 78 1469 l 239 1469 l 310 1317 l 381 1469 l 542 1469 l 419 1210 l 200 1210 l 78 1469 z "},"Ţ":{"ha":621,"x_min":14,"x_max":607,"o":"m 186 940 l 14 940 l 14 1125 l 607 1125 l 607 940 l 436 940 l 436 0 l 186 0 l 186 940 m 338 -385 q 232 -368 282 -385 l 232 -271 q 311 -282 271 -282 q 397 -233 397 -282 q 359 -181 397 -199 q 269 -161 321 -164 l 269 0 l 351 0 l 351 -92 q 491 -128 440 -92 q 542 -236 542 -164 q 483 -348 542 -311 q 338 -385 425 -385 z "},"Ț":{"ha":621,"x_min":14,"x_max":607,"o":"m 186 940 l 14 940 l 14 1125 l 607 1125 l 607 940 l 436 940 l 436 0 l 186 0 l 186 940 m 222 -419 q 294 -386 268 -411 q 321 -307 321 -361 l 203 -307 l 203 -96 l 417 -96 l 415 -276 q 240 -494 415 -490 l 222 -419 z "},"Ṫ":{"ha":621,"x_min":14,"x_max":607,"o":"m 186 940 l 14 940 l 14 1125 l 607 1125 l 607 940 l 436 940 l 436 0 l 186 0 l 186 940 m 203 1442 l 417 1442 l 417 1228 l 203 1228 l 203 1442 z "},"U":{"ha":817,"x_min":75,"x_max":742,"o":"m 408 -17 q 208 24 282 -17 q 105 145 135 65 q 75 349 75 225 l 75 1125 l 321 1125 l 321 311 q 338 203 321 243 q 408 163 356 163 q 478 203 461 163 q 494 311 494 243 l 494 1125 l 742 1125 l 742 349 q 711 145 742 225 q 608 24 681 65 q 408 -17 535 -17 z "},"Ú":{"ha":817,"x_min":75,"x_max":742,"o":"m 408 -17 q 208 24 282 -17 q 105 145 135 65 q 75 349 75 225 l 75 1125 l 321 1125 l 321 311 q 338 203 321 243 q 408 163 356 163 q 478 203 461 163 q 494 311 494 243 l 494 1125 l 742 1125 l 742 349 q 711 145 742 225 q 608 24 681 65 q 408 -17 535 -17 m 421 1493 l 651 1493 l 476 1214 l 333 1214 l 421 1493 z "},"Ŭ":{"ha":817,"x_min":75,"x_max":742,"o":"m 408 -17 q 208 24 282 -17 q 105 145 135 65 q 75 349 75 225 l 75 1125 l 321 1125 l 321 311 q 338 203 321 243 q 408 163 356 163 q 478 203 461 163 q 494 311 494 243 l 494 1125 l 742 1125 l 742 349 q 711 145 742 225 q 608 24 681 65 q 408 -17 535 -17 m 408 1215 q 249 1272 308 1215 q 190 1432 190 1328 l 318 1432 q 339 1355 318 1379 q 408 1331 360 1331 q 477 1356 456 1331 q 499 1432 499 1381 l 626 1432 q 567 1272 626 1329 q 408 1215 508 1215 z "},"Û":{"ha":817,"x_min":75,"x_max":742,"o":"m 408 -17 q 208 24 282 -17 q 105 145 135 65 q 75 349 75 225 l 75 1125 l 321 1125 l 321 311 q 338 203 321 243 q 408 163 356 163 q 478 203 461 163 q 494 311 494 243 l 494 1125 l 742 1125 l 742 349 q 711 145 742 225 q 608 24 681 65 q 408 -17 535 -17 m 314 1490 l 499 1490 l 635 1224 l 468 1224 l 407 1389 l 347 1224 l 182 1224 l 314 1490 z "},"Ȕ":{"ha":817,"x_min":75,"x_max":742,"o":"m 408 -17 q 208 24 282 -17 q 105 145 135 65 q 75 349 75 225 l 75 1125 l 321 1125 l 321 311 q 338 203 321 243 q 408 163 356 163 q 478 203 461 163 q 494 311 494 243 l 494 1125 l 742 1125 l 742 349 q 711 145 742 225 q 608 24 681 65 q 408 -17 535 -17 m 99 1496 l 271 1496 l 360 1208 l 238 1208 l 99 1496 m 353 1496 l 518 1496 l 600 1208 l 481 1208 l 353 1496 z "},"Ü":{"ha":817,"x_min":75,"x_max":742,"o":"m 408 -17 q 208 24 282 -17 q 105 145 135 65 q 75 349 75 225 l 75 1125 l 321 1125 l 321 311 q 338 203 321 243 q 408 163 356 163 q 478 203 461 163 q 494 311 494 243 l 494 1125 l 742 1125 l 742 349 q 711 145 742 225 q 608 24 681 65 q 408 -17 535 -17 m 167 1447 l 347 1447 l 347 1242 l 167 1242 l 167 1447 m 469 1447 l 650 1447 l 650 1242 l 469 1242 l 469 1447 z "},"Ụ":{"ha":817,"x_min":75,"x_max":742,"o":"m 408 -17 q 208 24 282 -17 q 105 145 135 65 q 75 349 75 225 l 75 1125 l 321 1125 l 321 311 q 338 203 321 243 q 408 163 356 163 q 478 203 461 163 q 494 311 494 243 l 494 1125 l 742 1125 l 742 349 q 711 145 742 225 q 608 24 681 65 q 408 -17 535 -17 m 311 -97 l 506 -97 l 506 -289 l 311 -289 l 311 -97 z "},"Ù":{"ha":817,"x_min":75,"x_max":742,"o":"m 408 -17 q 208 24 282 -17 q 105 145 135 65 q 75 349 75 225 l 75 1125 l 321 1125 l 321 311 q 338 203 321 243 q 408 163 356 163 q 478 203 461 163 q 494 311 494 243 l 494 1125 l 742 1125 l 742 349 q 711 145 742 225 q 608 24 681 65 q 408 -17 535 -17 m 165 1493 l 399 1493 l 483 1214 l 342 1214 l 165 1493 z "},"Ủ":{"ha":817,"x_min":75,"x_max":742,"o":"m 408 -17 q 208 24 282 -17 q 105 145 135 65 q 75 349 75 225 l 75 1125 l 321 1125 l 321 311 q 338 203 321 243 q 408 163 356 163 q 478 203 461 163 q 494 311 494 243 l 494 1125 l 742 1125 l 742 349 q 711 145 742 225 q 608 24 681 65 q 408 -17 535 -17 m 332 1265 q 409 1308 386 1292 q 432 1354 432 1325 q 353 1403 432 1403 q 267 1393 308 1403 l 267 1488 q 408 1506 333 1506 q 530 1472 482 1506 q 578 1368 578 1439 q 533 1261 578 1301 q 408 1193 488 1221 l 332 1265 z "},"Ư":{"ha":817,"x_min":75,"x_max":838,"o":"m 838 1244 q 813 1136 838 1182 q 742 1065 788 1090 l 742 349 q 711 145 742 225 q 608 24 681 65 q 408 -17 535 -17 q 208 24 282 -17 q 105 145 135 65 q 75 349 75 225 l 75 1125 l 321 1125 l 321 311 q 338 203 321 243 q 408 163 356 163 q 478 203 461 163 q 494 311 494 243 l 494 1125 l 604 1125 q 662 1153 644 1125 q 679 1244 679 1182 l 838 1244 z "},"Ứ":{"ha":817,"x_min":75,"x_max":838,"o":"m 838 1244 q 813 1136 838 1182 q 742 1065 788 1090 l 742 349 q 711 145 742 225 q 608 24 681 65 q 408 -17 535 -17 q 208 24 282 -17 q 105 145 135 65 q 75 349 75 225 l 75 1125 l 321 1125 l 321 311 q 338 203 321 243 q 408 163 356 163 q 478 203 461 163 q 494 311 494 243 l 494 1125 l 604 1125 q 662 1153 644 1125 q 679 1244 679 1182 l 838 1244 m 421 1493 l 651 1493 l 476 1214 l 333 1214 l 421 1493 z "},"Ự":{"ha":817,"x_min":75,"x_max":838,"o":"m 838 1244 q 813 1136 838 1182 q 742 1065 788 1090 l 742 349 q 711 145 742 225 q 608 24 681 65 q 408 -17 535 -17 q 208 24 282 -17 q 105 145 135 65 q 75 349 75 225 l 75 1125 l 321 1125 l 321 311 q 338 203 321 243 q 408 163 356 163 q 478 203 461 163 q 494 311 494 243 l 494 1125 l 604 1125 q 662 1153 644 1125 q 679 1244 679 1182 l 838 1244 m 311 -97 l 506 -97 l 506 -289 l 311 -289 l 311 -97 z "},"Ừ":{"ha":817,"x_min":75,"x_max":838,"o":"m 838 1244 q 813 1136 838 1182 q 742 1065 788 1090 l 742 349 q 711 145 742 225 q 608 24 681 65 q 408 -17 535 -17 q 208 24 282 -17 q 105 145 135 65 q 75 349 75 225 l 75 1125 l 321 1125 l 321 311 q 338 203 321 243 q 408 163 356 163 q 478 203 461 163 q 494 311 494 243 l 494 1125 l 604 1125 q 662 1153 644 1125 q 679 1244 679 1182 l 838 1244 m 165 1493 l 399 1493 l 483 1214 l 342 1214 l 165 1493 z "},"Ử":{"ha":817,"x_min":75,"x_max":838,"o":"m 838 1244 q 813 1136 838 1182 q 742 1065 788 1090 l 742 349 q 711 145 742 225 q 608 24 681 65 q 408 -17 535 -17 q 208 24 282 -17 q 105 145 135 65 q 75 349 75 225 l 75 1125 l 321 1125 l 321 311 q 338 203 321 243 q 408 163 356 163 q 478 203 461 163 q 494 311 494 243 l 494 1125 l 604 1125 q 662 1153 644 1125 q 679 1244 679 1182 l 838 1244 m 332 1265 q 409 1308 386 1292 q 432 1354 432 1325 q 353 1403 432 1403 q 267 1393 308 1403 l 267 1488 q 408 1506 333 1506 q 530 1472 482 1506 q 578 1368 578 1439 q 533 1261 578 1301 q 408 1193 488 1221 l 332 1265 z "},"Ữ":{"ha":817,"x_min":75,"x_max":838,"o":"m 838 1244 q 813 1136 838 1182 q 742 1065 788 1090 l 742 349 q 711 145 742 225 q 608 24 681 65 q 408 -17 535 -17 q 208 24 282 -17 q 105 145 135 65 q 75 349 75 225 l 75 1125 l 321 1125 l 321 311 q 338 203 321 243 q 408 163 356 163 q 478 203 461 163 q 494 311 494 243 l 494 1125 l 604 1125 q 662 1153 644 1125 q 679 1244 679 1182 l 838 1244 m 521 1250 q 474 1259 496 1250 q 424 1286 451 1268 q 381 1308 399 1300 q 347 1315 364 1315 q 297 1258 297 1315 l 189 1258 q 314 1456 186 1456 q 357 1448 338 1456 q 406 1424 376 1440 q 447 1402 429 1410 q 485 1394 465 1394 q 528 1447 528 1394 l 628 1447 q 607 1305 628 1360 q 521 1250 586 1250 z "},"Ű":{"ha":817,"x_min":75,"x_max":750,"o":"m 408 -17 q 208 24 282 -17 q 105 145 135 65 q 75 349 75 225 l 75 1125 l 321 1125 l 321 311 q 338 203 321 243 q 408 163 356 163 q 478 203 461 163 q 494 311 494 243 l 494 1125 l 742 1125 l 742 349 q 711 145 742 225 q 608 24 681 65 q 408 -17 535 -17 m 303 1501 l 486 1501 l 336 1201 l 219 1201 l 303 1501 m 556 1501 l 750 1501 l 583 1201 l 467 1201 l 556 1501 z "},"Ȗ":{"ha":817,"x_min":75,"x_max":742,"o":"m 408 -17 q 208 24 282 -17 q 105 145 135 65 q 75 349 75 225 l 75 1125 l 321 1125 l 321 311 q 338 203 321 243 q 408 163 356 163 q 478 203 461 163 q 494 311 494 243 l 494 1125 l 742 1125 l 742 349 q 711 145 742 225 q 608 24 681 65 q 408 -17 535 -17 m 190 1224 q 248 1387 190 1329 q 408 1444 306 1444 q 569 1387 511 1444 q 626 1224 626 1329 l 499 1224 q 478 1304 499 1279 q 408 1329 457 1329 q 339 1304 360 1329 q 318 1224 318 1279 l 190 1224 z "},"Ū":{"ha":817,"x_min":75,"x_max":742,"o":"m 408 -17 q 208 24 282 -17 q 105 145 135 65 q 75 349 75 225 l 75 1125 l 321 1125 l 321 311 q 338 203 321 243 q 408 163 356 163 q 478 203 461 163 q 494 311 494 243 l 494 1125 l 742 1125 l 742 349 q 711 145 742 225 q 608 24 681 65 q 408 -17 535 -17 m 217 1354 l 600 1354 l 600 1247 l 217 1247 l 217 1354 z "},"Ų":{"ha":817,"x_min":75,"x_max":742,"o":"m 742 1125 l 742 349 q 685 95 742 183 q 488 -12 628 7 q 444 -168 444 -96 q 469 -231 444 -211 q 533 -250 494 -250 q 574 -247 554 -250 l 551 -357 q 506 -361 535 -361 q 349 -330 413 -361 q 285 -211 285 -299 q 311 -110 285 -164 q 376 -17 338 -57 q 142 81 208 -8 q 75 349 75 169 l 75 1125 l 321 1125 l 321 311 q 338 203 321 243 q 408 163 356 163 q 478 203 461 163 q 494 311 494 243 l 494 1125 l 742 1125 z "},"Ů":{"ha":817,"x_min":75,"x_max":742,"o":"m 408 -17 q 208 24 282 -17 q 105 145 135 65 q 75 349 75 225 l 75 1125 l 321 1125 l 321 311 q 338 203 321 243 q 408 163 356 163 q 478 203 461 163 q 494 311 494 243 l 494 1125 l 742 1125 l 742 349 q 711 145 742 225 q 608 24 681 65 q 408 -17 535 -17 m 407 1186 q 292 1226 338 1186 q 246 1338 246 1265 q 292 1450 246 1410 q 407 1490 338 1490 q 524 1450 476 1490 q 571 1338 571 1410 q 524 1226 571 1265 q 407 1186 478 1186 m 407 1265 q 458 1286 440 1265 q 476 1338 476 1307 q 458 1390 476 1369 q 407 1411 440 1411 q 357 1390 375 1411 q 339 1338 339 1369 q 357 1286 339 1307 q 407 1265 375 1265 z "},"Ũ":{"ha":817,"x_min":75,"x_max":742,"o":"m 408 -17 q 208 24 282 -17 q 105 145 135 65 q 75 349 75 225 l 75 1125 l 321 1125 l 321 311 q 338 203 321 243 q 408 163 356 163 q 478 203 461 163 q 494 311 494 243 l 494 1125 l 742 1125 l 742 349 q 711 145 742 225 q 608 24 681 65 q 408 -17 535 -17 m 521 1250 q 474 1259 496 1250 q 424 1286 451 1268 q 381 1308 399 1300 q 347 1315 364 1315 q 297 1258 297 1315 l 189 1258 q 314 1456 186 1456 q 357 1448 338 1456 q 406 1424 376 1440 q 447 1402 429 1410 q 485 1394 465 1394 q 528 1447 528 1394 l 628 1447 q 607 1305 628 1360 q 521 1250 586 1250 z "},"V":{"ha":731,"x_min":31,"x_max":701,"o":"m 31 1125 l 243 1125 l 364 361 l 476 1125 l 701 1125 l 496 0 l 233 0 l 31 1125 z "},"W":{"ha":968,"x_min":38,"x_max":931,"o":"m 38 1125 l 249 1125 l 315 469 l 400 1124 l 565 1124 l 654 474 l 722 1125 l 931 1125 l 796 0 l 579 0 l 483 679 l 393 0 l 174 0 l 38 1125 z "},"Ẃ":{"ha":968,"x_min":38,"x_max":931,"o":"m 38 1125 l 249 1125 l 315 469 l 400 1124 l 565 1124 l 654 474 l 722 1125 l 931 1125 l 796 0 l 579 0 l 483 679 l 393 0 l 174 0 l 38 1125 m 497 1493 l 728 1493 l 553 1214 l 410 1214 l 497 1493 z "},"Ŵ":{"ha":968,"x_min":38,"x_max":931,"o":"m 38 1125 l 249 1125 l 315 469 l 400 1124 l 565 1124 l 654 474 l 722 1125 l 931 1125 l 796 0 l 579 0 l 483 679 l 393 0 l 174 0 l 38 1125 m 390 1490 l 575 1490 l 711 1224 l 544 1224 l 483 1389 l 424 1224 l 258 1224 l 390 1490 z "},"Ẅ":{"ha":968,"x_min":38,"x_max":931,"o":"m 38 1125 l 249 1125 l 315 469 l 400 1124 l 565 1124 l 654 474 l 722 1125 l 931 1125 l 796 0 l 579 0 l 483 679 l 393 0 l 174 0 l 38 1125 m 243 1447 l 424 1447 l 424 1242 l 243 1242 l 243 1447 m 546 1447 l 726 1447 l 726 1242 l 546 1242 l 546 1447 z "},"Ẁ":{"ha":968,"x_min":38,"x_max":931,"o":"m 38 1125 l 249 1125 l 315 469 l 400 1124 l 565 1124 l 654 474 l 722 1125 l 931 1125 l 796 0 l 579 0 l 483 679 l 393 0 l 174 0 l 38 1125 m 242 1493 l 475 1493 l 560 1214 l 418 1214 l 242 1493 z "},"X":{"ha":715,"x_min":10,"x_max":707,"o":"m 228 606 l 19 1125 l 254 1125 l 378 821 l 478 1125 l 685 1125 l 488 540 l 707 0 l 474 0 l 336 336 l 215 0 l 10 0 l 228 606 z "},"Y":{"ha":685,"x_min":11,"x_max":674,"o":"m 225 460 l 11 1125 l 246 1125 l 353 769 l 449 1125 l 674 1125 l 464 460 l 464 0 l 225 0 l 225 460 z "},"Ý":{"ha":685,"x_min":11,"x_max":674,"o":"m 225 460 l 11 1125 l 246 1125 l 353 769 l 449 1125 l 674 1125 l 464 460 l 464 0 l 225 0 l 225 460 m 356 1493 l 586 1493 l 411 1214 l 268 1214 l 356 1493 z "},"Ŷ":{"ha":685,"x_min":11,"x_max":674,"o":"m 225 460 l 11 1125 l 246 1125 l 353 769 l 449 1125 l 674 1125 l 464 460 l 464 0 l 225 0 l 225 460 m 249 1490 l 433 1490 l 569 1224 l 403 1224 l 342 1389 l 282 1224 l 117 1224 l 249 1490 z "},"Ÿ":{"ha":685,"x_min":11,"x_max":674,"o":"m 225 460 l 11 1125 l 246 1125 l 353 769 l 449 1125 l 674 1125 l 464 460 l 464 0 l 225 0 l 225 460 m 101 1447 l 282 1447 l 282 1242 l 101 1242 l 101 1447 m 404 1447 l 585 1447 l 585 1242 l 404 1242 l 404 1447 z "},"Ỵ":{"ha":685,"x_min":11,"x_max":674,"o":"m 225 460 l 11 1125 l 246 1125 l 353 769 l 449 1125 l 674 1125 l 464 460 l 464 0 l 225 0 l 225 460 m 246 -97 l 440 -97 l 440 -289 l 246 -289 l 246 -97 z "},"Ỳ":{"ha":685,"x_min":11,"x_max":674,"o":"m 225 460 l 11 1125 l 246 1125 l 353 769 l 449 1125 l 674 1125 l 464 460 l 464 0 l 225 0 l 225 460 m 100 1493 l 333 1493 l 418 1214 l 276 1214 l 100 1493 z "},"Ỷ":{"ha":685,"x_min":11,"x_max":674,"o":"m 225 460 l 11 1125 l 246 1125 l 353 769 l 449 1125 l 674 1125 l 464 460 l 464 0 l 225 0 l 225 460 m 267 1265 q 344 1308 321 1292 q 367 1354 367 1325 q 288 1403 367 1403 q 201 1393 243 1403 l 201 1488 q 343 1506 268 1506 q 465 1472 417 1506 q 513 1368 513 1439 q 467 1261 513 1301 q 343 1193 422 1221 l 267 1265 z "},"Ȳ":{"ha":685,"x_min":11,"x_max":674,"o":"m 225 460 l 11 1125 l 246 1125 l 353 769 l 449 1125 l 674 1125 l 464 460 l 464 0 l 225 0 l 225 460 m 151 1354 l 535 1354 l 535 1247 l 151 1247 l 151 1354 z "},"Ỹ":{"ha":685,"x_min":11,"x_max":674,"o":"m 225 460 l 11 1125 l 246 1125 l 353 769 l 449 1125 l 674 1125 l 464 460 l 464 0 l 225 0 l 225 460 m 456 1250 q 408 1259 431 1250 q 358 1286 386 1268 q 316 1308 333 1300 q 282 1315 299 1315 q 232 1258 232 1315 l 124 1258 q 249 1456 121 1456 q 292 1448 272 1456 q 340 1424 311 1440 q 382 1402 364 1410 q 419 1394 400 1394 q 463 1447 463 1394 l 563 1447 q 542 1305 563 1360 q 456 1250 521 1250 z "},"Z":{"ha":601,"x_min":40,"x_max":563,"o":"m 40 150 l 315 957 l 53 957 l 53 1125 l 560 1125 l 560 985 l 281 168 l 563 168 l 563 0 l 40 0 l 40 150 z "},"Ź":{"ha":601,"x_min":40,"x_max":563,"o":"m 40 150 l 315 957 l 53 957 l 53 1125 l 560 1125 l 560 985 l 281 168 l 563 168 l 563 0 l 40 0 l 40 150 m 314 1493 l 544 1493 l 369 1214 l 226 1214 l 314 1493 z "},"Ž":{"ha":601,"x_min":40,"x_max":563,"o":"m 40 150 l 315 957 l 53 957 l 53 1125 l 560 1125 l 560 985 l 281 168 l 563 168 l 563 0 l 40 0 l 40 150 m 69 1469 l 231 1469 l 301 1317 l 372 1469 l 533 1469 l 411 1210 l 192 1210 l 69 1469 z "},"Ż":{"ha":601,"x_min":40,"x_max":563,"o":"m 40 150 l 315 957 l 53 957 l 53 1125 l 560 1125 l 560 985 l 281 168 l 563 168 l 563 0 l 40 0 l 40 150 m 194 1442 l 408 1442 l 408 1228 l 194 1228 l 194 1442 z "},"a":{"ha":661,"x_min":50,"x_max":611,"o":"m 236 -14 q 135 15 178 -14 q 72 88 93 43 q 50 182 50 133 q 92 327 50 269 q 192 416 135 385 q 336 481 249 447 l 381 497 l 381 578 q 370 631 381 613 q 333 649 360 649 q 296 632 307 649 q 283 585 285 615 l 278 526 l 67 535 l 68 561 q 149 755 78 693 q 354 817 221 817 q 535 751 472 817 q 597 575 597 685 l 597 200 q 611 0 597 97 l 408 0 q 390 114 396 93 q 335 22 374 58 q 236 -14 296 -14 m 317 139 q 351 151 335 139 q 381 179 368 163 l 381 399 q 290 322 325 371 q 254 226 254 272 q 272 163 254 186 q 317 139 290 139 z "},"á":{"ha":661,"x_min":50,"x_max":611,"o":"m 236 -14 q 135 15 178 -14 q 72 88 93 43 q 50 182 50 133 q 92 327 50 269 q 192 416 135 385 q 336 481 249 447 l 381 497 l 381 578 q 370 631 381 613 q 333 649 360 649 q 296 632 307 649 q 283 585 285 615 l 278 526 l 67 535 l 68 561 q 149 755 78 693 q 354 817 221 817 q 535 751 472 817 q 597 575 597 685 l 597 200 q 611 0 597 97 l 408 0 q 390 114 396 93 q 335 22 374 58 q 236 -14 296 -14 m 317 139 q 351 151 335 139 q 381 179 368 163 l 381 399 q 290 322 325 371 q 254 226 254 272 q 272 163 254 186 q 317 139 290 139 m 365 1171 l 596 1171 l 421 892 l 278 892 l 365 1171 z "},"ă":{"ha":661,"x_min":50,"x_max":611,"o":"m 236 -14 q 135 15 178 -14 q 72 88 93 43 q 50 182 50 133 q 92 327 50 269 q 192 416 135 385 q 336 481 249 447 l 381 497 l 381 578 q 370 631 381 613 q 333 649 360 649 q 296 632 307 649 q 283 585 285 615 l 278 526 l 67 535 l 68 561 q 149 755 78 693 q 354 817 221 817 q 535 751 472 817 q 597 575 597 685 l 597 200 q 611 0 597 97 l 408 0 q 390 114 396 93 q 335 22 374 58 q 236 -14 296 -14 m 317 139 q 351 151 335 139 q 381 179 368 163 l 381 399 q 290 322 325 371 q 254 226 254 272 q 272 163 254 186 q 317 139 290 139 m 353 893 q 194 949 253 893 q 135 1110 135 1006 l 263 1110 q 283 1033 263 1057 q 353 1008 304 1008 q 422 1033 400 1008 q 443 1110 443 1058 l 571 1110 q 512 950 571 1007 q 353 893 453 893 z "},"ắ":{"ha":661,"x_min":50,"x_max":611,"o":"m 236 -14 q 135 15 178 -14 q 72 88 93 43 q 50 182 50 133 q 92 327 50 269 q 192 416 135 385 q 336 481 249 447 l 381 497 l 381 578 q 370 631 381 613 q 333 649 360 649 q 296 632 307 649 q 283 585 285 615 l 278 526 l 67 535 l 68 561 q 149 755 78 693 q 354 817 221 817 q 535 751 472 817 q 597 575 597 685 l 597 200 q 611 0 597 97 l 408 0 q 390 114 396 93 q 335 22 374 58 q 236 -14 296 -14 m 317 139 q 351 151 335 139 q 381 179 368 163 l 381 399 q 290 322 325 371 q 254 226 254 272 q 272 163 254 186 q 317 139 290 139 m 358 1318 l 543 1318 l 390 1157 l 260 1157 l 358 1318 m 353 888 q 194 944 253 888 q 135 1104 135 1000 l 263 1104 q 283 1027 263 1051 q 353 1003 304 1003 q 422 1028 400 1003 q 443 1104 443 1053 l 571 1104 q 512 944 571 1001 q 353 888 453 888 z "},"ặ":{"ha":661,"x_min":50,"x_max":611,"o":"m 236 -14 q 135 15 178 -14 q 72 88 93 43 q 50 182 50 133 q 92 327 50 269 q 192 416 135 385 q 336 481 249 447 l 381 497 l 381 578 q 370 631 381 613 q 333 649 360 649 q 296 632 307 649 q 283 585 285 615 l 278 526 l 67 535 l 68 561 q 149 755 78 693 q 354 817 221 817 q 535 751 472 817 q 597 575 597 685 l 597 200 q 611 0 597 97 l 408 0 q 390 114 396 93 q 335 22 374 58 q 236 -14 296 -14 m 317 139 q 351 151 335 139 q 381 179 368 163 l 381 399 q 290 322 325 371 q 254 226 254 272 q 272 163 254 186 q 317 139 290 139 m 235 -97 l 429 -97 l 429 -289 l 235 -289 l 235 -97 m 353 893 q 194 949 253 893 q 135 1110 135 1006 l 263 1110 q 283 1033 263 1057 q 353 1008 304 1008 q 422 1033 400 1008 q 443 1110 443 1058 l 571 1110 q 512 950 571 1007 q 353 893 453 893 z "},"ằ":{"ha":661,"x_min":50,"x_max":611,"o":"m 236 -14 q 135 15 178 -14 q 72 88 93 43 q 50 182 50 133 q 92 327 50 269 q 192 416 135 385 q 336 481 249 447 l 381 497 l 381 578 q 370 631 381 613 q 333 649 360 649 q 296 632 307 649 q 283 585 285 615 l 278 526 l 67 535 l 68 561 q 149 755 78 693 q 354 817 221 817 q 535 751 472 817 q 597 575 597 685 l 597 200 q 611 0 597 97 l 408 0 q 390 114 396 93 q 335 22 374 58 q 236 -14 296 -14 m 317 139 q 351 151 335 139 q 381 179 368 163 l 381 399 q 290 322 325 371 q 254 226 254 272 q 272 163 254 186 q 317 139 290 139 m 163 1318 l 346 1318 l 444 1157 l 315 1157 l 163 1318 m 353 888 q 194 944 253 888 q 135 1104 135 1000 l 263 1104 q 283 1027 263 1051 q 353 1003 304 1003 q 422 1028 400 1003 q 443 1104 443 1053 l 571 1104 q 512 944 571 1001 q 353 888 453 888 z "},"ẳ":{"ha":661,"x_min":50,"x_max":611,"o":"m 236 -14 q 135 15 178 -14 q 72 88 93 43 q 50 182 50 133 q 92 327 50 269 q 192 416 135 385 q 336 481 249 447 l 381 497 l 381 578 q 370 631 381 613 q 333 649 360 649 q 296 632 307 649 q 283 585 285 615 l 278 526 l 67 535 l 68 561 q 149 755 78 693 q 354 817 221 817 q 535 751 472 817 q 597 575 597 685 l 597 200 q 611 0 597 97 l 408 0 q 390 114 396 93 q 335 22 374 58 q 236 -14 296 -14 m 317 139 q 351 151 335 139 q 381 179 368 163 l 381 399 q 290 322 325 371 q 254 226 254 272 q 272 163 254 186 q 317 139 290 139 m 307 1182 q 345 1222 332 1203 q 358 1265 358 1242 q 341 1306 358 1292 q 294 1321 324 1321 q 224 1307 263 1321 l 224 1401 q 339 1424 283 1424 q 455 1388 411 1424 q 499 1286 499 1353 q 464 1186 499 1226 q 371 1114 429 1146 l 307 1182 m 353 893 q 194 949 253 893 q 135 1110 135 1006 l 263 1110 q 283 1033 263 1057 q 353 1008 304 1008 q 422 1033 400 1008 q 443 1110 443 1058 l 571 1110 q 512 950 571 1007 q 353 893 453 893 z "},"ẵ":{"ha":661,"x_min":50,"x_max":611,"o":"m 236 -14 q 135 15 178 -14 q 72 88 93 43 q 50 182 50 133 q 92 327 50 269 q 192 416 135 385 q 336 481 249 447 l 381 497 l 381 578 q 370 631 381 613 q 333 649 360 649 q 296 632 307 649 q 283 585 285 615 l 278 526 l 67 535 l 68 561 q 149 755 78 693 q 354 817 221 817 q 535 751 472 817 q 597 575 597 685 l 597 200 q 611 0 597 97 l 408 0 q 390 114 396 93 q 335 22 374 58 q 236 -14 296 -14 m 317 139 q 351 151 335 139 q 381 179 368 163 l 381 399 q 290 322 325 371 q 254 226 254 272 q 272 163 254 186 q 317 139 290 139 m 353 893 q 194 949 253 893 q 135 1110 135 1006 l 263 1110 q 283 1033 263 1057 q 353 1008 304 1008 q 422 1033 400 1008 q 443 1110 443 1058 l 571 1110 q 512 950 571 1007 q 353 893 453 893 m 465 1185 q 418 1194 440 1185 q 368 1221 396 1203 q 326 1242 343 1235 q 292 1250 308 1250 q 242 1193 242 1250 l 133 1193 q 258 1390 131 1390 q 301 1383 282 1390 q 350 1358 321 1375 q 392 1337 374 1344 q 429 1329 410 1329 q 472 1382 472 1329 l 572 1382 q 551 1240 572 1294 q 465 1185 531 1185 z "},"â":{"ha":661,"x_min":50,"x_max":611,"o":"m 236 -14 q 135 15 178 -14 q 72 88 93 43 q 50 182 50 133 q 92 327 50 269 q 192 416 135 385 q 336 481 249 447 l 381 497 l 381 578 q 370 631 381 613 q 333 649 360 649 q 296 632 307 649 q 283 585 285 615 l 278 526 l 67 535 l 68 561 q 149 755 78 693 q 354 817 221 817 q 535 751 472 817 q 597 575 597 685 l 597 200 q 611 0 597 97 l 408 0 q 390 114 396 93 q 335 22 374 58 q 236 -14 296 -14 m 317 139 q 351 151 335 139 q 381 179 368 163 l 381 399 q 290 322 325 371 q 254 226 254 272 q 272 163 254 186 q 317 139 290 139 m 258 1168 l 443 1168 l 579 901 l 413 901 l 351 1067 l 292 901 l 126 901 l 258 1168 z "},"ấ":{"ha":661,"x_min":50,"x_max":782,"o":"m 236 -14 q 135 15 178 -14 q 72 88 93 43 q 50 182 50 133 q 92 327 50 269 q 192 416 135 385 q 336 481 249 447 l 381 497 l 381 578 q 370 631 381 613 q 333 649 360 649 q 296 632 307 649 q 283 585 285 615 l 278 526 l 67 535 l 68 561 q 149 755 78 693 q 354 817 221 817 q 535 751 472 817 q 597 575 597 685 l 597 200 q 611 0 597 97 l 408 0 q 390 114 396 93 q 335 22 374 58 q 236 -14 296 -14 m 317 139 q 351 151 335 139 q 381 179 368 163 l 381 399 q 290 322 325 371 q 254 226 254 272 q 272 163 254 186 q 317 139 290 139 m 614 1236 l 782 1236 l 660 1065 l 540 1065 l 614 1236 m 258 1133 l 443 1133 l 579 901 l 418 901 l 351 1040 l 286 901 l 126 901 l 258 1133 z "},"ậ":{"ha":661,"x_min":50,"x_max":611,"o":"m 236 -14 q 135 15 178 -14 q 72 88 93 43 q 50 182 50 133 q 92 327 50 269 q 192 416 135 385 q 336 481 249 447 l 381 497 l 381 578 q 370 631 381 613 q 333 649 360 649 q 296 632 307 649 q 283 585 285 615 l 278 526 l 67 535 l 68 561 q 149 755 78 693 q 354 817 221 817 q 535 751 472 817 q 597 575 597 685 l 597 200 q 611 0 597 97 l 408 0 q 390 114 396 93 q 335 22 374 58 q 236 -14 296 -14 m 317 139 q 351 151 335 139 q 381 179 368 163 l 381 399 q 290 322 325 371 q 254 226 254 272 q 272 163 254 186 q 317 139 290 139 m 235 -97 l 429 -97 l 429 -289 l 235 -289 l 235 -97 m 258 1133 l 443 1133 l 579 901 l 418 901 l 351 1040 l 286 901 l 126 901 l 258 1133 z "},"ầ":{"ha":661,"x_min":50,"x_max":701,"o":"m 236 -14 q 135 15 178 -14 q 72 88 93 43 q 50 182 50 133 q 92 327 50 269 q 192 416 135 385 q 336 481 249 447 l 381 497 l 381 578 q 370 631 381 613 q 333 649 360 649 q 296 632 307 649 q 283 585 285 615 l 278 526 l 67 535 l 68 561 q 149 755 78 693 q 354 817 221 817 q 535 751 472 817 q 597 575 597 685 l 597 200 q 611 0 597 97 l 408 0 q 390 114 396 93 q 335 22 374 58 q 236 -14 296 -14 m 317 139 q 351 151 335 139 q 381 179 368 163 l 381 399 q 290 322 325 371 q 254 226 254 272 q 272 163 254 186 q 317 139 290 139 m 458 1236 l 628 1236 l 701 1065 l 581 1065 l 458 1236 m 258 1133 l 443 1133 l 579 901 l 418 901 l 351 1040 l 286 901 l 126 901 l 258 1133 z "},"ẩ":{"ha":661,"x_min":50,"x_max":724,"o":"m 236 -14 q 135 15 178 -14 q 72 88 93 43 q 50 182 50 133 q 92 327 50 269 q 192 416 135 385 q 336 481 249 447 l 381 497 l 381 578 q 370 631 381 613 q 333 649 360 649 q 296 632 307 649 q 283 585 285 615 l 278 526 l 67 535 l 68 561 q 149 755 78 693 q 354 817 221 817 q 535 751 472 817 q 597 575 597 685 l 597 200 q 611 0 597 97 l 408 0 q 390 114 396 93 q 335 22 374 58 q 236 -14 296 -14 m 317 139 q 351 151 335 139 q 381 179 368 163 l 381 399 q 290 322 325 371 q 254 226 254 272 q 272 163 254 186 q 317 139 290 139 m 533 1097 q 572 1138 558 1118 q 585 1181 585 1157 q 567 1222 585 1207 q 521 1236 550 1236 q 450 1222 486 1236 l 450 1317 q 564 1339 508 1339 q 680 1303 636 1339 q 724 1201 724 1268 q 690 1101 724 1140 q 597 1029 657 1061 l 533 1097 m 258 1133 l 443 1133 l 579 901 l 418 901 l 351 1040 l 286 901 l 126 901 l 258 1133 z "},"ẫ":{"ha":661,"x_min":50,"x_max":611,"o":"m 236 -14 q 135 15 178 -14 q 72 88 93 43 q 50 182 50 133 q 92 327 50 269 q 192 416 135 385 q 336 481 249 447 l 381 497 l 381 578 q 370 631 381 613 q 333 649 360 649 q 296 632 307 649 q 283 585 285 615 l 278 526 l 67 535 l 68 561 q 149 755 78 693 q 354 817 221 817 q 535 751 472 817 q 597 575 597 685 l 597 200 q 611 0 597 97 l 408 0 q 390 114 396 93 q 335 22 374 58 q 236 -14 296 -14 m 317 139 q 351 151 335 139 q 381 179 368 163 l 381 399 q 290 322 325 371 q 254 226 254 272 q 272 163 254 186 q 317 139 290 139 m 258 1133 l 443 1133 l 579 901 l 418 901 l 351 1040 l 286 901 l 126 901 l 258 1133 m 465 1201 q 418 1210 440 1201 q 368 1238 396 1219 q 326 1259 343 1251 q 292 1267 308 1267 q 242 1210 242 1267 l 133 1210 q 258 1407 131 1407 q 301 1399 282 1407 q 350 1375 321 1392 q 392 1353 374 1361 q 429 1346 410 1346 q 472 1399 472 1346 l 572 1399 q 551 1256 572 1311 q 465 1201 531 1201 z "},"ȁ":{"ha":661,"x_min":43,"x_max":611,"o":"m 236 -14 q 135 15 178 -14 q 72 88 93 43 q 50 182 50 133 q 92 327 50 269 q 192 416 135 385 q 336 481 249 447 l 381 497 l 381 578 q 370 631 381 613 q 333 649 360 649 q 296 632 307 649 q 283 585 285 615 l 278 526 l 67 535 l 68 561 q 149 755 78 693 q 354 817 221 817 q 535 751 472 817 q 597 575 597 685 l 597 200 q 611 0 597 97 l 408 0 q 390 114 396 93 q 335 22 374 58 q 236 -14 296 -14 m 317 139 q 351 151 335 139 q 381 179 368 163 l 381 399 q 290 322 325 371 q 254 226 254 272 q 272 163 254 186 q 317 139 290 139 m 43 1174 l 215 1174 l 304 886 l 182 886 l 43 1174 m 297 1174 l 463 1174 l 544 886 l 425 886 l 297 1174 z "},"ä":{"ha":661,"x_min":50,"x_max":611,"o":"m 236 -14 q 135 15 178 -14 q 72 88 93 43 q 50 182 50 133 q 92 327 50 269 q 192 416 135 385 q 336 481 249 447 l 381 497 l 381 578 q 370 631 381 613 q 333 649 360 649 q 296 632 307 649 q 283 585 285 615 l 278 526 l 67 535 l 68 561 q 149 755 78 693 q 354 817 221 817 q 535 751 472 817 q 597 575 597 685 l 597 200 q 611 0 597 97 l 408 0 q 390 114 396 93 q 335 22 374 58 q 236 -14 296 -14 m 317 139 q 351 151 335 139 q 381 179 368 163 l 381 399 q 290 322 325 371 q 254 226 254 272 q 272 163 254 186 q 317 139 290 139 m 111 1125 l 292 1125 l 292 919 l 111 919 l 111 1125 m 414 1125 l 594 1125 l 594 919 l 414 919 l 414 1125 z "},"ạ":{"ha":661,"x_min":50,"x_max":611,"o":"m 236 -14 q 135 15 178 -14 q 72 88 93 43 q 50 182 50 133 q 92 327 50 269 q 192 416 135 385 q 336 481 249 447 l 381 497 l 381 578 q 370 631 381 613 q 333 649 360 649 q 296 632 307 649 q 283 585 285 615 l 278 526 l 67 535 l 68 561 q 149 755 78 693 q 354 817 221 817 q 535 751 472 817 q 597 575 597 685 l 597 200 q 611 0 597 97 l 408 0 q 390 114 396 93 q 335 22 374 58 q 236 -14 296 -14 m 317 139 q 351 151 335 139 q 381 179 368 163 l 381 399 q 290 322 325 371 q 254 226 254 272 q 272 163 254 186 q 317 139 290 139 m 235 -97 l 429 -97 l 429 -289 l 235 -289 l 235 -97 z "},"à":{"ha":661,"x_min":50,"x_max":611,"o":"m 236 -14 q 135 15 178 -14 q 72 88 93 43 q 50 182 50 133 q 92 327 50 269 q 192 416 135 385 q 336 481 249 447 l 381 497 l 381 578 q 370 631 381 613 q 333 649 360 649 q 296 632 307 649 q 283 585 285 615 l 278 526 l 67 535 l 68 561 q 149 755 78 693 q 354 817 221 817 q 535 751 472 817 q 597 575 597 685 l 597 200 q 611 0 597 97 l 408 0 q 390 114 396 93 q 335 22 374 58 q 236 -14 296 -14 m 317 139 q 351 151 335 139 q 381 179 368 163 l 381 399 q 290 322 325 371 q 254 226 254 272 q 272 163 254 186 q 317 139 290 139 m 110 1171 l 343 1171 l 428 892 l 286 892 l 110 1171 z "},"ả":{"ha":661,"x_min":50,"x_max":611,"o":"m 236 -14 q 135 15 178 -14 q 72 88 93 43 q 50 182 50 133 q 92 327 50 269 q 192 416 135 385 q 336 481 249 447 l 381 497 l 381 578 q 370 631 381 613 q 333 649 360 649 q 296 632 307 649 q 283 585 285 615 l 278 526 l 67 535 l 68 561 q 149 755 78 693 q 354 817 221 817 q 535 751 472 817 q 597 575 597 685 l 597 200 q 611 0 597 97 l 408 0 q 390 114 396 93 q 335 22 374 58 q 236 -14 296 -14 m 317 139 q 351 151 335 139 q 381 179 368 163 l 381 399 q 290 322 325 371 q 254 226 254 272 q 272 163 254 186 q 317 139 290 139 m 276 943 q 353 986 331 969 q 376 1032 376 1003 q 297 1081 376 1081 q 211 1071 253 1081 l 211 1165 q 353 1183 278 1183 q 474 1150 426 1183 q 522 1046 522 1117 q 477 939 522 979 q 353 871 432 899 l 276 943 z "},"ȃ":{"ha":661,"x_min":50,"x_max":611,"o":"m 236 -14 q 135 15 178 -14 q 72 88 93 43 q 50 182 50 133 q 92 327 50 269 q 192 416 135 385 q 336 481 249 447 l 381 497 l 381 578 q 370 631 381 613 q 333 649 360 649 q 296 632 307 649 q 283 585 285 615 l 278 526 l 67 535 l 68 561 q 149 755 78 693 q 354 817 221 817 q 535 751 472 817 q 597 575 597 685 l 597 200 q 611 0 597 97 l 408 0 q 390 114 396 93 q 335 22 374 58 q 236 -14 296 -14 m 317 139 q 351 151 335 139 q 381 179 368 163 l 381 399 q 290 322 325 371 q 254 226 254 272 q 272 163 254 186 q 317 139 290 139 m 135 901 q 192 1065 135 1007 q 353 1122 250 1122 q 513 1065 456 1122 q 571 901 571 1007 l 443 901 q 422 982 443 957 q 353 1007 401 1007 q 283 982 304 1007 q 263 901 263 957 l 135 901 z "},"ā":{"ha":661,"x_min":50,"x_max":611,"o":"m 236 -14 q 135 15 178 -14 q 72 88 93 43 q 50 182 50 133 q 92 327 50 269 q 192 416 135 385 q 336 481 249 447 l 381 497 l 381 578 q 370 631 381 613 q 333 649 360 649 q 296 632 307 649 q 283 585 285 615 l 278 526 l 67 535 l 68 561 q 149 755 78 693 q 354 817 221 817 q 535 751 472 817 q 597 575 597 685 l 597 200 q 611 0 597 97 l 408 0 q 390 114 396 93 q 335 22 374 58 q 236 -14 296 -14 m 317 139 q 351 151 335 139 q 381 179 368 163 l 381 399 q 290 322 325 371 q 254 226 254 272 q 272 163 254 186 q 317 139 290 139 m 161 1032 l 544 1032 l 544 925 l 161 925 l 161 1032 z "},"ą":{"ha":661,"x_min":50,"x_max":649,"o":"m 608 -250 q 649 -247 629 -250 l 626 -357 q 581 -361 610 -361 q 424 -330 488 -361 q 360 -211 360 -299 q 392 -99 360 -158 q 468 0 424 -40 l 408 0 q 390 114 396 93 q 335 22 374 58 q 236 -14 296 -14 q 135 15 178 -14 q 72 88 93 43 q 50 182 50 133 q 92 327 50 269 q 192 416 135 385 q 336 481 249 447 l 381 497 l 381 578 q 370 631 381 613 q 333 649 360 649 q 296 632 307 649 q 283 585 285 615 l 278 526 l 67 535 l 68 561 q 149 755 78 693 q 354 817 221 817 q 535 751 472 817 q 597 575 597 685 l 597 200 q 611 0 597 97 l 569 0 q 519 -168 519 -92 q 544 -231 519 -211 q 608 -250 569 -250 m 381 399 q 290 322 325 371 q 254 226 254 272 q 272 163 254 186 q 317 139 290 139 q 351 151 335 139 q 381 179 368 163 l 381 399 z "},"å":{"ha":661,"x_min":50,"x_max":611,"o":"m 236 -14 q 135 15 178 -14 q 72 88 93 43 q 50 182 50 133 q 92 327 50 269 q 192 416 135 385 q 336 481 249 447 l 381 497 l 381 578 q 370 631 381 613 q 333 649 360 649 q 296 632 307 649 q 283 585 285 615 l 278 526 l 67 535 l 68 561 q 149 755 78 693 q 354 817 221 817 q 535 751 472 817 q 597 575 597 685 l 597 200 q 611 0 597 97 l 408 0 q 390 114 396 93 q 335 22 374 58 q 236 -14 296 -14 m 317 139 q 351 151 335 139 q 381 179 368 163 l 381 399 q 290 322 325 371 q 254 226 254 272 q 272 163 254 186 q 317 139 290 139 m 351 864 q 236 903 282 864 q 190 1015 190 943 q 236 1128 190 1088 q 351 1168 282 1168 q 468 1128 421 1168 q 515 1015 515 1088 q 469 903 515 943 q 351 864 422 864 m 351 943 q 403 964 385 943 q 421 1015 421 985 q 403 1068 421 1047 q 351 1089 385 1089 q 301 1068 319 1089 q 283 1015 283 1047 q 301 964 283 985 q 351 943 319 943 z "},"ǻ":{"ha":661,"x_min":50,"x_max":611,"o":"m 236 -14 q 135 15 178 -14 q 72 88 93 43 q 50 182 50 133 q 92 327 50 269 q 192 416 135 385 q 336 481 249 447 l 381 497 l 381 578 q 370 631 381 613 q 333 649 360 649 q 296 632 307 649 q 283 585 285 615 l 278 526 l 67 535 l 68 561 q 149 755 78 693 q 354 817 221 817 q 535 751 472 817 q 597 575 597 685 l 597 200 q 611 0 597 97 l 408 0 q 390 114 396 93 q 335 22 374 58 q 236 -14 296 -14 m 317 139 q 351 151 335 139 q 381 179 368 163 l 381 399 q 290 322 325 371 q 254 226 254 272 q 272 163 254 186 q 317 139 290 139 m 351 864 q 236 903 282 864 q 190 1015 190 943 q 236 1128 190 1088 q 351 1168 282 1168 q 468 1128 421 1168 q 515 1015 515 1088 q 469 903 515 943 q 351 864 422 864 m 351 943 q 403 964 385 943 q 421 1015 421 985 q 403 1068 421 1047 q 351 1089 385 1089 q 301 1068 319 1089 q 283 1015 283 1047 q 301 964 283 985 q 351 943 319 943 m 365 1508 l 596 1508 l 421 1229 l 278 1229 l 365 1508 z "},"ã":{"ha":661,"x_min":50,"x_max":611,"o":"m 236 -14 q 135 15 178 -14 q 72 88 93 43 q 50 182 50 133 q 92 327 50 269 q 192 416 135 385 q 336 481 249 447 l 381 497 l 381 578 q 370 631 381 613 q 333 649 360 649 q 296 632 307 649 q 283 585 285 615 l 278 526 l 67 535 l 68 561 q 149 755 78 693 q 354 817 221 817 q 535 751 472 817 q 597 575 597 685 l 597 200 q 611 0 597 97 l 408 0 q 390 114 396 93 q 335 22 374 58 q 236 -14 296 -14 m 317 139 q 351 151 335 139 q 381 179 368 163 l 381 399 q 290 322 325 371 q 254 226 254 272 q 272 163 254 186 q 317 139 290 139 m 465 928 q 418 937 440 928 q 368 964 396 946 q 326 985 343 978 q 292 993 308 993 q 242 936 242 993 l 133 936 q 258 1133 131 1133 q 301 1126 282 1133 q 350 1101 321 1118 q 392 1080 374 1088 q 429 1072 410 1072 q 472 1125 472 1072 l 572 1125 q 551 983 572 1038 q 465 928 531 928 z "},"æ":{"ha":926,"x_min":40,"x_max":879,"o":"m 664 281 l 872 281 l 872 215 q 813 44 872 104 q 642 -17 754 -17 q 525 17 581 -17 q 457 107 469 50 q 374 16 431 49 q 253 -17 317 -17 q 99 40 158 -17 q 40 193 40 97 q 106 371 40 311 q 281 451 171 431 l 365 469 l 365 569 q 353 631 365 613 q 317 649 342 649 q 276 623 289 649 q 263 531 263 597 l 43 538 q 103 745 40 674 q 294 817 167 817 q 406 794 361 817 q 468 735 450 772 q 542 794 490 771 q 660 817 594 817 q 824 763 768 817 q 879 621 879 710 q 823 491 879 535 q 671 425 767 447 l 579 404 l 579 265 q 587 174 579 203 q 625 144 594 144 q 658 166 651 144 q 664 238 664 188 l 664 281 m 578 507 l 600 513 q 670 543 649 524 q 692 599 692 563 q 678 638 692 622 q 638 653 664 653 q 578 575 578 653 l 578 507 m 365 371 q 321 351 338 361 q 257 294 275 325 q 239 219 239 263 q 256 159 239 182 q 303 136 272 136 q 348 160 331 136 q 365 235 365 185 l 365 371 z "},"ǽ":{"ha":926,"x_min":40,"x_max":879,"o":"m 664 281 l 872 281 l 872 215 q 813 44 872 104 q 642 -17 754 -17 q 525 17 581 -17 q 457 107 469 50 q 374 16 431 49 q 253 -17 317 -17 q 99 40 158 -17 q 40 193 40 97 q 106 371 40 311 q 281 451 171 431 l 365 469 l 365 569 q 353 631 365 613 q 317 649 342 649 q 276 623 289 649 q 263 531 263 597 l 43 538 q 103 745 40 674 q 294 817 167 817 q 406 794 361 817 q 468 735 450 772 q 542 794 490 771 q 660 817 594 817 q 824 763 768 817 q 879 621 879 710 q 823 491 879 535 q 671 425 767 447 l 579 404 l 579 265 q 587 174 579 203 q 625 144 594 144 q 658 166 651 144 q 664 238 664 188 l 664 281 m 578 507 l 600 513 q 670 543 649 524 q 692 599 692 563 q 678 638 692 622 q 638 653 664 653 q 578 575 578 653 l 578 507 m 365 371 q 321 351 338 361 q 257 294 275 325 q 239 219 239 263 q 256 159 239 182 q 303 136 272 136 q 348 160 331 136 q 365 235 365 185 l 365 371 m 476 1171 l 707 1171 l 532 892 l 389 892 l 476 1171 z "},"b":{"ha":703,"x_min":71,"x_max":644,"o":"m 469 -14 q 297 61 383 -14 l 297 0 l 71 0 l 71 1125 l 297 1125 l 297 744 q 381 798 338 779 q 464 817 424 817 q 600 752 556 817 q 644 581 644 688 l 644 235 q 599 53 644 119 q 469 -14 553 -14 m 360 132 q 404 157 390 132 q 418 222 418 182 l 418 597 q 404 656 418 632 q 364 681 390 681 q 297 654 338 681 l 297 154 q 360 132 328 132 z "},"ḃ":{"ha":703,"x_min":71,"x_max":644,"o":"m 469 -14 q 297 61 383 -14 l 297 0 l 71 0 l 71 1125 l 297 1125 l 297 744 q 381 798 338 779 q 464 817 424 817 q 600 752 556 817 q 644 581 644 688 l 644 235 q 599 53 644 119 q 469 -14 553 -14 m 360 132 q 404 157 390 132 q 418 222 418 182 l 418 597 q 404 656 418 632 q 364 681 390 681 q 297 654 338 681 l 297 154 q 360 132 328 132 m 78 1442 l 292 1442 l 292 1228 l 78 1228 l 78 1442 z "},"c":{"ha":650,"x_min":54,"x_max":603,"o":"m 332 -14 q 128 57 201 -14 q 54 254 54 128 l 54 549 q 127 747 54 676 q 332 817 200 817 q 533 756 463 817 q 603 575 603 694 l 603 490 l 385 490 l 385 582 q 372 645 385 628 q 332 663 358 663 q 294 641 306 663 q 282 568 282 619 l 282 235 q 294 163 282 183 q 333 142 307 142 q 372 160 360 142 q 385 221 385 178 l 385 328 l 603 328 l 603 231 q 532 49 603 111 q 332 -14 461 -14 z "},"ć":{"ha":650,"x_min":54,"x_max":603,"o":"m 332 -14 q 128 57 201 -14 q 54 254 54 128 l 54 549 q 127 747 54 676 q 332 817 200 817 q 533 756 463 817 q 603 575 603 694 l 603 490 l 385 490 l 385 582 q 372 645 385 628 q 332 663 358 663 q 294 641 306 663 q 282 568 282 619 l 282 235 q 294 163 282 183 q 333 142 307 142 q 372 160 360 142 q 385 221 385 178 l 385 328 l 603 328 l 603 231 q 532 49 603 111 q 332 -14 461 -14 m 339 1171 l 569 1171 l 394 892 l 251 892 l 339 1171 z "},"č":{"ha":650,"x_min":54,"x_max":603,"o":"m 332 -14 q 128 57 201 -14 q 54 254 54 128 l 54 549 q 127 747 54 676 q 332 817 200 817 q 533 756 463 817 q 603 575 603 694 l 603 490 l 385 490 l 385 582 q 372 645 385 628 q 332 663 358 663 q 294 641 306 663 q 282 568 282 619 l 282 235 q 294 163 282 183 q 333 142 307 142 q 372 160 360 142 q 385 221 385 178 l 385 328 l 603 328 l 603 231 q 532 49 603 111 q 332 -14 461 -14 m 94 1147 l 256 1147 l 326 994 l 397 1147 l 558 1147 l 436 888 l 217 888 l 94 1147 z "},"ç":{"ha":650,"x_min":54,"x_max":603,"o":"m 385 490 l 385 582 q 372 645 385 628 q 332 663 358 663 q 294 641 306 663 q 282 568 282 619 l 282 235 q 294 163 282 183 q 333 142 307 142 q 372 160 360 142 q 385 221 385 178 l 385 328 l 603 328 l 603 231 q 542 58 603 119 q 368 -12 481 -4 l 368 -92 q 508 -128 457 -92 q 558 -236 558 -164 q 500 -348 558 -311 q 354 -385 442 -385 q 249 -368 299 -385 l 249 -271 q 328 -282 288 -282 q 414 -233 414 -282 q 376 -181 414 -199 q 286 -161 338 -164 l 286 -11 q 115 69 176 0 q 54 254 54 139 l 54 549 q 127 747 54 676 q 332 817 200 817 q 533 756 463 817 q 603 575 603 694 l 603 490 l 385 490 z "},"ĉ":{"ha":650,"x_min":54,"x_max":603,"o":"m 332 -14 q 128 57 201 -14 q 54 254 54 128 l 54 549 q 127 747 54 676 q 332 817 200 817 q 533 756 463 817 q 603 575 603 694 l 603 490 l 385 490 l 385 582 q 372 645 385 628 q 332 663 358 663 q 294 641 306 663 q 282 568 282 619 l 282 235 q 294 163 282 183 q 333 142 307 142 q 372 160 360 142 q 385 221 385 178 l 385 328 l 603 328 l 603 231 q 532 49 603 111 q 332 -14 461 -14 m 232 1168 l 417 1168 l 553 901 l 386 901 l 325 1067 l 265 901 l 100 901 l 232 1168 z "},"ċ":{"ha":650,"x_min":54,"x_max":603,"o":"m 332 -14 q 128 57 201 -14 q 54 254 54 128 l 54 549 q 127 747 54 676 q 332 817 200 817 q 533 756 463 817 q 603 575 603 694 l 603 490 l 385 490 l 385 582 q 372 645 385 628 q 332 663 358 663 q 294 641 306 663 q 282 568 282 619 l 282 235 q 294 163 282 183 q 333 142 307 142 q 372 160 360 142 q 385 221 385 178 l 385 328 l 603 328 l 603 231 q 532 49 603 111 q 332 -14 461 -14 m 219 1119 l 433 1119 l 433 906 l 219 906 l 219 1119 z "},"d":{"ha":699,"x_min":58,"x_max":629,"o":"m 242 -14 q 106 49 153 -14 q 58 233 58 113 l 58 565 q 106 749 58 681 q 244 817 154 817 q 403 753 329 817 l 403 1125 l 629 1125 l 629 0 l 403 0 l 403 63 q 242 -14 324 -14 m 343 131 q 403 151 369 131 l 403 658 q 344 676 369 676 q 301 652 315 676 q 286 589 286 628 l 286 219 q 300 155 286 179 q 343 131 314 131 z "},"ð":{"ha":722,"x_min":75,"x_max":663,"o":"m 361 -19 q 152 57 229 -19 q 75 293 75 133 l 75 528 q 108 676 75 613 q 197 774 140 740 q 319 808 253 808 q 425 783 378 808 q 415 876 424 835 q 392 935 406 917 l 271 871 l 246 928 l 356 986 q 297 1019 340 1007 q 189 1031 254 1031 l 199 1172 q 518 1078 431 1172 l 638 1143 l 663 1086 l 558 1029 q 624 865 597 961 q 651 615 651 768 l 651 299 q 573 52 651 124 q 361 -19 494 -19 m 360 131 q 412 158 397 131 q 426 240 426 185 q 425 646 426 513 q 399 658 410 654 q 374 663 389 663 q 325 639 342 663 q 302 561 308 615 q 296 401 296 507 l 296 329 q 300 210 296 250 q 317 151 304 171 q 360 131 331 131 z "},"ď":{"ha":889,"x_min":58,"x_max":913,"o":"m 242 -14 q 106 49 153 -14 q 58 233 58 113 l 58 565 q 106 749 58 681 q 244 817 154 817 q 403 753 329 817 l 403 1125 l 629 1125 l 629 0 l 403 0 l 403 63 q 242 -14 324 -14 m 343 131 q 403 151 369 131 l 403 658 q 344 676 369 676 q 301 652 315 676 q 286 589 286 628 l 286 219 q 300 155 286 179 q 343 131 314 131 m 719 790 q 818 913 818 815 l 699 913 l 699 1126 l 913 1126 l 913 940 q 733 718 913 733 l 719 790 z "},"đ":{"ha":694,"x_min":54,"x_max":690,"o":"m 238 -14 q 101 49 149 -14 q 54 233 54 113 l 54 565 q 102 749 54 681 q 240 817 150 817 q 396 753 322 817 l 396 946 l 210 946 l 210 1038 l 396 1038 l 396 1125 l 622 1125 l 622 1038 l 690 1038 l 690 946 l 622 946 l 622 0 l 396 0 l 396 63 q 238 -14 322 -14 m 339 131 q 396 151 365 131 l 396 658 q 340 676 363 676 q 297 652 311 676 q 282 589 282 628 l 282 219 q 296 155 282 179 q 339 131 310 131 z "},"ḋ":{"ha":699,"x_min":58,"x_max":629,"o":"m 242 -14 q 106 49 153 -14 q 58 233 58 113 l 58 565 q 106 749 58 681 q 244 817 154 817 q 403 753 329 817 l 403 1125 l 629 1125 l 629 0 l 403 0 l 403 63 q 242 -14 324 -14 m 343 131 q 403 151 369 131 l 403 658 q 344 676 369 676 q 301 652 315 676 q 286 589 286 628 l 286 219 q 300 155 286 179 q 343 131 314 131 m 408 1442 l 622 1442 l 622 1228 l 408 1228 l 408 1442 z "},"ǳ":{"ha":1243,"x_min":58,"x_max":1207,"o":"m 242 -14 q 106 49 153 -14 q 58 233 58 113 l 58 565 q 106 749 58 681 q 244 817 154 817 q 403 753 329 817 l 403 1125 l 629 1125 l 629 0 l 403 0 l 403 63 q 242 -14 324 -14 m 343 131 q 403 151 369 131 l 403 658 q 344 676 369 676 q 301 652 315 676 q 286 589 286 628 l 286 219 q 300 155 286 179 q 343 131 314 131 m 747 146 l 968 638 l 764 638 l 764 803 l 1204 803 l 1204 665 l 981 165 l 1207 165 l 1207 0 l 747 0 l 747 146 z "},"ǆ":{"ha":1243,"x_min":58,"x_max":1207,"o":"m 242 -14 q 106 49 153 -14 q 58 233 58 113 l 58 565 q 106 749 58 681 q 244 817 154 817 q 403 753 329 817 l 403 1125 l 629 1125 l 629 0 l 403 0 l 403 63 q 242 -14 324 -14 m 343 131 q 403 151 369 131 l 403 658 q 344 676 369 676 q 301 652 315 676 q 286 589 286 628 l 286 219 q 300 155 286 179 q 343 131 314 131 m 747 146 l 968 638 l 764 638 l 764 803 l 1204 803 l 1204 665 l 981 165 l 1207 165 l 1207 0 l 747 0 l 747 146 m 739 1147 l 900 1147 l 971 994 l 1042 1147 l 1203 1147 l 1081 888 l 861 888 l 739 1147 z "},"e":{"ha":653,"x_min":54,"x_max":600,"o":"m 333 -14 q 128 56 201 -14 q 54 254 54 126 l 54 549 q 128 747 54 676 q 333 817 201 817 q 533 749 467 817 q 600 549 600 681 l 600 388 l 278 388 l 278 246 q 332 147 278 147 q 392 225 392 147 l 392 310 l 600 310 l 600 232 q 530 49 600 111 q 333 -14 460 -14 m 392 493 l 392 574 q 376 637 392 618 q 332 656 360 656 q 292 635 306 656 q 278 561 278 614 l 278 493 l 392 493 z "},"é":{"ha":653,"x_min":54,"x_max":600,"o":"m 333 -14 q 128 56 201 -14 q 54 254 54 126 l 54 549 q 128 747 54 676 q 333 817 201 817 q 533 749 467 817 q 600 549 600 681 l 600 388 l 278 388 l 278 246 q 332 147 278 147 q 392 225 392 147 l 392 310 l 600 310 l 600 232 q 530 49 600 111 q 333 -14 460 -14 m 392 493 l 392 574 q 376 637 392 618 q 332 656 360 656 q 292 635 306 656 q 278 561 278 614 l 278 493 l 392 493 m 343 1171 l 574 1171 l 399 892 l 256 892 l 343 1171 z "},"ĕ":{"ha":653,"x_min":54,"x_max":600,"o":"m 333 -14 q 128 56 201 -14 q 54 254 54 126 l 54 549 q 128 747 54 676 q 333 817 201 817 q 533 749 467 817 q 600 549 600 681 l 600 388 l 278 388 l 278 246 q 332 147 278 147 q 392 225 392 147 l 392 310 l 600 310 l 600 232 q 530 49 600 111 q 333 -14 460 -14 m 392 493 l 392 574 q 376 637 392 618 q 332 656 360 656 q 292 635 306 656 q 278 561 278 614 l 278 493 l 392 493 m 331 893 q 172 949 231 893 q 113 1110 113 1006 l 240 1110 q 261 1033 240 1057 q 331 1008 282 1008 q 399 1033 378 1008 q 421 1110 421 1058 l 549 1110 q 490 950 549 1007 q 331 893 431 893 z "},"ě":{"ha":653,"x_min":54,"x_max":600,"o":"m 333 -14 q 128 56 201 -14 q 54 254 54 126 l 54 549 q 128 747 54 676 q 333 817 201 817 q 533 749 467 817 q 600 549 600 681 l 600 388 l 278 388 l 278 246 q 332 147 278 147 q 392 225 392 147 l 392 310 l 600 310 l 600 232 q 530 49 600 111 q 333 -14 460 -14 m 392 493 l 392 574 q 376 637 392 618 q 332 656 360 656 q 292 635 306 656 q 278 561 278 614 l 278 493 l 392 493 m 99 1147 l 260 1147 l 331 994 l 401 1147 l 563 1147 l 440 888 l 221 888 l 99 1147 z "},"ê":{"ha":653,"x_min":54,"x_max":600,"o":"m 333 -14 q 128 56 201 -14 q 54 254 54 126 l 54 549 q 128 747 54 676 q 333 817 201 817 q 533 749 467 817 q 600 549 600 681 l 600 388 l 278 388 l 278 246 q 332 147 278 147 q 392 225 392 147 l 392 310 l 600 310 l 600 232 q 530 49 600 111 q 333 -14 460 -14 m 392 493 l 392 574 q 376 637 392 618 q 332 656 360 656 q 292 635 306 656 q 278 561 278 614 l 278 493 l 392 493 m 236 1168 l 421 1168 l 557 901 l 390 901 l 329 1067 l 269 901 l 104 901 l 236 1168 z "},"ế":{"ha":653,"x_min":54,"x_max":760,"o":"m 333 -14 q 128 56 201 -14 q 54 254 54 126 l 54 549 q 128 747 54 676 q 333 817 201 817 q 533 749 467 817 q 600 549 600 681 l 600 388 l 278 388 l 278 246 q 332 147 278 147 q 392 225 392 147 l 392 310 l 600 310 l 600 232 q 530 49 600 111 q 333 -14 460 -14 m 392 493 l 392 574 q 376 637 392 618 q 332 656 360 656 q 292 635 306 656 q 278 561 278 614 l 278 493 l 392 493 m 592 1236 l 760 1236 l 638 1065 l 518 1065 l 592 1236 m 236 1133 l 421 1133 l 557 901 l 396 901 l 329 1040 l 264 901 l 104 901 l 236 1133 z "},"ệ":{"ha":653,"x_min":54,"x_max":600,"o":"m 333 -14 q 128 56 201 -14 q 54 254 54 126 l 54 549 q 128 747 54 676 q 333 817 201 817 q 533 749 467 817 q 600 549 600 681 l 600 388 l 278 388 l 278 246 q 332 147 278 147 q 392 225 392 147 l 392 310 l 600 310 l 600 232 q 530 49 600 111 q 333 -14 460 -14 m 392 493 l 392 574 q 376 637 392 618 q 332 656 360 656 q 292 635 306 656 q 278 561 278 614 l 278 493 l 392 493 m 229 -97 l 424 -97 l 424 -289 l 229 -289 l 229 -97 m 236 1133 l 421 1133 l 557 901 l 396 901 l 329 1040 l 264 901 l 104 901 l 236 1133 z "},"ề":{"ha":653,"x_min":54,"x_max":679,"o":"m 333 -14 q 128 56 201 -14 q 54 254 54 126 l 54 549 q 128 747 54 676 q 333 817 201 817 q 533 749 467 817 q 600 549 600 681 l 600 388 l 278 388 l 278 246 q 332 147 278 147 q 392 225 392 147 l 392 310 l 600 310 l 600 232 q 530 49 600 111 q 333 -14 460 -14 m 392 493 l 392 574 q 376 637 392 618 q 332 656 360 656 q 292 635 306 656 q 278 561 278 614 l 278 493 l 392 493 m 436 1236 l 606 1236 l 679 1065 l 558 1065 l 436 1236 m 236 1133 l 421 1133 l 557 901 l 396 901 l 329 1040 l 264 901 l 104 901 l 236 1133 z "},"ể":{"ha":653,"x_min":54,"x_max":701,"o":"m 333 -14 q 128 56 201 -14 q 54 254 54 126 l 54 549 q 128 747 54 676 q 333 817 201 817 q 533 749 467 817 q 600 549 600 681 l 600 388 l 278 388 l 278 246 q 332 147 278 147 q 392 225 392 147 l 392 310 l 600 310 l 600 232 q 530 49 600 111 q 333 -14 460 -14 m 392 493 l 392 574 q 376 637 392 618 q 332 656 360 656 q 292 635 306 656 q 278 561 278 614 l 278 493 l 392 493 m 511 1097 q 549 1138 536 1118 q 563 1181 563 1157 q 545 1222 563 1207 q 499 1236 528 1236 q 428 1222 464 1236 l 428 1317 q 542 1339 486 1339 q 658 1303 614 1339 q 701 1201 701 1268 q 668 1101 701 1140 q 575 1029 635 1061 l 511 1097 m 236 1133 l 421 1133 l 557 901 l 396 901 l 329 1040 l 264 901 l 104 901 l 236 1133 z "},"ễ":{"ha":653,"x_min":54,"x_max":600,"o":"m 333 -14 q 128 56 201 -14 q 54 254 54 126 l 54 549 q 128 747 54 676 q 333 817 201 817 q 533 749 467 817 q 600 549 600 681 l 600 388 l 278 388 l 278 246 q 332 147 278 147 q 392 225 392 147 l 392 310 l 600 310 l 600 232 q 530 49 600 111 q 333 -14 460 -14 m 392 493 l 392 574 q 376 637 392 618 q 332 656 360 656 q 292 635 306 656 q 278 561 278 614 l 278 493 l 392 493 m 236 1133 l 421 1133 l 557 901 l 396 901 l 329 1040 l 264 901 l 104 901 l 236 1133 m 443 1201 q 396 1210 418 1201 q 346 1238 374 1219 q 303 1259 321 1251 q 269 1267 286 1267 q 219 1210 219 1267 l 111 1210 q 236 1407 108 1407 q 279 1399 260 1407 q 328 1375 299 1392 q 369 1353 351 1361 q 407 1346 388 1346 q 450 1399 450 1346 l 550 1399 q 529 1256 550 1311 q 443 1201 508 1201 z "},"ȅ":{"ha":653,"x_min":21,"x_max":600,"o":"m 333 -14 q 128 56 201 -14 q 54 254 54 126 l 54 549 q 128 747 54 676 q 333 817 201 817 q 533 749 467 817 q 600 549 600 681 l 600 388 l 278 388 l 278 246 q 332 147 278 147 q 392 225 392 147 l 392 310 l 600 310 l 600 232 q 530 49 600 111 q 333 -14 460 -14 m 392 493 l 392 574 q 376 637 392 618 q 332 656 360 656 q 292 635 306 656 q 278 561 278 614 l 278 493 l 392 493 m 21 1174 l 193 1174 l 282 886 l 160 886 l 21 1174 m 275 1174 l 440 1174 l 522 886 l 403 886 l 275 1174 z "},"ë":{"ha":653,"x_min":54,"x_max":600,"o":"m 333 -14 q 128 56 201 -14 q 54 254 54 126 l 54 549 q 128 747 54 676 q 333 817 201 817 q 533 749 467 817 q 600 549 600 681 l 600 388 l 278 388 l 278 246 q 332 147 278 147 q 392 225 392 147 l 392 310 l 600 310 l 600 232 q 530 49 600 111 q 333 -14 460 -14 m 392 493 l 392 574 q 376 637 392 618 q 332 656 360 656 q 292 635 306 656 q 278 561 278 614 l 278 493 l 392 493 m 89 1125 l 269 1125 l 269 919 l 89 919 l 89 1125 m 392 1125 l 572 1125 l 572 919 l 392 919 l 392 1125 z "},"ė":{"ha":653,"x_min":54,"x_max":600,"o":"m 333 -14 q 128 56 201 -14 q 54 254 54 126 l 54 549 q 128 747 54 676 q 333 817 201 817 q 533 749 467 817 q 600 549 600 681 l 600 388 l 278 388 l 278 246 q 332 147 278 147 q 392 225 392 147 l 392 310 l 600 310 l 600 232 q 530 49 600 111 q 333 -14 460 -14 m 392 493 l 392 574 q 376 637 392 618 q 332 656 360 656 q 292 635 306 656 q 278 561 278 614 l 278 493 l 392 493 m 224 1119 l 438 1119 l 438 906 l 224 906 l 224 1119 z "},"ẹ":{"ha":653,"x_min":54,"x_max":600,"o":"m 333 -14 q 128 56 201 -14 q 54 254 54 126 l 54 549 q 128 747 54 676 q 333 817 201 817 q 533 749 467 817 q 600 549 600 681 l 600 388 l 278 388 l 278 246 q 332 147 278 147 q 392 225 392 147 l 392 310 l 600 310 l 600 232 q 530 49 600 111 q 333 -14 460 -14 m 392 493 l 392 574 q 376 637 392 618 q 332 656 360 656 q 292 635 306 656 q 278 561 278 614 l 278 493 l 392 493 m 229 -97 l 424 -97 l 424 -289 l 229 -289 l 229 -97 z "},"è":{"ha":653,"x_min":54,"x_max":600,"o":"m 333 -14 q 128 56 201 -14 q 54 254 54 126 l 54 549 q 128 747 54 676 q 333 817 201 817 q 533 749 467 817 q 600 549 600 681 l 600 388 l 278 388 l 278 246 q 332 147 278 147 q 392 225 392 147 l 392 310 l 600 310 l 600 232 q 530 49 600 111 q 333 -14 460 -14 m 392 493 l 392 574 q 376 637 392 618 q 332 656 360 656 q 292 635 306 656 q 278 561 278 614 l 278 493 l 392 493 m 88 1171 l 321 1171 l 406 892 l 264 892 l 88 1171 z "},"ẻ":{"ha":653,"x_min":54,"x_max":600,"o":"m 333 -14 q 128 56 201 -14 q 54 254 54 126 l 54 549 q 128 747 54 676 q 333 817 201 817 q 533 749 467 817 q 600 549 600 681 l 600 388 l 278 388 l 278 246 q 332 147 278 147 q 392 225 392 147 l 392 310 l 600 310 l 600 232 q 530 49 600 111 q 333 -14 460 -14 m 392 493 l 392 574 q 376 637 392 618 q 332 656 360 656 q 292 635 306 656 q 278 561 278 614 l 278 493 l 392 493 m 254 943 q 331 986 308 969 q 354 1032 354 1003 q 275 1081 354 1081 q 189 1071 231 1081 l 189 1165 q 331 1183 256 1183 q 452 1150 404 1183 q 500 1046 500 1117 q 455 939 500 979 q 331 871 410 899 l 254 943 z "},"ȇ":{"ha":653,"x_min":54,"x_max":600,"o":"m 333 -14 q 128 56 201 -14 q 54 254 54 126 l 54 549 q 128 747 54 676 q 333 817 201 817 q 533 749 467 817 q 600 549 600 681 l 600 388 l 278 388 l 278 246 q 332 147 278 147 q 392 225 392 147 l 392 310 l 600 310 l 600 232 q 530 49 600 111 q 333 -14 460 -14 m 392 493 l 392 574 q 376 637 392 618 q 332 656 360 656 q 292 635 306 656 q 278 561 278 614 l 278 493 l 392 493 m 113 901 q 170 1065 113 1007 q 331 1122 228 1122 q 491 1065 433 1122 q 549 901 549 1007 l 421 901 q 400 982 421 957 q 331 1007 379 1007 q 261 982 282 1007 q 240 901 240 957 l 113 901 z "},"ē":{"ha":653,"x_min":54,"x_max":600,"o":"m 333 -14 q 128 56 201 -14 q 54 254 54 126 l 54 549 q 128 747 54 676 q 333 817 201 817 q 533 749 467 817 q 600 549 600 681 l 600 388 l 278 388 l 278 246 q 332 147 278 147 q 392 225 392 147 l 392 310 l 600 310 l 600 232 q 530 49 600 111 q 333 -14 460 -14 m 392 493 l 392 574 q 376 637 392 618 q 332 656 360 656 q 292 635 306 656 q 278 561 278 614 l 278 493 l 392 493 m 139 1032 l 522 1032 l 522 925 l 139 925 l 139 1032 z "},"ę":{"ha":653,"x_min":54,"x_max":600,"o":"m 278 388 l 278 246 q 332 147 278 147 q 392 225 392 147 l 392 310 l 600 310 l 600 232 q 552 73 600 133 q 417 -6 504 13 q 376 -154 376 -89 q 401 -217 376 -197 q 465 -236 426 -236 q 506 -233 486 -236 l 483 -343 q 438 -347 467 -347 q 281 -316 344 -347 q 217 -197 217 -285 q 240 -103 217 -153 q 299 -12 263 -54 q 118 66 182 -3 q 54 254 54 135 l 54 549 q 128 747 54 676 q 333 817 201 817 q 533 749 467 817 q 600 549 600 681 l 600 388 l 278 388 m 278 493 l 392 493 l 392 574 q 376 637 392 618 q 332 656 360 656 q 292 635 306 656 q 278 561 278 614 l 278 493 z "},"ẽ":{"ha":653,"x_min":54,"x_max":600,"o":"m 333 -14 q 128 56 201 -14 q 54 254 54 126 l 54 549 q 128 747 54 676 q 333 817 201 817 q 533 749 467 817 q 600 549 600 681 l 600 388 l 278 388 l 278 246 q 332 147 278 147 q 392 225 392 147 l 392 310 l 600 310 l 600 232 q 530 49 600 111 q 333 -14 460 -14 m 392 493 l 392 574 q 376 637 392 618 q 332 656 360 656 q 292 635 306 656 q 278 561 278 614 l 278 493 l 392 493 m 443 928 q 396 937 418 928 q 346 964 374 946 q 303 985 321 978 q 269 993 286 993 q 219 936 219 993 l 111 936 q 236 1133 108 1133 q 279 1126 260 1133 q 328 1101 299 1118 q 369 1080 351 1088 q 407 1072 388 1072 q 450 1125 450 1072 l 550 1125 q 529 983 550 1038 q 443 928 508 928 z "},"ə":{"ha":653,"x_min":53,"x_max":599,"o":"m 319 -17 q 119 51 186 -17 q 53 251 53 119 l 53 413 l 374 413 l 374 558 q 361 631 374 607 q 319 656 349 656 q 261 578 261 656 l 261 493 l 53 493 l 53 572 q 123 754 53 692 q 319 817 193 817 q 524 747 450 817 q 599 549 599 676 l 599 253 q 525 53 599 124 q 319 -17 451 -17 m 319 144 q 360 166 347 144 q 374 239 374 188 l 374 307 l 261 307 l 261 228 q 276 163 261 182 q 319 144 292 144 z "},"f":{"ha":444,"x_min":24,"x_max":428,"o":"m 100 650 l 24 650 l 24 803 l 100 803 l 100 863 q 115 992 100 943 q 178 1069 131 1042 q 319 1097 226 1097 q 428 1090 375 1097 l 428 922 q 379 929 397 929 q 326 867 326 929 l 326 803 l 428 803 l 428 650 l 326 650 l 326 0 l 100 0 l 100 650 z "},"ḟ":{"ha":444,"x_min":24,"x_max":428,"o":"m 100 650 l 24 650 l 24 803 l 100 803 l 100 863 q 115 992 100 943 q 178 1069 131 1042 q 319 1097 226 1097 q 428 1090 375 1097 l 428 922 q 379 929 397 929 q 326 867 326 929 l 326 803 l 428 803 l 428 650 l 326 650 l 326 0 l 100 0 l 100 650 m 165 1407 l 379 1407 l 379 1193 l 165 1193 l 165 1407 z "},"g":{"ha":696,"x_min":35,"x_max":715,"o":"m 374 -242 q 135 -212 235 -242 q 35 -87 35 -182 q 67 -3 35 -42 q 150 72 100 36 q 69 119 92 94 q 47 182 47 144 q 73 252 47 219 q 147 322 99 285 q 81 401 104 354 q 58 521 58 449 q 132 743 58 669 q 340 817 206 817 q 449 799 401 817 q 524 747 497 781 q 633 838 578 807 l 663 851 l 715 743 q 650 716 693 736 q 581 679 607 696 q 610 615 597 656 q 622 522 622 575 q 556 321 622 393 q 357 249 490 249 q 226 272 285 249 q 200 215 196 238 q 219 197 201 204 q 275 185 238 190 l 450 161 q 615 99 568 144 q 663 -32 663 54 q 596 -186 663 -131 q 374 -242 529 -242 m 344 383 q 396 417 383 383 q 408 532 408 450 q 404 621 408 590 q 387 667 400 651 q 344 682 374 682 q 293 649 303 682 q 283 532 283 617 q 295 418 283 453 q 344 383 307 383 m 372 -101 q 460 -87 435 -101 q 486 -37 486 -72 q 466 5 486 -8 q 399 24 446 18 l 281 39 q 246 -42 246 -6 q 274 -87 246 -72 q 372 -101 303 -101 z "},"ǵ":{"ha":696,"x_min":35,"x_max":715,"o":"m 374 -242 q 135 -212 235 -242 q 35 -87 35 -182 q 67 -3 35 -42 q 150 72 100 36 q 69 119 92 94 q 47 182 47 144 q 73 252 47 219 q 147 322 99 285 q 81 401 104 354 q 58 521 58 449 q 132 743 58 669 q 340 817 206 817 q 449 799 401 817 q 524 747 497 781 q 633 838 578 807 l 663 851 l 715 743 q 650 716 693 736 q 581 679 607 696 q 610 615 597 656 q 622 522 622 575 q 556 321 622 393 q 357 249 490 249 q 226 272 285 249 q 200 215 196 238 q 219 197 201 204 q 275 185 238 190 l 450 161 q 615 99 568 144 q 663 -32 663 54 q 596 -186 663 -131 q 374 -242 529 -242 m 344 383 q 396 417 383 383 q 408 532 408 450 q 404 621 408 590 q 387 667 400 651 q 344 682 374 682 q 293 649 303 682 q 283 532 283 617 q 295 418 283 453 q 344 383 307 383 m 372 -101 q 460 -87 435 -101 q 486 -37 486 -72 q 466 5 486 -8 q 399 24 446 18 l 281 39 q 246 -42 246 -6 q 274 -87 246 -72 q 372 -101 303 -101 m 361 1171 l 592 1171 l 417 892 l 274 892 l 361 1171 z "},"ğ":{"ha":696,"x_min":35,"x_max":715,"o":"m 374 -242 q 135 -212 235 -242 q 35 -87 35 -182 q 67 -3 35 -42 q 150 72 100 36 q 69 119 92 94 q 47 182 47 144 q 73 252 47 219 q 147 322 99 285 q 81 401 104 354 q 58 521 58 449 q 132 743 58 669 q 340 817 206 817 q 449 799 401 817 q 524 747 497 781 q 633 838 578 807 l 663 851 l 715 743 q 650 716 693 736 q 581 679 607 696 q 610 615 597 656 q 622 522 622 575 q 556 321 622 393 q 357 249 490 249 q 226 272 285 249 q 200 215 196 238 q 219 197 201 204 q 275 185 238 190 l 450 161 q 615 99 568 144 q 663 -32 663 54 q 596 -186 663 -131 q 374 -242 529 -242 m 344 383 q 396 417 383 383 q 408 532 408 450 q 404 621 408 590 q 387 667 400 651 q 344 682 374 682 q 293 649 303 682 q 283 532 283 617 q 295 418 283 453 q 344 383 307 383 m 372 -101 q 460 -87 435 -101 q 486 -37 486 -72 q 466 5 486 -8 q 399 24 446 18 l 281 39 q 246 -42 246 -6 q 274 -87 246 -72 q 372 -101 303 -101 m 349 893 q 190 949 249 893 q 131 1110 131 1006 l 258 1110 q 279 1033 258 1057 q 349 1008 300 1008 q 417 1033 396 1008 q 439 1110 439 1058 l 567 1110 q 508 950 567 1007 q 349 893 449 893 z "},"ǧ":{"ha":696,"x_min":35,"x_max":715,"o":"m 374 -242 q 135 -212 235 -242 q 35 -87 35 -182 q 67 -3 35 -42 q 150 72 100 36 q 69 119 92 94 q 47 182 47 144 q 73 252 47 219 q 147 322 99 285 q 81 401 104 354 q 58 521 58 449 q 132 743 58 669 q 340 817 206 817 q 449 799 401 817 q 524 747 497 781 q 633 838 578 807 l 663 851 l 715 743 q 650 716 693 736 q 581 679 607 696 q 610 615 597 656 q 622 522 622 575 q 556 321 622 393 q 357 249 490 249 q 226 272 285 249 q 200 215 196 238 q 219 197 201 204 q 275 185 238 190 l 450 161 q 615 99 568 144 q 663 -32 663 54 q 596 -186 663 -131 q 374 -242 529 -242 m 344 383 q 396 417 383 383 q 408 532 408 450 q 404 621 408 590 q 387 667 400 651 q 344 682 374 682 q 293 649 303 682 q 283 532 283 617 q 295 418 283 453 q 344 383 307 383 m 372 -101 q 460 -87 435 -101 q 486 -37 486 -72 q 466 5 486 -8 q 399 24 446 18 l 281 39 q 246 -42 246 -6 q 274 -87 246 -72 q 372 -101 303 -101 m 117 1147 l 278 1147 l 349 994 l 419 1147 l 581 1147 l 458 888 l 239 888 l 117 1147 z "},"ĝ":{"ha":696,"x_min":35,"x_max":715,"o":"m 374 -242 q 135 -212 235 -242 q 35 -87 35 -182 q 67 -3 35 -42 q 150 72 100 36 q 69 119 92 94 q 47 182 47 144 q 73 252 47 219 q 147 322 99 285 q 81 401 104 354 q 58 521 58 449 q 132 743 58 669 q 340 817 206 817 q 449 799 401 817 q 524 747 497 781 q 633 838 578 807 l 663 851 l 715 743 q 650 716 693 736 q 581 679 607 696 q 610 615 597 656 q 622 522 622 575 q 556 321 622 393 q 357 249 490 249 q 226 272 285 249 q 200 215 196 238 q 219 197 201 204 q 275 185 238 190 l 450 161 q 615 99 568 144 q 663 -32 663 54 q 596 -186 663 -131 q 374 -242 529 -242 m 344 383 q 396 417 383 383 q 408 532 408 450 q 404 621 408 590 q 387 667 400 651 q 344 682 374 682 q 293 649 303 682 q 283 532 283 617 q 295 418 283 453 q 344 383 307 383 m 372 -101 q 460 -87 435 -101 q 486 -37 486 -72 q 466 5 486 -8 q 399 24 446 18 l 281 39 q 246 -42 246 -6 q 274 -87 246 -72 q 372 -101 303 -101 m 254 1168 l 439 1168 l 575 901 l 408 901 l 347 1067 l 288 901 l 122 901 l 254 1168 z "},"ģ":{"ha":696,"x_min":35,"x_max":715,"o":"m 374 -242 q 135 -212 235 -242 q 35 -87 35 -182 q 67 -3 35 -42 q 150 72 100 36 q 69 119 92 94 q 47 182 47 144 q 73 252 47 219 q 147 322 99 285 q 81 401 104 354 q 58 521 58 449 q 132 743 58 669 q 340 817 206 817 q 449 799 401 817 q 524 747 497 781 q 633 838 578 807 l 663 851 l 715 743 q 650 716 693 736 q 581 679 607 696 q 610 615 597 656 q 622 522 622 575 q 556 321 622 393 q 357 249 490 249 q 226 272 285 249 q 200 215 196 238 q 219 197 201 204 q 275 185 238 190 l 450 161 q 615 99 568 144 q 663 -32 663 54 q 596 -186 663 -131 q 374 -242 529 -242 m 344 383 q 396 417 383 383 q 408 532 408 450 q 404 621 408 590 q 387 667 400 651 q 344 682 374 682 q 293 649 303 682 q 283 532 283 617 q 295 418 283 453 q 344 383 307 383 m 372 -101 q 460 -87 435 -101 q 486 -37 486 -72 q 466 5 486 -8 q 399 24 446 18 l 281 39 q 246 -42 246 -6 q 274 -87 246 -72 q 372 -101 303 -101 m 436 1219 q 364 1186 390 1211 q 338 1107 338 1161 l 456 1107 l 456 896 l 242 896 l 243 1076 q 418 1294 243 1290 l 436 1219 z "},"ġ":{"ha":696,"x_min":35,"x_max":715,"o":"m 374 -242 q 135 -212 235 -242 q 35 -87 35 -182 q 67 -3 35 -42 q 150 72 100 36 q 69 119 92 94 q 47 182 47 144 q 73 252 47 219 q 147 322 99 285 q 81 401 104 354 q 58 521 58 449 q 132 743 58 669 q 340 817 206 817 q 449 799 401 817 q 524 747 497 781 q 633 838 578 807 l 663 851 l 715 743 q 650 716 693 736 q 581 679 607 696 q 610 615 597 656 q 622 522 622 575 q 556 321 622 393 q 357 249 490 249 q 226 272 285 249 q 200 215 196 238 q 219 197 201 204 q 275 185 238 190 l 450 161 q 615 99 568 144 q 663 -32 663 54 q 596 -186 663 -131 q 374 -242 529 -242 m 344 383 q 396 417 383 383 q 408 532 408 450 q 404 621 408 590 q 387 667 400 651 q 344 682 374 682 q 293 649 303 682 q 283 532 283 617 q 295 418 283 453 q 344 383 307 383 m 372 -101 q 460 -87 435 -101 q 486 -37 486 -72 q 466 5 486 -8 q 399 24 446 18 l 281 39 q 246 -42 246 -6 q 274 -87 246 -72 q 372 -101 303 -101 m 242 1119 l 456 1119 l 456 906 l 242 906 l 242 1119 z "},"h":{"ha":707,"x_min":72,"x_max":642,"o":"m 72 1125 l 297 1125 l 297 732 q 494 817 382 817 q 603 765 564 817 q 642 629 642 713 l 642 0 l 417 0 l 417 597 q 406 642 417 628 q 371 657 396 657 q 297 628 339 654 l 297 0 l 72 0 l 72 1125 z "},"ħ":{"ha":708,"x_min":8,"x_max":642,"o":"m 72 932 l 8 932 l 8 1036 l 72 1036 l 72 1125 l 299 1125 l 299 1036 l 463 1036 l 463 932 l 299 932 l 299 732 q 494 817 383 817 q 603 765 565 817 q 642 629 642 713 l 642 0 l 417 0 l 417 597 q 407 642 417 628 q 372 657 397 657 q 299 628 340 654 l 299 0 l 72 0 l 72 932 z "},"ĥ":{"ha":707,"x_min":-42,"x_max":642,"o":"m 72 1125 l 297 1125 l 297 732 q 494 817 382 817 q 603 765 564 817 q 642 629 642 713 l 642 0 l 417 0 l 417 597 q 406 642 417 628 q 371 657 396 657 q 297 628 339 654 l 297 0 l 72 0 l 72 1125 m 90 1490 l 275 1490 l 411 1224 l 244 1224 l 183 1389 l 124 1224 l -42 1224 l 90 1490 z "},"i":{"ha":368,"x_min":71,"x_max":299,"o":"m 71 1096 l 299 1096 l 299 939 l 71 939 l 71 1096 m 72 803 l 299 803 l 299 0 l 72 0 l 72 803 z "},"ı":{"ha":389,"x_min":82,"x_max":308,"o":"m 82 803 l 308 803 l 308 0 l 82 0 l 82 803 z "},"í":{"ha":389,"x_min":82,"x_max":439,"o":"m 82 803 l 308 803 l 308 0 l 82 0 l 82 803 m 208 1171 l 439 1171 l 264 892 l 121 892 l 208 1171 z "},"ĭ":{"ha":389,"x_min":-22,"x_max":414,"o":"m 82 803 l 308 803 l 308 0 l 82 0 l 82 803 m 196 893 q 37 949 96 893 q -22 1110 -22 1006 l 106 1110 q 126 1033 106 1057 q 196 1008 147 1008 q 265 1033 243 1008 q 286 1110 286 1058 l 414 1110 q 355 950 414 1007 q 196 893 296 893 z "},"î":{"ha":389,"x_min":-31,"x_max":422,"o":"m 82 803 l 308 803 l 308 0 l 82 0 l 82 803 m 101 1168 l 286 1168 l 422 901 l 256 901 l 194 1067 l 135 901 l -31 901 l 101 1168 z "},"ȉ":{"ha":389,"x_min":-114,"x_max":388,"o":"m 82 803 l 308 803 l 308 0 l 82 0 l 82 803 m -114 1174 l 58 1174 l 147 886 l 25 886 l -114 1174 m 140 1174 l 306 1174 l 388 886 l 268 886 l 140 1174 z "},"ï":{"ha":389,"x_min":-46,"x_max":438,"o":"m 82 803 l 308 803 l 308 0 l 82 0 l 82 803 m -46 1125 l 135 1125 l 135 919 l -46 919 l -46 1125 m 257 1125 l 438 1125 l 438 919 l 257 919 l 257 1125 z "},"ị":{"ha":368,"x_min":71,"x_max":299,"o":"m 71 1096 l 299 1096 l 299 939 l 71 939 l 71 1096 m 72 803 l 299 803 l 299 0 l 72 0 l 72 803 m 88 -97 l 282 -97 l 282 -289 l 88 -289 l 88 -97 z "},"ì":{"ha":389,"x_min":-47,"x_max":308,"o":"m 82 803 l 308 803 l 308 0 l 82 0 l 82 803 m -47 1171 l 186 1171 l 271 892 l 129 892 l -47 1171 z "},"ỉ":{"ha":389,"x_min":54,"x_max":365,"o":"m 82 803 l 308 803 l 308 0 l 82 0 l 82 803 m 119 943 q 197 986 174 969 q 219 1032 219 1003 q 140 1081 219 1081 q 54 1071 96 1081 l 54 1165 q 196 1183 121 1183 q 317 1150 269 1183 q 365 1046 365 1117 q 320 939 365 979 q 196 871 275 899 l 119 943 z "},"ȋ":{"ha":389,"x_min":-22,"x_max":414,"o":"m 82 803 l 308 803 l 308 0 l 82 0 l 82 803 m -22 901 q 35 1065 -22 1007 q 196 1122 93 1122 q 356 1065 299 1122 q 414 901 414 1007 l 286 901 q 265 982 286 957 q 196 1007 244 1007 q 126 982 147 1007 q 106 901 106 957 l -22 901 z "},"ĳ":{"ha":753,"x_min":71,"x_max":683,"o":"m 71 1096 l 299 1096 l 299 939 l 71 939 l 71 1096 m 72 803 l 299 803 l 299 0 l 72 0 l 72 803 m 457 1096 l 683 1096 l 683 939 l 457 939 l 457 1096 m 476 -250 q 356 -232 414 -250 l 356 -69 q 396 -75 381 -75 q 457 -7 457 -75 l 457 803 l 683 803 l 683 -35 q 630 -191 683 -132 q 476 -250 576 -250 z "},"ī":{"ha":389,"x_min":4,"x_max":388,"o":"m 82 803 l 308 803 l 308 0 l 82 0 l 82 803 m 4 1032 l 388 1032 l 388 925 l 4 925 l 4 1032 z "},"į":{"ha":368,"x_min":28,"x_max":317,"o":"m 71 1096 l 299 1096 l 299 939 l 71 939 l 71 1096 m 72 803 l 299 803 l 299 0 l 72 0 l 72 803 m 249 -361 q 92 -330 156 -361 q 28 -211 28 -299 q 60 -99 28 -158 q 136 0 92 -40 l 238 0 q 188 -168 188 -92 q 213 -231 188 -211 q 276 -250 238 -250 q 317 -247 297 -250 l 294 -357 q 249 -361 278 -361 z "},"ĩ":{"ha":389,"x_min":-24,"x_max":415,"o":"m 82 803 l 308 803 l 308 0 l 82 0 l 82 803 m 308 928 q 261 937 283 928 q 211 964 239 946 q 169 985 186 978 q 135 993 151 993 q 85 936 85 993 l -24 936 q 101 1133 -26 1133 q 144 1126 125 1133 q 193 1101 164 1118 q 235 1080 217 1088 q 272 1072 253 1072 q 315 1125 315 1072 l 415 1125 q 394 983 415 1038 q 308 928 374 928 z "},"j":{"ha":385,"x_min":-12,"x_max":315,"o":"m 89 1096 l 315 1096 l 315 939 l 89 939 l 89 1096 m 108 -250 q -12 -232 46 -250 l -12 -69 q 28 -75 13 -75 q 89 -7 89 -75 l 89 803 l 315 803 l 315 -35 q 262 -191 315 -132 q 108 -250 208 -250 z "},"ȷ":{"ha":385,"x_min":-12,"x_max":315,"o":"m 108 -250 q -12 -232 46 -250 l -12 -69 q 28 -75 13 -75 q 89 -7 89 -75 l 89 803 l 315 803 l 315 -35 q 262 -191 315 -132 q 108 -250 208 -250 z "},"ĵ":{"ha":385,"x_min":-24,"x_max":429,"o":"m 108 -250 q -12 -232 46 -250 l -12 -69 q 28 -75 13 -75 q 89 -7 89 -75 l 89 803 l 315 803 l 315 -35 q 262 -191 315 -132 q 108 -250 208 -250 m 108 1168 l 293 1168 l 429 901 l 263 901 l 201 1067 l 142 901 l -24 901 l 108 1168 z "},"k":{"ha":751,"x_min":71,"x_max":747,"o":"m 71 1125 l 296 1125 l 296 501 l 493 803 l 747 803 l 533 474 l 744 0 l 497 0 l 356 382 l 296 306 l 296 0 l 71 0 l 71 1125 z "},"ķ":{"ha":751,"x_min":71,"x_max":747,"o":"m 71 1125 l 296 1125 l 296 501 l 493 803 l 747 803 l 533 474 l 744 0 l 497 0 l 356 382 l 296 306 l 296 0 l 71 0 l 71 1125 m 289 -419 q 361 -386 335 -411 q 388 -307 388 -361 l 269 -307 l 269 -96 l 483 -96 l 482 -276 q 307 -494 482 -490 l 289 -419 z "},"ĸ":{"ha":706,"x_min":69,"x_max":697,"o":"m 69 803 l 296 803 l 296 468 l 450 803 l 694 803 l 531 446 l 697 0 l 460 0 l 332 371 l 296 318 l 296 0 l 69 0 l 69 803 z "},"l":{"ha":381,"x_min":81,"x_max":306,"o":"m 81 1125 l 306 1125 l 306 0 l 81 0 l 81 1125 z "},"ĺ":{"ha":381,"x_min":81,"x_max":436,"o":"m 81 1125 l 306 1125 l 306 0 l 81 0 l 81 1125 m 206 1493 l 436 1493 l 261 1214 l 118 1214 l 206 1493 z "},"ľ":{"ha":567,"x_min":81,"x_max":588,"o":"m 81 1125 l 306 1125 l 306 0 l 81 0 l 81 1125 m 394 790 q 493 913 493 815 l 374 913 l 374 1126 l 588 1126 l 588 940 q 408 718 588 733 l 394 790 z "},"ļ":{"ha":381,"x_min":81,"x_max":306,"o":"m 81 1125 l 306 1125 l 306 0 l 81 0 l 81 1125 m 106 -419 q 178 -386 151 -411 q 204 -307 204 -361 l 86 -307 l 86 -96 l 300 -96 l 299 -276 q 124 -494 299 -490 l 106 -419 z "},"ŀ":{"ha":504,"x_min":81,"x_max":522,"o":"m 81 1125 l 306 1125 l 306 0 l 81 0 l 81 1125 m 368 718 l 522 718 l 522 507 l 368 507 l 368 718 z "},"ǉ":{"ha":765,"x_min":81,"x_max":696,"o":"m 81 1125 l 306 1125 l 306 0 l 81 0 l 81 1125 m 469 1096 l 696 1096 l 696 939 l 469 939 l 469 1096 m 489 -250 q 368 -232 426 -250 l 368 -69 q 408 -75 393 -75 q 469 -7 469 -75 l 469 803 l 696 803 l 696 -35 q 642 -191 696 -132 q 489 -250 589 -250 z "},"ł":{"ha":464,"x_min":28,"x_max":453,"o":"m 121 575 l 28 535 l 28 661 l 121 701 l 121 1125 l 346 1125 l 346 797 l 453 843 l 453 717 l 346 672 l 346 0 l 121 0 l 121 575 z "},"m":{"ha":1046,"x_min":71,"x_max":981,"o":"m 71 803 l 293 803 l 293 739 q 483 818 374 818 q 567 794 532 818 q 621 722 603 769 q 825 818 706 818 q 938 766 896 818 q 981 624 981 714 l 981 0 l 758 0 l 758 600 q 748 647 758 632 q 714 663 738 663 q 676 655 699 663 q 636 633 654 647 l 636 624 l 636 0 l 417 0 l 417 600 q 371 663 417 663 q 293 633 335 663 l 293 0 l 71 0 l 71 803 z "},"ṁ":{"ha":1046,"x_min":71,"x_max":981,"o":"m 71 803 l 293 803 l 293 739 q 483 818 374 818 q 567 794 532 818 q 621 722 603 769 q 825 818 706 818 q 938 766 896 818 q 981 624 981 714 l 981 0 l 758 0 l 758 600 q 748 647 758 632 q 714 663 738 663 q 676 655 699 663 q 636 633 654 647 l 636 624 l 636 0 l 417 0 l 417 600 q 371 663 417 663 q 293 633 335 663 l 293 0 l 71 0 l 71 803 m 415 1119 l 629 1119 l 629 906 l 415 906 l 415 1119 z "},"n":{"ha":704,"x_min":71,"x_max":639,"o":"m 71 803 l 297 803 l 297 722 q 490 817 392 817 q 601 765 563 817 q 639 629 639 713 l 639 0 l 414 0 l 414 597 q 403 642 414 628 q 368 657 393 657 q 297 628 336 654 l 297 0 l 71 0 l 71 803 z "},"ń":{"ha":704,"x_min":71,"x_max":639,"o":"m 71 803 l 297 803 l 297 722 q 490 817 392 817 q 601 765 563 817 q 639 629 639 713 l 639 0 l 414 0 l 414 597 q 403 642 414 628 q 368 657 393 657 q 297 628 336 654 l 297 0 l 71 0 l 71 803 m 365 1171 l 596 1171 l 421 892 l 278 892 l 365 1171 z "},"ŉ":{"ha":813,"x_min":44,"x_max":767,"o":"m 65 944 q 137 983 110 956 q 164 1065 164 1010 l 44 1065 l 44 1279 l 260 1279 l 260 1094 q 79 871 257 885 l 65 944 m 199 803 l 425 803 l 425 722 q 618 817 519 817 q 728 765 690 817 q 767 629 767 713 l 767 0 l 542 0 l 542 597 q 531 642 542 628 q 496 657 521 657 q 425 628 464 654 l 425 0 l 199 0 l 199 803 z "},"ň":{"ha":704,"x_min":71,"x_max":639,"o":"m 71 803 l 297 803 l 297 722 q 490 817 392 817 q 601 765 563 817 q 639 629 639 713 l 639 0 l 414 0 l 414 597 q 403 642 414 628 q 368 657 393 657 q 297 628 336 654 l 297 0 l 71 0 l 71 803 m 121 1147 l 282 1147 l 353 994 l 424 1147 l 585 1147 l 463 888 l 243 888 l 121 1147 z "},"ņ":{"ha":704,"x_min":71,"x_max":639,"o":"m 71 803 l 297 803 l 297 722 q 490 817 392 817 q 601 765 563 817 q 639 629 639 713 l 639 0 l 414 0 l 414 597 q 403 642 414 628 q 368 657 393 657 q 297 628 336 654 l 297 0 l 71 0 l 71 803 m 265 -419 q 338 -386 311 -411 q 364 -307 364 -361 l 246 -307 l 246 -96 l 460 -96 l 458 -276 q 283 -494 458 -490 l 265 -419 z "},"ŋ":{"ha":661,"x_min":58,"x_max":628,"o":"m 247 -128 q 344 -117 313 -128 q 389 -82 376 -107 q 401 -7 401 -57 l 401 597 q 392 642 401 628 q 357 657 382 657 q 285 628 324 654 l 285 0 l 58 0 l 58 803 l 285 803 l 285 732 q 479 817 369 817 q 589 765 550 817 q 628 629 628 713 l 628 -8 q 599 -161 628 -104 q 506 -244 571 -218 q 329 -271 442 -271 l 247 -271 l 247 -128 z "},"ǌ":{"ha":1089,"x_min":71,"x_max":1019,"o":"m 71 803 l 297 803 l 297 722 q 490 817 392 817 q 601 765 563 817 q 639 629 639 713 l 639 0 l 414 0 l 414 597 q 403 642 414 628 q 368 657 393 657 q 297 628 336 654 l 297 0 l 71 0 l 71 803 m 793 1096 l 1019 1096 l 1019 939 l 793 939 l 793 1096 m 813 -250 q 692 -232 750 -250 l 692 -69 q 732 -75 717 -75 q 793 -7 793 -75 l 793 803 l 1019 803 l 1019 -35 q 966 -191 1019 -132 q 813 -250 913 -250 z "},"ñ":{"ha":704,"x_min":71,"x_max":639,"o":"m 71 803 l 297 803 l 297 722 q 490 817 392 817 q 601 765 563 817 q 639 629 639 713 l 639 0 l 414 0 l 414 597 q 403 642 414 628 q 368 657 393 657 q 297 628 336 654 l 297 0 l 71 0 l 71 803 m 465 928 q 418 937 440 928 q 368 964 396 946 q 326 985 343 978 q 292 993 308 993 q 242 936 242 993 l 133 936 q 258 1133 131 1133 q 301 1126 282 1133 q 350 1101 321 1118 q 392 1080 374 1088 q 429 1072 410 1072 q 472 1125 472 1072 l 572 1125 q 551 983 572 1038 q 465 928 531 928 z "},"o":{"ha":671,"x_min":54,"x_max":617,"o":"m 335 -14 q 128 53 203 -14 q 54 249 54 119 l 54 554 q 128 750 54 683 q 335 817 203 817 q 542 749 467 817 q 617 554 617 682 l 617 249 q 542 53 617 121 q 335 -14 467 -14 m 335 136 q 381 160 368 136 q 393 233 393 185 l 393 569 q 381 642 393 618 q 335 667 368 667 q 291 642 304 667 q 278 569 278 617 l 278 233 q 291 160 278 185 q 335 136 304 136 z "},"ó":{"ha":671,"x_min":54,"x_max":617,"o":"m 335 -14 q 128 53 203 -14 q 54 249 54 119 l 54 554 q 128 750 54 683 q 335 817 203 817 q 542 749 467 817 q 617 554 617 682 l 617 249 q 542 53 617 121 q 335 -14 467 -14 m 335 136 q 381 160 368 136 q 393 233 393 185 l 393 569 q 381 642 393 618 q 335 667 368 667 q 291 642 304 667 q 278 569 278 617 l 278 233 q 291 160 278 185 q 335 136 304 136 m 347 1171 l 578 1171 l 403 892 l 260 892 l 347 1171 z "},"ŏ":{"ha":671,"x_min":54,"x_max":617,"o":"m 335 -14 q 128 53 203 -14 q 54 249 54 119 l 54 554 q 128 750 54 683 q 335 817 203 817 q 542 749 467 817 q 617 554 617 682 l 617 249 q 542 53 617 121 q 335 -14 467 -14 m 335 136 q 381 160 368 136 q 393 233 393 185 l 393 569 q 381 642 393 618 q 335 667 368 667 q 291 642 304 667 q 278 569 278 617 l 278 233 q 291 160 278 185 q 335 136 304 136 m 335 893 q 176 949 235 893 q 117 1110 117 1006 l 244 1110 q 265 1033 244 1057 q 335 1008 286 1008 q 403 1033 382 1008 q 425 1110 425 1058 l 553 1110 q 494 950 553 1007 q 335 893 435 893 z "},"ô":{"ha":671,"x_min":54,"x_max":617,"o":"m 335 -14 q 128 53 203 -14 q 54 249 54 119 l 54 554 q 128 750 54 683 q 335 817 203 817 q 542 749 467 817 q 617 554 617 682 l 617 249 q 542 53 617 121 q 335 -14 467 -14 m 335 136 q 381 160 368 136 q 393 233 393 185 l 393 569 q 381 642 393 618 q 335 667 368 667 q 291 642 304 667 q 278 569 278 617 l 278 233 q 291 160 278 185 q 335 136 304 136 m 240 1168 l 425 1168 l 561 901 l 394 901 l 333 1067 l 274 901 l 108 901 l 240 1168 z "},"ố":{"ha":671,"x_min":54,"x_max":764,"o":"m 335 -14 q 128 53 203 -14 q 54 249 54 119 l 54 554 q 128 750 54 683 q 335 817 203 817 q 542 749 467 817 q 617 554 617 682 l 617 249 q 542 53 617 121 q 335 -14 467 -14 m 335 136 q 381 160 368 136 q 393 233 393 185 l 393 569 q 381 642 393 618 q 335 667 368 667 q 291 642 304 667 q 278 569 278 617 l 278 233 q 291 160 278 185 q 335 136 304 136 m 596 1236 l 764 1236 l 642 1065 l 522 1065 l 596 1236 m 240 1133 l 425 1133 l 561 901 l 400 901 l 333 1040 l 268 901 l 108 901 l 240 1133 z "},"ộ":{"ha":671,"x_min":54,"x_max":617,"o":"m 335 -14 q 128 53 203 -14 q 54 249 54 119 l 54 554 q 128 750 54 683 q 335 817 203 817 q 542 749 467 817 q 617 554 617 682 l 617 249 q 542 53 617 121 q 335 -14 467 -14 m 335 136 q 381 160 368 136 q 393 233 393 185 l 393 569 q 381 642 393 618 q 335 667 368 667 q 291 642 304 667 q 278 569 278 617 l 278 233 q 291 160 278 185 q 335 136 304 136 m 238 -97 l 432 -97 l 432 -289 l 238 -289 l 238 -97 m 240 1133 l 425 1133 l 561 901 l 400 901 l 333 1040 l 268 901 l 108 901 l 240 1133 z "},"ồ":{"ha":671,"x_min":54,"x_max":683,"o":"m 335 -14 q 128 53 203 -14 q 54 249 54 119 l 54 554 q 128 750 54 683 q 335 817 203 817 q 542 749 467 817 q 617 554 617 682 l 617 249 q 542 53 617 121 q 335 -14 467 -14 m 335 136 q 381 160 368 136 q 393 233 393 185 l 393 569 q 381 642 393 618 q 335 667 368 667 q 291 642 304 667 q 278 569 278 617 l 278 233 q 291 160 278 185 q 335 136 304 136 m 440 1236 l 610 1236 l 683 1065 l 563 1065 l 440 1236 m 240 1133 l 425 1133 l 561 901 l 400 901 l 333 1040 l 268 901 l 108 901 l 240 1133 z "},"ổ":{"ha":671,"x_min":54,"x_max":706,"o":"m 335 -14 q 128 53 203 -14 q 54 249 54 119 l 54 554 q 128 750 54 683 q 335 817 203 817 q 542 749 467 817 q 617 554 617 682 l 617 249 q 542 53 617 121 q 335 -14 467 -14 m 335 136 q 381 160 368 136 q 393 233 393 185 l 393 569 q 381 642 393 618 q 335 667 368 667 q 291 642 304 667 q 278 569 278 617 l 278 233 q 291 160 278 185 q 335 136 304 136 m 515 1097 q 553 1138 540 1118 q 567 1181 567 1157 q 549 1222 567 1207 q 503 1236 532 1236 q 432 1222 468 1236 l 432 1317 q 546 1339 490 1339 q 662 1303 618 1339 q 706 1201 706 1268 q 672 1101 706 1140 q 579 1029 639 1061 l 515 1097 m 240 1133 l 425 1133 l 561 901 l 400 901 l 333 1040 l 268 901 l 108 901 l 240 1133 z "},"ỗ":{"ha":671,"x_min":54,"x_max":617,"o":"m 335 -14 q 128 53 203 -14 q 54 249 54 119 l 54 554 q 128 750 54 683 q 335 817 203 817 q 542 749 467 817 q 617 554 617 682 l 617 249 q 542 53 617 121 q 335 -14 467 -14 m 335 136 q 381 160 368 136 q 393 233 393 185 l 393 569 q 381 642 393 618 q 335 667 368 667 q 291 642 304 667 q 278 569 278 617 l 278 233 q 291 160 278 185 q 335 136 304 136 m 240 1133 l 425 1133 l 561 901 l 400 901 l 333 1040 l 268 901 l 108 901 l 240 1133 m 447 1201 q 400 1210 422 1201 q 350 1238 378 1219 q 308 1259 325 1251 q 274 1267 290 1267 q 224 1210 224 1267 l 115 1210 q 240 1407 113 1407 q 283 1399 264 1407 q 332 1375 303 1392 q 374 1353 356 1361 q 411 1346 392 1346 q 454 1399 454 1346 l 554 1399 q 533 1256 554 1311 q 447 1201 513 1201 z "},"ȍ":{"ha":671,"x_min":25,"x_max":617,"o":"m 335 -14 q 128 53 203 -14 q 54 249 54 119 l 54 554 q 128 750 54 683 q 335 817 203 817 q 542 749 467 817 q 617 554 617 682 l 617 249 q 542 53 617 121 q 335 -14 467 -14 m 335 136 q 381 160 368 136 q 393 233 393 185 l 393 569 q 381 642 393 618 q 335 667 368 667 q 291 642 304 667 q 278 569 278 617 l 278 233 q 291 160 278 185 q 335 136 304 136 m 25 1174 l 197 1174 l 286 886 l 164 886 l 25 1174 m 279 1174 l 444 1174 l 526 886 l 407 886 l 279 1174 z "},"ö":{"ha":671,"x_min":54,"x_max":617,"o":"m 335 -14 q 128 53 203 -14 q 54 249 54 119 l 54 554 q 128 750 54 683 q 335 817 203 817 q 542 749 467 817 q 617 554 617 682 l 617 249 q 542 53 617 121 q 335 -14 467 -14 m 335 136 q 381 160 368 136 q 393 233 393 185 l 393 569 q 381 642 393 618 q 335 667 368 667 q 291 642 304 667 q 278 569 278 617 l 278 233 q 291 160 278 185 q 335 136 304 136 m 93 1125 l 274 1125 l 274 919 l 93 919 l 93 1125 m 396 1125 l 576 1125 l 576 919 l 396 919 l 396 1125 z "},"ȫ":{"ha":671,"x_min":54,"x_max":617,"o":"m 335 -14 q 128 53 203 -14 q 54 249 54 119 l 54 554 q 128 750 54 683 q 335 817 203 817 q 542 749 467 817 q 617 554 617 682 l 617 249 q 542 53 617 121 q 335 -14 467 -14 m 335 136 q 381 160 368 136 q 393 233 393 185 l 393 569 q 381 642 393 618 q 335 667 368 667 q 291 642 304 667 q 278 569 278 617 l 278 233 q 291 160 278 185 q 335 136 304 136 m 93 1125 l 274 1125 l 274 919 l 93 919 l 93 1125 m 396 1125 l 576 1125 l 576 919 l 396 919 l 396 1125 m 143 1354 l 526 1354 l 526 1247 l 143 1247 l 143 1354 z "},"ȱ":{"ha":671,"x_min":54,"x_max":617,"o":"m 335 -14 q 128 53 203 -14 q 54 249 54 119 l 54 554 q 128 750 54 683 q 335 817 203 817 q 542 749 467 817 q 617 554 617 682 l 617 249 q 542 53 617 121 q 335 -14 467 -14 m 335 136 q 381 160 368 136 q 393 233 393 185 l 393 569 q 381 642 393 618 q 335 667 368 667 q 291 642 304 667 q 278 569 278 617 l 278 233 q 291 160 278 185 q 335 136 304 136 m 228 1119 l 442 1119 l 442 906 l 228 906 l 228 1119 m 143 1349 l 526 1349 l 526 1242 l 143 1242 l 143 1349 z "},"ọ":{"ha":671,"x_min":54,"x_max":617,"o":"m 335 -14 q 128 53 203 -14 q 54 249 54 119 l 54 554 q 128 750 54 683 q 335 817 203 817 q 542 749 467 817 q 617 554 617 682 l 617 249 q 542 53 617 121 q 335 -14 467 -14 m 335 136 q 381 160 368 136 q 393 233 393 185 l 393 569 q 381 642 393 618 q 335 667 368 667 q 291 642 304 667 q 278 569 278 617 l 278 233 q 291 160 278 185 q 335 136 304 136 m 238 -97 l 432 -97 l 432 -289 l 238 -289 l 238 -97 z "},"ò":{"ha":671,"x_min":54,"x_max":617,"o":"m 335 -14 q 128 53 203 -14 q 54 249 54 119 l 54 554 q 128 750 54 683 q 335 817 203 817 q 542 749 467 817 q 617 554 617 682 l 617 249 q 542 53 617 121 q 335 -14 467 -14 m 335 136 q 381 160 368 136 q 393 233 393 185 l 393 569 q 381 642 393 618 q 335 667 368 667 q 291 642 304 667 q 278 569 278 617 l 278 233 q 291 160 278 185 q 335 136 304 136 m 92 1171 l 325 1171 l 410 892 l 268 892 l 92 1171 z "},"ỏ":{"ha":671,"x_min":54,"x_max":617,"o":"m 335 -14 q 128 53 203 -14 q 54 249 54 119 l 54 554 q 128 750 54 683 q 335 817 203 817 q 542 749 467 817 q 617 554 617 682 l 617 249 q 542 53 617 121 q 335 -14 467 -14 m 335 136 q 381 160 368 136 q 393 233 393 185 l 393 569 q 381 642 393 618 q 335 667 368 667 q 291 642 304 667 q 278 569 278 617 l 278 233 q 291 160 278 185 q 335 136 304 136 m 258 943 q 335 986 313 969 q 358 1032 358 1003 q 279 1081 358 1081 q 193 1071 235 1081 l 193 1165 q 335 1183 260 1183 q 456 1150 408 1183 q 504 1046 504 1117 q 459 939 504 979 q 335 871 414 899 l 258 943 z "},"ơ":{"ha":671,"x_min":54,"x_max":617,"o":"m 538 754 q 617 554 617 683 l 617 249 q 542 53 617 121 q 335 -14 467 -14 q 128 53 203 -14 q 54 249 54 119 l 54 554 q 128 750 54 683 q 335 817 203 817 q 417 810 375 817 q 449 847 439 819 q 458 922 458 874 l 617 922 q 538 754 617 807 m 393 569 q 381 642 393 618 q 335 667 368 667 q 291 642 304 667 q 278 569 278 617 l 278 233 q 291 160 278 185 q 335 136 304 136 q 381 160 368 136 q 393 233 393 185 l 393 569 z "},"ớ":{"ha":671,"x_min":54,"x_max":617,"o":"m 538 754 q 617 554 617 683 l 617 249 q 542 53 617 121 q 335 -14 467 -14 q 128 53 203 -14 q 54 249 54 119 l 54 554 q 128 750 54 683 q 335 817 203 817 q 417 810 375 817 q 449 847 439 819 q 458 922 458 874 l 617 922 q 538 754 617 807 m 393 569 q 381 642 393 618 q 335 667 368 667 q 291 642 304 667 q 278 569 278 617 l 278 233 q 291 160 278 185 q 335 136 304 136 q 381 160 368 136 q 393 233 393 185 l 393 569 m 347 1214 l 578 1214 l 403 935 l 260 935 l 347 1214 z "},"ợ":{"ha":671,"x_min":54,"x_max":617,"o":"m 538 754 q 617 554 617 683 l 617 249 q 542 53 617 121 q 335 -14 467 -14 q 128 53 203 -14 q 54 249 54 119 l 54 554 q 128 750 54 683 q 335 817 203 817 q 417 810 375 817 q 449 847 439 819 q 458 922 458 874 l 617 922 q 538 754 617 807 m 393 569 q 381 642 393 618 q 335 667 368 667 q 291 642 304 667 q 278 569 278 617 l 278 233 q 291 160 278 185 q 335 136 304 136 q 381 160 368 136 q 393 233 393 185 l 393 569 m 238 -97 l 432 -97 l 432 -289 l 238 -289 l 238 -97 z "},"ờ":{"ha":671,"x_min":54,"x_max":617,"o":"m 538 754 q 617 554 617 683 l 617 249 q 542 53 617 121 q 335 -14 467 -14 q 128 53 203 -14 q 54 249 54 119 l 54 554 q 128 750 54 683 q 335 817 203 817 q 417 810 375 817 q 449 847 439 819 q 458 922 458 874 l 617 922 q 538 754 617 807 m 393 569 q 381 642 393 618 q 335 667 368 667 q 291 642 304 667 q 278 569 278 617 l 278 233 q 291 160 278 185 q 335 136 304 136 q 381 160 368 136 q 393 233 393 185 l 393 569 m 92 1214 l 325 1214 l 410 935 l 268 935 l 92 1214 z "},"ở":{"ha":671,"x_min":54,"x_max":617,"o":"m 538 754 q 617 554 617 683 l 617 249 q 542 53 617 121 q 335 -14 467 -14 q 128 53 203 -14 q 54 249 54 119 l 54 554 q 128 750 54 683 q 335 817 203 817 q 417 810 375 817 q 449 847 439 819 q 458 922 458 874 l 617 922 q 538 754 617 807 m 393 569 q 381 642 393 618 q 335 667 368 667 q 291 642 304 667 q 278 569 278 617 l 278 233 q 291 160 278 185 q 335 136 304 136 q 381 160 368 136 q 393 233 393 185 l 393 569 m 258 986 q 335 1029 313 1013 q 358 1075 358 1046 q 279 1124 358 1124 q 193 1114 235 1124 l 193 1208 q 335 1226 260 1226 q 456 1193 408 1226 q 504 1089 504 1160 q 459 982 504 1022 q 335 914 414 942 l 258 986 z "},"ỡ":{"ha":671,"x_min":54,"x_max":617,"o":"m 538 754 q 617 554 617 683 l 617 249 q 542 53 617 121 q 335 -14 467 -14 q 128 53 203 -14 q 54 249 54 119 l 54 554 q 128 750 54 683 q 335 817 203 817 q 417 810 375 817 q 449 847 439 819 q 458 922 458 874 l 617 922 q 538 754 617 807 m 393 569 q 381 642 393 618 q 335 667 368 667 q 291 642 304 667 q 278 569 278 617 l 278 233 q 291 160 278 185 q 335 136 304 136 q 381 160 368 136 q 393 233 393 185 l 393 569 m 447 971 q 400 980 422 971 q 350 1007 378 989 q 308 1028 325 1021 q 274 1036 290 1036 q 224 979 224 1036 l 115 979 q 240 1176 113 1176 q 283 1169 264 1176 q 332 1144 303 1161 q 374 1123 356 1131 q 411 1115 392 1115 q 454 1168 454 1115 l 554 1168 q 533 1026 554 1081 q 447 971 513 971 z "},"ő":{"ha":671,"x_min":54,"x_max":676,"o":"m 335 -14 q 128 53 203 -14 q 54 249 54 119 l 54 554 q 128 750 54 683 q 335 817 203 817 q 542 749 467 817 q 617 554 617 682 l 617 249 q 542 53 617 121 q 335 -14 467 -14 m 335 136 q 381 160 368 136 q 393 233 393 185 l 393 569 q 381 642 393 618 q 335 667 368 667 q 291 642 304 667 q 278 569 278 617 l 278 233 q 291 160 278 185 q 335 136 304 136 m 229 1179 l 413 1179 l 263 879 l 146 879 l 229 1179 m 482 1179 l 676 1179 l 510 879 l 393 879 l 482 1179 z "},"ȏ":{"ha":671,"x_min":54,"x_max":617,"o":"m 335 -14 q 128 53 203 -14 q 54 249 54 119 l 54 554 q 128 750 54 683 q 335 817 203 817 q 542 749 467 817 q 617 554 617 682 l 617 249 q 542 53 617 121 q 335 -14 467 -14 m 335 136 q 381 160 368 136 q 393 233 393 185 l 393 569 q 381 642 393 618 q 335 667 368 667 q 291 642 304 667 q 278 569 278 617 l 278 233 q 291 160 278 185 q 335 136 304 136 m 117 901 q 174 1065 117 1007 q 335 1122 232 1122 q 495 1065 438 1122 q 553 901 553 1007 l 425 901 q 404 982 425 957 q 335 1007 383 1007 q 265 982 286 1007 q 244 901 244 957 l 117 901 z "},"ō":{"ha":671,"x_min":54,"x_max":617,"o":"m 335 -14 q 128 53 203 -14 q 54 249 54 119 l 54 554 q 128 750 54 683 q 335 817 203 817 q 542 749 467 817 q 617 554 617 682 l 617 249 q 542 53 617 121 q 335 -14 467 -14 m 335 136 q 381 160 368 136 q 393 233 393 185 l 393 569 q 381 642 393 618 q 335 667 368 667 q 291 642 304 667 q 278 569 278 617 l 278 233 q 291 160 278 185 q 335 136 304 136 m 143 1032 l 526 1032 l 526 925 l 143 925 l 143 1032 z "},"ǫ":{"ha":671,"x_min":54,"x_max":617,"o":"m 335 817 q 542 749 467 817 q 617 554 617 682 l 617 249 q 568 83 617 147 q 432 -3 519 18 q 385 -165 385 -92 q 410 -228 385 -208 q 474 -247 435 -247 q 514 -244 494 -247 l 492 -354 q 446 -358 475 -358 q 289 -327 353 -358 q 225 -208 225 -296 q 251 -108 225 -161 q 317 -14 278 -56 q 124 58 193 -8 q 54 249 54 124 l 54 554 q 128 750 54 683 q 335 817 203 817 m 278 233 q 291 160 278 185 q 335 136 304 136 q 381 160 368 136 q 393 233 393 185 l 393 569 q 381 642 393 618 q 335 667 368 667 q 291 642 304 667 q 278 569 278 617 l 278 233 z "},"ø":{"ha":663,"x_min":54,"x_max":617,"o":"m 508 775 q 617 554 617 707 l 617 249 q 542 53 617 121 q 335 -14 467 -14 q 199 10 258 -14 l 144 -124 l 93 -101 l 149 36 q 54 249 54 104 l 54 554 q 128 750 54 683 q 335 817 203 817 q 456 799 403 817 l 510 935 l 564 913 l 508 775 m 278 358 l 386 628 q 335 667 375 667 q 291 642 304 667 q 278 569 278 617 l 278 358 m 335 136 q 381 160 368 136 q 393 233 393 185 l 393 490 l 279 208 q 335 136 283 136 z "},"ǿ":{"ha":663,"x_min":54,"x_max":617,"o":"m 508 775 q 617 554 617 707 l 617 249 q 542 53 617 121 q 335 -14 467 -14 q 199 10 258 -14 l 144 -124 l 93 -101 l 149 36 q 54 249 54 104 l 54 554 q 128 750 54 683 q 335 817 203 817 q 456 799 403 817 l 510 935 l 564 913 l 508 775 m 278 358 l 386 628 q 335 667 375 667 q 291 642 304 667 q 278 569 278 617 l 278 358 m 335 136 q 381 160 368 136 q 393 233 393 185 l 393 490 l 279 208 q 335 136 283 136 m 344 1171 l 575 1171 l 400 892 l 257 892 l 344 1171 z "},"õ":{"ha":671,"x_min":54,"x_max":617,"o":"m 335 -14 q 128 53 203 -14 q 54 249 54 119 l 54 554 q 128 750 54 683 q 335 817 203 817 q 542 749 467 817 q 617 554 617 682 l 617 249 q 542 53 617 121 q 335 -14 467 -14 m 335 136 q 381 160 368 136 q 393 233 393 185 l 393 569 q 381 642 393 618 q 335 667 368 667 q 291 642 304 667 q 278 569 278 617 l 278 233 q 291 160 278 185 q 335 136 304 136 m 447 928 q 400 937 422 928 q 350 964 378 946 q 308 985 325 978 q 274 993 290 993 q 224 936 224 993 l 115 936 q 240 1133 113 1133 q 283 1126 264 1133 q 332 1101 303 1118 q 374 1080 356 1088 q 411 1072 392 1072 q 454 1125 454 1072 l 554 1125 q 533 983 554 1038 q 447 928 513 928 z "},"ȭ":{"ha":671,"x_min":54,"x_max":617,"o":"m 335 -14 q 128 53 203 -14 q 54 249 54 119 l 54 554 q 128 750 54 683 q 335 817 203 817 q 542 749 467 817 q 617 554 617 682 l 617 249 q 542 53 617 121 q 335 -14 467 -14 m 335 136 q 381 160 368 136 q 393 233 393 185 l 393 569 q 381 642 393 618 q 335 667 368 667 q 291 642 304 667 q 278 569 278 617 l 278 233 q 291 160 278 185 q 335 136 304 136 m 447 928 q 400 937 422 928 q 350 964 378 946 q 308 985 325 978 q 274 993 290 993 q 224 936 224 993 l 115 936 q 240 1133 113 1133 q 283 1126 264 1133 q 332 1101 303 1118 q 374 1080 356 1088 q 411 1072 392 1072 q 454 1125 454 1072 l 554 1125 q 533 983 554 1038 q 447 928 513 928 m 143 1363 l 526 1363 l 526 1256 l 143 1256 l 143 1363 z "},"œ":{"ha":979,"x_min":57,"x_max":931,"o":"m 293 -18 q 123 49 189 -18 q 57 242 57 115 l 57 592 q 124 774 57 713 q 306 836 190 836 q 424 808 367 836 q 500 733 482 781 q 576 809 519 782 q 690 836 632 836 q 931 556 931 836 l 931 386 l 624 386 l 624 243 q 634 156 624 188 q 672 124 644 124 q 708 143 697 122 q 718 208 718 164 l 718 315 l 931 315 l 931 210 q 870 42 931 103 q 696 -18 810 -18 q 568 8 621 -18 q 494 83 515 35 q 293 -18 439 -18 m 331 124 q 374 149 360 124 q 388 235 388 174 l 388 603 q 333 697 388 697 q 279 603 279 697 l 279 236 q 331 124 279 124 m 721 506 l 721 618 q 707 676 721 654 q 671 697 693 697 q 637 676 650 697 q 624 618 624 656 l 624 506 l 721 506 z "},"p":{"ha":701,"x_min":71,"x_max":643,"o":"m 71 803 l 297 803 l 297 744 q 381 798 336 779 q 467 817 425 817 q 599 751 556 817 q 643 581 643 686 l 643 235 q 597 53 643 119 q 468 -14 551 -14 q 297 61 383 -14 l 297 -264 l 71 -264 l 71 803 m 357 132 q 402 157 388 132 q 417 222 417 182 l 417 597 q 403 656 417 632 q 361 681 389 681 q 297 653 332 681 l 297 153 q 357 132 329 132 z "},"ṗ":{"ha":701,"x_min":71,"x_max":643,"o":"m 71 803 l 297 803 l 297 744 q 381 798 336 779 q 467 817 425 817 q 599 751 556 817 q 643 581 643 686 l 643 235 q 597 53 643 119 q 468 -14 551 -14 q 297 61 383 -14 l 297 -264 l 71 -264 l 71 803 m 357 132 q 402 157 388 132 q 417 222 417 182 l 417 597 q 403 656 417 632 q 361 681 389 681 q 297 653 332 681 l 297 153 q 357 132 329 132 m 243 1119 l 457 1119 l 457 906 l 243 906 l 243 1119 z "},"þ":{"ha":686,"x_min":64,"x_max":635,"o":"m 64 1125 l 290 1125 l 290 744 q 460 817 374 817 q 592 751 549 817 q 635 581 635 686 l 635 235 q 589 53 635 121 q 460 -14 543 -14 q 290 60 378 -14 l 290 -264 l 64 -264 l 64 1125 m 350 132 q 393 157 379 132 q 407 222 407 182 l 407 597 q 394 657 407 633 q 354 681 381 681 q 290 653 328 681 l 290 153 q 350 132 321 132 z "},"q":{"ha":700,"x_min":58,"x_max":632,"o":"m 406 67 q 242 -14 322 -14 q 105 49 151 -14 q 58 233 58 111 l 58 565 q 106 749 58 681 q 244 817 154 817 q 406 749 331 817 l 406 803 l 632 803 l 632 -264 l 406 -264 l 406 67 m 344 131 q 406 153 369 131 l 406 656 q 346 676 374 676 q 300 652 315 676 q 285 589 285 628 l 285 219 q 300 155 285 179 q 344 131 315 131 z "},"r":{"ha":515,"x_min":74,"x_max":493,"o":"m 74 803 l 300 803 l 300 669 q 461 813 374 813 q 493 807 468 813 l 493 610 q 479 613 488 611 q 458 614 471 614 q 370 585 408 610 q 300 514 332 561 l 300 0 l 74 0 l 74 803 z "},"ŕ":{"ha":515,"x_min":74,"x_max":518,"o":"m 74 803 l 300 803 l 300 669 q 461 813 374 813 q 493 807 468 813 l 493 610 q 479 613 488 611 q 458 614 471 614 q 370 585 408 610 q 300 514 332 561 l 300 0 l 74 0 l 74 803 m 288 1171 l 518 1171 l 343 892 l 200 892 l 288 1171 z "},"ř":{"ha":515,"x_min":43,"x_max":507,"o":"m 74 803 l 300 803 l 300 669 q 461 813 374 813 q 493 807 468 813 l 493 610 q 479 613 488 611 q 458 614 471 614 q 370 585 408 610 q 300 514 332 561 l 300 0 l 74 0 l 74 803 m 43 1147 l 204 1147 l 275 994 l 346 1147 l 507 1147 l 385 888 l 165 888 l 43 1147 z "},"ŗ":{"ha":515,"x_min":74,"x_max":493,"o":"m 74 803 l 300 803 l 300 669 q 461 813 374 813 q 493 807 468 813 l 493 610 q 479 613 488 611 q 458 614 471 614 q 370 585 408 610 q 300 514 332 561 l 300 0 l 74 0 l 74 803 m 100 -419 q 172 -386 146 -411 q 199 -307 199 -361 l 81 -307 l 81 -96 l 294 -96 l 293 -276 q 118 -494 293 -490 l 100 -419 z "},"ȑ":{"ha":515,"x_min":-35,"x_max":493,"o":"m 74 803 l 300 803 l 300 669 q 461 813 374 813 q 493 807 468 813 l 493 610 q 479 613 488 611 q 458 614 471 614 q 370 585 408 610 q 300 514 332 561 l 300 0 l 74 0 l 74 803 m -35 1174 l 138 1174 l 226 886 l 104 886 l -35 1174 m 219 1174 l 385 1174 l 467 886 l 347 886 l 219 1174 z "},"ȓ":{"ha":515,"x_min":57,"x_max":493,"o":"m 74 803 l 300 803 l 300 669 q 461 813 374 813 q 493 807 468 813 l 493 610 q 479 613 488 611 q 458 614 471 614 q 370 585 408 610 q 300 514 332 561 l 300 0 l 74 0 l 74 803 m 57 901 q 115 1065 57 1007 q 275 1122 172 1122 q 435 1065 378 1122 q 493 901 493 1007 l 365 901 q 344 982 365 957 q 275 1007 324 1007 q 206 982 226 1007 q 185 901 185 957 l 57 901 z "},"s":{"ha":589,"x_min":28,"x_max":564,"o":"m 307 -14 q 137 34 204 -14 q 28 188 69 82 l 182 256 q 234 169 204 200 q 299 139 264 139 q 339 153 325 139 q 353 193 353 168 q 326 242 351 217 q 242 317 301 268 l 183 365 q 78 476 111 426 q 46 596 46 526 q 80 710 46 660 q 171 788 114 760 q 293 817 228 817 q 458 763 392 817 q 551 610 524 710 l 406 543 q 363 623 392 588 q 299 658 333 658 q 263 646 276 658 q 250 613 250 633 q 276 560 250 588 q 363 482 301 532 l 419 432 q 495 361 467 390 q 544 292 524 332 q 564 204 564 251 q 528 87 564 136 q 434 12 493 38 q 307 -14 375 -14 z "},"ś":{"ha":589,"x_min":28,"x_max":564,"o":"m 307 -14 q 137 34 204 -14 q 28 188 69 82 l 182 256 q 234 169 204 200 q 299 139 264 139 q 339 153 325 139 q 353 193 353 168 q 326 242 351 217 q 242 317 301 268 l 183 365 q 78 476 111 426 q 46 596 46 526 q 80 710 46 660 q 171 788 114 760 q 293 817 228 817 q 458 763 392 817 q 551 610 524 710 l 406 543 q 363 623 392 588 q 299 658 333 658 q 263 646 276 658 q 250 613 250 633 q 276 560 250 588 q 363 482 301 532 l 419 432 q 495 361 467 390 q 544 292 524 332 q 564 204 564 251 q 528 87 564 136 q 434 12 493 38 q 307 -14 375 -14 m 307 1171 l 538 1171 l 363 892 l 219 892 l 307 1171 z "},"š":{"ha":589,"x_min":28,"x_max":564,"o":"m 307 -14 q 137 34 204 -14 q 28 188 69 82 l 182 256 q 234 169 204 200 q 299 139 264 139 q 339 153 325 139 q 353 193 353 168 q 326 242 351 217 q 242 317 301 268 l 183 365 q 78 476 111 426 q 46 596 46 526 q 80 710 46 660 q 171 788 114 760 q 293 817 228 817 q 458 763 392 817 q 551 610 524 710 l 406 543 q 363 623 392 588 q 299 658 333 658 q 263 646 276 658 q 250 613 250 633 q 276 560 250 588 q 363 482 301 532 l 419 432 q 495 361 467 390 q 544 292 524 332 q 564 204 564 251 q 528 87 564 136 q 434 12 493 38 q 307 -14 375 -14 m 63 1147 l 224 1147 l 294 994 l 365 1147 l 526 1147 l 404 888 l 185 888 l 63 1147 z "},"ş":{"ha":589,"x_min":28,"x_max":564,"o":"m 336 -92 q 476 -128 425 -92 q 526 -236 526 -164 q 468 -348 526 -311 q 322 -385 410 -385 q 217 -368 267 -385 l 217 -271 q 296 -282 256 -282 q 382 -233 382 -282 q 344 -181 382 -199 q 254 -161 306 -164 l 254 -11 q 119 48 174 0 q 28 188 64 96 l 182 256 q 234 169 204 200 q 299 139 264 139 q 339 153 325 139 q 353 193 353 168 q 326 242 351 217 q 242 317 301 268 l 183 365 q 78 476 111 426 q 46 596 46 526 q 80 710 46 660 q 171 788 114 760 q 293 817 228 817 q 458 763 392 817 q 551 610 524 710 l 406 543 q 363 623 392 588 q 299 658 333 658 q 263 646 276 658 q 250 613 250 633 q 276 560 250 588 q 363 482 301 532 l 419 432 q 495 361 467 390 q 544 292 524 332 q 564 204 564 251 q 499 53 564 110 q 336 -12 433 -4 l 336 -92 z "},"ŝ":{"ha":589,"x_min":28,"x_max":564,"o":"m 307 -14 q 137 34 204 -14 q 28 188 69 82 l 182 256 q 234 169 204 200 q 299 139 264 139 q 339 153 325 139 q 353 193 353 168 q 326 242 351 217 q 242 317 301 268 l 183 365 q 78 476 111 426 q 46 596 46 526 q 80 710 46 660 q 171 788 114 760 q 293 817 228 817 q 458 763 392 817 q 551 610 524 710 l 406 543 q 363 623 392 588 q 299 658 333 658 q 263 646 276 658 q 250 613 250 633 q 276 560 250 588 q 363 482 301 532 l 419 432 q 495 361 467 390 q 544 292 524 332 q 564 204 564 251 q 528 87 564 136 q 434 12 493 38 q 307 -14 375 -14 m 200 1168 l 385 1168 l 521 901 l 354 901 l 293 1067 l 233 901 l 68 901 l 200 1168 z "},"ș":{"ha":589,"x_min":28,"x_max":564,"o":"m 307 -14 q 137 34 204 -14 q 28 188 69 82 l 182 256 q 234 169 204 200 q 299 139 264 139 q 339 153 325 139 q 353 193 353 168 q 326 242 351 217 q 242 317 301 268 l 183 365 q 78 476 111 426 q 46 596 46 526 q 80 710 46 660 q 171 788 114 760 q 293 817 228 817 q 458 763 392 817 q 551 610 524 710 l 406 543 q 363 623 392 588 q 299 658 333 658 q 263 646 276 658 q 250 613 250 633 q 276 560 250 588 q 363 482 301 532 l 419 432 q 495 361 467 390 q 544 292 524 332 q 564 204 564 251 q 528 87 564 136 q 434 12 493 38 q 307 -14 375 -14 m 207 -419 q 279 -386 253 -411 q 306 -307 306 -361 l 188 -307 l 188 -96 l 401 -96 l 400 -276 q 225 -494 400 -490 l 207 -419 z "},"ṡ":{"ha":589,"x_min":28,"x_max":564,"o":"m 307 -14 q 137 34 204 -14 q 28 188 69 82 l 182 256 q 234 169 204 200 q 299 139 264 139 q 339 153 325 139 q 353 193 353 168 q 326 242 351 217 q 242 317 301 268 l 183 365 q 78 476 111 426 q 46 596 46 526 q 80 710 46 660 q 171 788 114 760 q 293 817 228 817 q 458 763 392 817 q 551 610 524 710 l 406 543 q 363 623 392 588 q 299 658 333 658 q 263 646 276 658 q 250 613 250 633 q 276 560 250 588 q 363 482 301 532 l 419 432 q 495 361 467 390 q 544 292 524 332 q 564 204 564 251 q 528 87 564 136 q 434 12 493 38 q 307 -14 375 -14 m 188 1119 l 401 1119 l 401 906 l 188 906 l 188 1119 z "},"ß":{"ha":753,"x_min":64,"x_max":719,"o":"m 353 151 q 458 189 422 151 q 494 311 494 226 q 493 342 494 331 q 453 447 490 406 q 365 489 417 489 l 365 661 q 440 706 414 661 q 465 835 465 750 q 444 947 465 908 q 375 985 422 985 q 307 945 326 985 q 290 831 288 906 l 290 0 l 64 0 l 64 831 q 135 1052 64 963 q 356 1142 206 1142 q 583 1064 510 1142 q 657 839 657 986 q 493 597 657 663 q 659 491 599 567 q 719 315 719 415 q 626 59 719 139 q 353 -21 532 -21 l 353 151 z "},"t":{"ha":492,"x_min":17,"x_max":456,"o":"m 297 -8 q 168 33 213 -6 q 109 134 124 72 q 94 283 94 196 l 94 654 l 17 654 l 17 803 l 94 803 l 94 1047 l 324 1047 l 324 803 l 438 803 l 438 654 l 324 654 l 324 240 q 401 175 324 175 q 435 178 419 175 q 456 181 451 181 l 456 3 q 332 -10 385 -10 l 297 -8 z "},"ŧ":{"ha":468,"x_min":17,"x_max":456,"o":"m 401 175 q 435 178 419 175 q 456 181 451 181 l 456 3 q 332 -10 385 -10 l 297 -8 q 168 33 213 -6 q 109 134 124 72 q 94 283 94 196 l 94 421 l 18 421 l 18 518 l 94 518 l 94 654 l 17 654 l 17 803 l 94 803 l 94 1047 l 324 1047 l 324 803 l 438 803 l 438 654 l 324 654 l 324 518 l 438 518 l 438 421 l 324 421 l 324 240 q 401 175 324 175 z "},"ť":{"ha":606,"x_min":17,"x_max":599,"o":"m 297 -8 q 168 33 213 -6 q 109 134 124 72 q 94 283 94 196 l 94 654 l 17 654 l 17 803 l 94 803 l 94 1047 l 324 1047 l 324 803 l 438 803 l 438 654 l 324 654 l 324 240 q 401 175 324 175 q 435 178 419 175 q 456 181 451 181 l 456 3 q 332 -10 385 -10 l 297 -8 m 406 940 q 504 1063 504 965 l 385 1063 l 385 1276 l 599 1276 l 599 1090 q 419 868 599 883 l 406 940 z "},"ţ":{"ha":492,"x_min":17,"x_max":535,"o":"m 344 -92 q 484 -128 433 -92 q 535 -236 535 -164 q 476 -348 535 -311 q 331 -385 418 -385 q 225 -368 275 -385 l 225 -271 q 304 -282 264 -282 q 390 -233 390 -282 q 352 -181 390 -199 q 263 -161 314 -164 l 263 -6 q 128 83 163 8 q 94 283 94 157 l 94 654 l 17 654 l 17 803 l 94 803 l 94 1047 l 324 1047 l 324 803 l 438 803 l 438 654 l 324 654 l 324 240 q 401 175 324 175 q 435 178 419 175 q 456 181 451 181 l 456 3 q 415 -3 446 1 q 344 -10 383 -8 l 344 -92 z "},"ț":{"ha":492,"x_min":17,"x_max":456,"o":"m 297 -8 q 168 33 213 -6 q 109 134 124 72 q 94 283 94 196 l 94 654 l 17 654 l 17 803 l 94 803 l 94 1047 l 324 1047 l 324 803 l 438 803 l 438 654 l 324 654 l 324 240 q 401 175 324 175 q 435 178 419 175 q 456 181 451 181 l 456 3 q 332 -10 385 -10 l 297 -8 m 215 -419 q 288 -386 261 -411 q 314 -307 314 -361 l 196 -307 l 196 -96 l 410 -96 l 408 -276 q 233 -494 408 -490 l 215 -419 z "},"ṫ":{"ha":492,"x_min":17,"x_max":456,"o":"m 297 -8 q 168 33 213 -6 q 109 134 124 72 q 94 283 94 196 l 94 654 l 17 654 l 17 803 l 94 803 l 94 1047 l 324 1047 l 324 803 l 438 803 l 438 654 l 324 654 l 324 240 q 401 175 324 175 q 435 178 419 175 q 456 181 451 181 l 456 3 q 332 -10 385 -10 l 297 -8 m 101 1364 l 315 1364 l 315 1150 l 101 1150 l 101 1364 z "},"u":{"ha":700,"x_min":63,"x_max":628,"o":"m 213 -14 q 101 38 140 -14 q 63 174 63 90 l 63 803 l 289 803 l 289 200 q 333 139 289 139 q 403 164 356 139 l 403 803 l 628 803 l 628 0 l 403 0 l 403 74 q 213 -14 308 -14 z "},"ú":{"ha":700,"x_min":63,"x_max":628,"o":"m 213 -14 q 101 38 140 -14 q 63 174 63 90 l 63 803 l 289 803 l 289 200 q 333 139 289 139 q 403 164 356 139 l 403 803 l 628 803 l 628 0 l 403 0 l 403 74 q 213 -14 308 -14 m 363 1171 l 593 1171 l 418 892 l 275 892 l 363 1171 z "},"ŭ":{"ha":700,"x_min":63,"x_max":628,"o":"m 213 -14 q 101 38 140 -14 q 63 174 63 90 l 63 803 l 289 803 l 289 200 q 333 139 289 139 q 403 164 356 139 l 403 803 l 628 803 l 628 0 l 403 0 l 403 74 q 213 -14 308 -14 m 350 893 q 191 949 250 893 q 132 1110 132 1006 l 260 1110 q 281 1033 260 1057 q 350 1008 301 1008 q 419 1033 397 1008 q 440 1110 440 1058 l 568 1110 q 509 950 568 1007 q 350 893 450 893 z "},"û":{"ha":700,"x_min":63,"x_max":628,"o":"m 213 -14 q 101 38 140 -14 q 63 174 63 90 l 63 803 l 289 803 l 289 200 q 333 139 289 139 q 403 164 356 139 l 403 803 l 628 803 l 628 0 l 403 0 l 403 74 q 213 -14 308 -14 m 256 1168 l 440 1168 l 576 901 l 410 901 l 349 1067 l 289 901 l 124 901 l 256 1168 z "},"ȕ":{"ha":700,"x_min":40,"x_max":628,"o":"m 213 -14 q 101 38 140 -14 q 63 174 63 90 l 63 803 l 289 803 l 289 200 q 333 139 289 139 q 403 164 356 139 l 403 803 l 628 803 l 628 0 l 403 0 l 403 74 q 213 -14 308 -14 m 40 1174 l 213 1174 l 301 886 l 179 886 l 40 1174 m 294 1174 l 460 1174 l 542 886 l 422 886 l 294 1174 z "},"ü":{"ha":700,"x_min":63,"x_max":628,"o":"m 213 -14 q 101 38 140 -14 q 63 174 63 90 l 63 803 l 289 803 l 289 200 q 333 139 289 139 q 403 164 356 139 l 403 803 l 628 803 l 628 0 l 403 0 l 403 74 q 213 -14 308 -14 m 108 1125 l 289 1125 l 289 919 l 108 919 l 108 1125 m 411 1125 l 592 1125 l 592 919 l 411 919 l 411 1125 z "},"ụ":{"ha":700,"x_min":63,"x_max":628,"o":"m 213 -14 q 101 38 140 -14 q 63 174 63 90 l 63 803 l 289 803 l 289 200 q 333 139 289 139 q 403 164 356 139 l 403 803 l 628 803 l 628 0 l 403 0 l 403 74 q 213 -14 308 -14 m 253 -97 l 447 -97 l 447 -289 l 253 -289 l 253 -97 z "},"ù":{"ha":700,"x_min":63,"x_max":628,"o":"m 213 -14 q 101 38 140 -14 q 63 174 63 90 l 63 803 l 289 803 l 289 200 q 333 139 289 139 q 403 164 356 139 l 403 803 l 628 803 l 628 0 l 403 0 l 403 74 q 213 -14 308 -14 m 107 1171 l 340 1171 l 425 892 l 283 892 l 107 1171 z "},"ủ":{"ha":700,"x_min":63,"x_max":628,"o":"m 213 -14 q 101 38 140 -14 q 63 174 63 90 l 63 803 l 289 803 l 289 200 q 333 139 289 139 q 403 164 356 139 l 403 803 l 628 803 l 628 0 l 403 0 l 403 74 q 213 -14 308 -14 m 274 943 q 351 986 328 969 q 374 1032 374 1003 q 294 1081 374 1081 q 208 1071 250 1081 l 208 1165 q 350 1183 275 1183 q 472 1150 424 1183 q 519 1046 519 1117 q 474 939 519 979 q 350 871 429 899 l 274 943 z "},"ư":{"ha":700,"x_min":63,"x_max":719,"o":"m 719 922 q 628 746 719 800 l 628 0 l 403 0 l 403 74 q 213 -14 308 -14 q 101 38 140 -14 q 63 174 63 90 l 63 803 l 289 803 l 289 200 q 333 139 289 139 q 403 164 356 139 l 403 803 l 486 803 q 544 831 526 803 q 561 922 561 860 l 719 922 z "},"ứ":{"ha":700,"x_min":63,"x_max":719,"o":"m 719 922 q 628 746 719 800 l 628 0 l 403 0 l 403 74 q 213 -14 308 -14 q 101 38 140 -14 q 63 174 63 90 l 63 803 l 289 803 l 289 200 q 333 139 289 139 q 403 164 356 139 l 403 803 l 486 803 q 544 831 526 803 q 561 922 561 860 l 719 922 m 358 1171 l 589 1171 l 414 892 l 271 892 l 358 1171 z "},"ự":{"ha":700,"x_min":63,"x_max":719,"o":"m 719 922 q 628 746 719 800 l 628 0 l 403 0 l 403 74 q 213 -14 308 -14 q 101 38 140 -14 q 63 174 63 90 l 63 803 l 289 803 l 289 200 q 333 139 289 139 q 403 164 356 139 l 403 803 l 486 803 q 544 831 526 803 q 561 922 561 860 l 719 922 m 258 -97 l 453 -97 l 453 -289 l 258 -289 l 258 -97 z "},"ừ":{"ha":700,"x_min":63,"x_max":719,"o":"m 719 922 q 628 746 719 800 l 628 0 l 403 0 l 403 74 q 213 -14 308 -14 q 101 38 140 -14 q 63 174 63 90 l 63 803 l 289 803 l 289 200 q 333 139 289 139 q 403 164 356 139 l 403 803 l 486 803 q 544 831 526 803 q 561 922 561 860 l 719 922 m 103 1171 l 336 1171 l 421 892 l 279 892 l 103 1171 z "},"ử":{"ha":700,"x_min":63,"x_max":719,"o":"m 719 922 q 628 746 719 800 l 628 0 l 403 0 l 403 74 q 213 -14 308 -14 q 101 38 140 -14 q 63 174 63 90 l 63 803 l 289 803 l 289 200 q 333 139 289 139 q 403 164 356 139 l 403 803 l 486 803 q 544 831 526 803 q 561 922 561 860 l 719 922 m 269 943 q 347 986 324 969 q 369 1032 369 1003 q 290 1081 369 1081 q 204 1071 246 1081 l 204 1165 q 346 1183 271 1183 q 467 1150 419 1183 q 515 1046 515 1117 q 470 939 515 979 q 346 871 425 899 l 269 943 z "},"ữ":{"ha":700,"x_min":63,"x_max":719,"o":"m 719 922 q 628 746 719 800 l 628 0 l 403 0 l 403 74 q 213 -14 308 -14 q 101 38 140 -14 q 63 174 63 90 l 63 803 l 289 803 l 289 200 q 333 139 289 139 q 403 164 356 139 l 403 803 l 486 803 q 544 831 526 803 q 561 922 561 860 l 719 922 m 458 928 q 411 937 433 928 q 361 964 389 946 q 319 985 336 978 q 285 993 301 993 q 235 936 235 993 l 126 936 q 251 1133 124 1133 q 294 1126 275 1133 q 343 1101 314 1118 q 385 1080 367 1088 q 422 1072 403 1072 q 465 1125 465 1072 l 565 1125 q 544 983 565 1038 q 458 928 524 928 z "},"ű":{"ha":700,"x_min":63,"x_max":692,"o":"m 213 -14 q 101 38 140 -14 q 63 174 63 90 l 63 803 l 289 803 l 289 200 q 333 139 289 139 q 403 164 356 139 l 403 803 l 628 803 l 628 0 l 403 0 l 403 74 q 213 -14 308 -14 m 244 1179 l 428 1179 l 278 879 l 161 879 l 244 1179 m 497 1179 l 692 1179 l 525 879 l 408 879 l 497 1179 z "},"ȗ":{"ha":700,"x_min":63,"x_max":628,"o":"m 213 -14 q 101 38 140 -14 q 63 174 63 90 l 63 803 l 289 803 l 289 200 q 333 139 289 139 q 403 164 356 139 l 403 803 l 628 803 l 628 0 l 403 0 l 403 74 q 213 -14 308 -14 m 132 901 q 190 1065 132 1007 q 350 1122 247 1122 q 510 1065 453 1122 q 568 901 568 1007 l 440 901 q 419 982 440 957 q 350 1007 399 1007 q 281 982 301 1007 q 260 901 260 957 l 132 901 z "},"ū":{"ha":700,"x_min":63,"x_max":628,"o":"m 213 -14 q 101 38 140 -14 q 63 174 63 90 l 63 803 l 289 803 l 289 200 q 333 139 289 139 q 403 164 356 139 l 403 803 l 628 803 l 628 0 l 403 0 l 403 74 q 213 -14 308 -14 m 158 1032 l 542 1032 l 542 925 l 158 925 l 158 1032 z "},"ų":{"ha":700,"x_min":63,"x_max":647,"o":"m 607 -250 q 647 -247 628 -250 l 625 -357 q 579 -361 608 -361 q 422 -330 486 -361 q 358 -211 358 -299 q 390 -99 358 -158 q 467 0 422 -40 l 403 0 l 403 74 q 213 -14 308 -14 q 101 38 140 -14 q 63 174 63 90 l 63 803 l 289 803 l 289 200 q 333 139 289 139 q 403 164 356 139 l 403 803 l 628 803 l 628 0 l 568 0 q 518 -168 518 -92 q 543 -231 518 -211 q 607 -250 568 -250 z "},"ů":{"ha":700,"x_min":63,"x_max":628,"o":"m 213 -14 q 101 38 140 -14 q 63 174 63 90 l 63 803 l 289 803 l 289 200 q 333 139 289 139 q 403 164 356 139 l 403 803 l 628 803 l 628 0 l 403 0 l 403 74 q 213 -14 308 -14 m 349 864 q 233 903 279 864 q 188 1015 188 943 q 233 1128 188 1088 q 349 1168 279 1168 q 465 1128 418 1168 q 513 1015 513 1088 q 466 903 513 943 q 349 864 419 864 m 349 943 q 400 964 382 943 q 418 1015 418 985 q 400 1068 418 1047 q 349 1089 382 1089 q 299 1068 317 1089 q 281 1015 281 1047 q 299 964 281 985 q 349 943 317 943 z "},"ũ":{"ha":700,"x_min":63,"x_max":628,"o":"m 213 -14 q 101 38 140 -14 q 63 174 63 90 l 63 803 l 289 803 l 289 200 q 333 139 289 139 q 403 164 356 139 l 403 803 l 628 803 l 628 0 l 403 0 l 403 74 q 213 -14 308 -14 m 463 928 q 415 937 438 928 q 365 964 393 946 q 323 985 340 978 q 289 993 306 993 q 239 936 239 993 l 131 936 q 256 1133 128 1133 q 299 1126 279 1133 q 347 1101 318 1118 q 389 1080 371 1088 q 426 1072 407 1072 q 469 1125 469 1072 l 569 1125 q 549 983 569 1038 q 463 928 528 928 z "},"v":{"ha":585,"x_min":14,"x_max":575,"o":"m 14 803 l 231 803 l 297 290 l 358 803 l 575 803 l 410 0 l 175 0 l 14 803 z "},"w":{"ha":829,"x_min":29,"x_max":800,"o":"m 29 803 l 218 803 l 276 347 l 339 803 l 503 803 l 557 336 l 625 803 l 800 803 l 681 0 l 486 0 l 417 451 l 339 0 l 147 0 l 29 803 z "},"ẃ":{"ha":829,"x_min":29,"x_max":800,"o":"m 29 803 l 218 803 l 276 347 l 339 803 l 503 803 l 557 336 l 625 803 l 800 803 l 681 0 l 486 0 l 417 451 l 339 0 l 147 0 l 29 803 m 428 1171 l 658 1171 l 483 892 l 340 892 l 428 1171 z "},"ŵ":{"ha":829,"x_min":29,"x_max":800,"o":"m 29 803 l 218 803 l 276 347 l 339 803 l 503 803 l 557 336 l 625 803 l 800 803 l 681 0 l 486 0 l 417 451 l 339 0 l 147 0 l 29 803 m 321 1168 l 506 1168 l 642 901 l 475 901 l 414 1067 l 354 901 l 189 901 l 321 1168 z "},"ẅ":{"ha":829,"x_min":29,"x_max":800,"o":"m 29 803 l 218 803 l 276 347 l 339 803 l 503 803 l 557 336 l 625 803 l 800 803 l 681 0 l 486 0 l 417 451 l 339 0 l 147 0 l 29 803 m 174 1125 l 354 1125 l 354 919 l 174 919 l 174 1125 m 476 1125 l 657 1125 l 657 919 l 476 919 l 476 1125 z "},"ẁ":{"ha":829,"x_min":29,"x_max":800,"o":"m 29 803 l 218 803 l 276 347 l 339 803 l 503 803 l 557 336 l 625 803 l 800 803 l 681 0 l 486 0 l 417 451 l 339 0 l 147 0 l 29 803 m 172 1171 l 406 1171 l 490 892 l 349 892 l 172 1171 z "},"x":{"ha":614,"x_min":15,"x_max":611,"o":"m 186 440 l 24 803 l 251 803 l 338 610 l 414 803 l 588 803 l 429 407 l 611 0 l 381 0 l 283 221 l 203 0 l 15 0 l 186 440 z "},"y":{"ha":622,"x_min":4,"x_max":608,"o":"m 93 -76 q 196 -62 167 -76 q 221 0 225 -47 q 193 126 219 19 l 135 333 q 4 803 8 781 l 217 803 l 318 339 l 394 803 l 608 803 l 418 -44 q 125 -233 375 -236 l 93 -233 l 93 -76 z "},"ý":{"ha":622,"x_min":4,"x_max":608,"o":"m 93 -76 q 196 -62 167 -76 q 221 0 225 -47 q 193 126 219 19 l 135 333 q 4 803 8 781 l 217 803 l 318 339 l 394 803 l 608 803 l 418 -44 q 125 -233 375 -236 l 93 -233 l 93 -76 m 324 1171 l 554 1171 l 379 892 l 236 892 l 324 1171 z "},"ŷ":{"ha":622,"x_min":4,"x_max":608,"o":"m 93 -76 q 196 -62 167 -76 q 221 0 225 -47 q 193 126 219 19 l 135 333 q 4 803 8 781 l 217 803 l 318 339 l 394 803 l 608 803 l 418 -44 q 125 -233 375 -236 l 93 -233 l 93 -76 m 217 1168 l 401 1168 l 538 901 l 371 901 l 310 1067 l 250 901 l 85 901 l 217 1168 z "},"ÿ":{"ha":622,"x_min":4,"x_max":608,"o":"m 93 -76 q 196 -62 167 -76 q 221 0 225 -47 q 193 126 219 19 l 135 333 q 4 803 8 781 l 217 803 l 318 339 l 394 803 l 608 803 l 418 -44 q 125 -233 375 -236 l 93 -233 l 93 -76 m 69 1125 l 250 1125 l 250 919 l 69 919 l 69 1125 m 372 1125 l 553 1125 l 553 919 l 372 919 l 372 1125 z "},"ỵ":{"ha":622,"x_min":4,"x_max":657,"o":"m 93 -76 q 196 -62 167 -76 q 221 0 225 -47 q 193 126 219 19 l 135 333 q 4 803 8 781 l 217 803 l 318 339 l 394 803 l 608 803 l 418 -44 q 125 -233 375 -236 l 93 -233 l 93 -76 m 463 -97 l 657 -97 l 657 -289 l 463 -289 l 463 -97 z "},"ỳ":{"ha":622,"x_min":4,"x_max":608,"o":"m 93 -76 q 196 -62 167 -76 q 221 0 225 -47 q 193 126 219 19 l 135 333 q 4 803 8 781 l 217 803 l 318 339 l 394 803 l 608 803 l 418 -44 q 125 -233 375 -236 l 93 -233 l 93 -76 m 68 1171 l 301 1171 l 386 892 l 244 892 l 68 1171 z "},"ỷ":{"ha":622,"x_min":4,"x_max":608,"o":"m 93 -76 q 196 -62 167 -76 q 221 0 225 -47 q 193 126 219 19 l 135 333 q 4 803 8 781 l 217 803 l 318 339 l 394 803 l 608 803 l 418 -44 q 125 -233 375 -236 l 93 -233 l 93 -76 m 235 943 q 312 986 289 969 q 335 1032 335 1003 q 256 1081 335 1081 q 169 1071 211 1081 l 169 1165 q 311 1183 236 1183 q 433 1150 385 1183 q 481 1046 481 1117 q 435 939 481 979 q 311 871 390 899 l 235 943 z "},"ȳ":{"ha":622,"x_min":4,"x_max":608,"o":"m 93 -76 q 196 -62 167 -76 q 221 0 225 -47 q 193 126 219 19 l 135 333 q 4 803 8 781 l 217 803 l 318 339 l 394 803 l 608 803 l 418 -44 q 125 -233 375 -236 l 93 -233 l 93 -76 m 119 1032 l 503 1032 l 503 925 l 119 925 l 119 1032 z "},"ỹ":{"ha":622,"x_min":4,"x_max":608,"o":"m 93 -76 q 196 -62 167 -76 q 221 0 225 -47 q 193 126 219 19 l 135 333 q 4 803 8 781 l 217 803 l 318 339 l 394 803 l 608 803 l 418 -44 q 125 -233 375 -236 l 93 -233 l 93 -76 m 424 928 q 376 937 399 928 q 326 964 354 946 q 284 985 301 978 q 250 993 267 993 q 200 936 200 993 l 92 936 q 217 1133 89 1133 q 260 1126 240 1133 q 308 1101 279 1118 q 350 1080 332 1088 q 388 1072 368 1072 q 431 1125 431 1072 l 531 1125 q 510 983 531 1038 q 424 928 489 928 z "},"z":{"ha":544,"x_min":49,"x_max":508,"o":"m 49 146 l 269 638 l 65 638 l 65 803 l 506 803 l 506 665 l 282 165 l 508 165 l 508 0 l 49 0 l 49 146 z "},"ź":{"ha":544,"x_min":49,"x_max":515,"o":"m 49 146 l 269 638 l 65 638 l 65 803 l 506 803 l 506 665 l 282 165 l 508 165 l 508 0 l 49 0 l 49 146 m 285 1171 l 515 1171 l 340 892 l 197 892 l 285 1171 z "},"ž":{"ha":544,"x_min":40,"x_max":508,"o":"m 49 146 l 269 638 l 65 638 l 65 803 l 506 803 l 506 665 l 282 165 l 508 165 l 508 0 l 49 0 l 49 146 m 40 1147 l 201 1147 l 272 994 l 343 1147 l 504 1147 l 382 888 l 163 888 l 40 1147 z "},"ż":{"ha":544,"x_min":49,"x_max":508,"o":"m 49 146 l 269 638 l 65 638 l 65 803 l 506 803 l 506 665 l 282 165 l 508 165 l 508 0 l 49 0 l 49 146 m 165 1119 l 379 1119 l 379 906 l 165 906 l 165 1119 z "},"ﬁ":{"ha":765,"x_min":19,"x_max":696,"o":"m 96 650 l 19 650 l 19 803 l 96 803 l 96 863 q 144 1038 96 978 q 310 1099 192 1099 q 407 1090 353 1099 l 407 936 q 375 939 385 939 q 335 924 349 939 q 322 871 322 908 l 322 803 l 696 803 l 696 0 l 472 0 l 472 650 l 322 650 l 322 0 l 96 0 l 96 650 m 486 1096 l 696 1096 l 696 939 l 486 939 l 486 1096 z "},"ﬂ":{"ha":765,"x_min":14,"x_max":704,"o":"m 92 644 l 14 644 l 14 803 l 92 803 l 92 863 q 111 993 92 939 q 201 1084 131 1047 q 411 1121 271 1121 q 704 1090 540 1121 l 704 0 l 479 0 l 479 967 q 429 969 460 969 q 355 956 379 969 q 324 919 331 942 q 317 861 317 897 l 317 803 l 403 803 l 403 644 l 317 644 l 317 0 l 92 0 l 92 644 z "},"ª":{"ha":671,"x_min":78,"x_max":588,"o":"m 254 435 q 125 485 172 436 q 78 601 78 535 q 117 721 78 674 q 211 794 157 768 q 344 846 265 819 l 386 860 l 386 935 q 346 994 386 994 q 310 973 319 994 q 294 893 300 951 l 99 899 q 169 1081 100 1021 q 363 1140 239 1140 q 531 1081 475 1140 q 588 922 588 1022 l 588 447 l 410 447 l 397 540 q 342 465 379 494 q 254 435 306 435 m 326 568 q 359 578 343 568 q 386 604 375 588 l 386 782 q 302 717 335 758 q 269 636 269 675 q 286 587 269 606 q 326 568 303 568 z "},"º":{"ha":671,"x_min":96,"x_max":575,"o":"m 335 435 q 160 491 224 435 q 96 653 96 547 l 96 924 q 160 1085 96 1029 q 335 1142 224 1142 q 510 1085 444 1142 q 575 924 575 1028 l 575 653 q 510 492 575 549 q 335 435 444 435 m 335 571 q 390 654 390 571 l 390 922 q 377 985 390 964 q 335 1006 364 1006 q 279 922 279 1006 l 279 654 q 335 571 279 571 z "},"А":{"ha":742,"x_min":18,"x_max":722,"o":"m 229 1125 l 513 1125 l 722 0 l 494 0 l 456 238 l 290 238 l 253 0 l 18 0 l 229 1125 m 432 386 l 372 825 l 313 386 l 432 386 z "},"Б":{"ha":769,"x_min":88,"x_max":722,"o":"m 88 1125 l 646 1125 l 646 936 l 336 936 l 336 650 l 389 650 q 722 325 722 650 q 677 123 722 194 q 555 26 632 51 q 367 0 478 0 l 88 0 l 88 1125 m 368 163 q 463 199 435 163 q 492 317 492 236 q 465 436 492 394 q 365 478 439 478 l 336 478 l 336 163 l 368 163 z "},"В":{"ha":818,"x_min":88,"x_max":775,"o":"m 88 1125 l 382 1125 q 644 1066 549 1125 q 739 842 739 1007 q 575 604 739 635 q 724 521 674 592 q 775 326 775 450 q 433 0 775 0 l 88 0 l 88 1125 m 386 675 q 494 711 465 675 q 522 824 522 747 q 486 924 522 890 q 381 958 450 958 l 336 958 l 336 675 l 386 675 m 390 174 q 502 213 469 174 q 535 338 535 253 q 502 472 535 433 q 388 511 469 511 l 336 511 l 336 174 l 390 174 z "},"Г":{"ha":643,"x_min":88,"x_max":608,"o":"m 88 1125 l 608 1125 l 608 940 l 336 940 l 336 0 l 88 0 l 88 1125 z "},"Ѓ":{"ha":643,"x_min":88,"x_max":608,"o":"m 88 1125 l 608 1125 l 608 940 l 336 940 l 336 0 l 88 0 l 88 1125 z "},"Ґ":{"ha":640,"x_min":88,"x_max":608,"o":"m 88 1125 l 463 1125 l 463 1307 l 608 1307 l 608 940 l 336 940 l 336 0 l 88 0 l 88 1125 z "},"Д":{"ha":963,"x_min":25,"x_max":938,"o":"m 25 178 l 57 178 q 189 331 140 204 q 257 732 238 457 l 288 1125 l 811 1125 l 811 178 l 938 178 l 938 -243 l 774 -243 l 761 0 l 210 0 l 196 -243 l 25 -243 l 25 178 m 579 178 l 579 949 l 475 949 l 463 707 q 426 416 451 521 q 369 265 400 311 q 292 178 339 219 l 579 178 z "},"Е":{"ha":624,"x_min":83,"x_max":582,"o":"m 83 1125 l 579 1125 l 579 956 l 332 956 l 332 676 l 517 676 l 517 504 l 332 504 l 332 168 l 582 168 l 582 0 l 83 0 l 83 1125 z "},"Ѐ":{"ha":624,"x_min":83,"x_max":582,"o":"m 83 1125 l 579 1125 l 579 956 l 332 956 l 332 676 l 517 676 l 517 504 l 332 504 l 332 168 l 582 168 l 582 0 l 83 0 l 83 1125 m 96 1493 l 329 1493 l 414 1214 l 272 1214 l 96 1493 z "},"Ё":{"ha":624,"x_min":83,"x_max":582,"o":"m 83 1125 l 579 1125 l 579 956 l 332 956 l 332 676 l 517 676 l 517 504 l 332 504 l 332 168 l 582 168 l 582 0 l 83 0 l 83 1125 z "},"Ж":{"ha":1104,"x_min":8,"x_max":1096,"o":"m 244 565 l 14 1125 l 246 1125 l 442 599 l 453 599 l 453 1125 l 650 1125 l 650 599 l 663 599 l 858 1125 l 1090 1125 l 860 565 l 1096 0 l 874 0 l 663 546 l 650 546 l 650 0 l 453 0 l 453 546 l 442 546 l 231 0 l 8 0 l 244 565 z "},"З":{"ha":731,"x_min":47,"x_max":678,"o":"m 369 -21 q 131 71 201 -21 q 60 332 60 163 l 60 372 l 293 372 l 293 329 q 310 210 293 244 q 374 175 328 175 q 434 210 418 175 q 450 324 450 244 q 423 455 450 414 q 321 497 396 496 q 258 499 317 499 l 258 650 l 315 650 q 422 692 393 651 q 450 822 450 732 q 429 923 450 889 q 363 957 408 957 q 301 922 319 957 q 281 822 282 888 l 281 760 l 47 760 l 47 828 q 133 1060 47 978 q 364 1142 218 1142 q 595 1064 513 1142 q 678 838 678 986 q 639 674 678 742 q 540 589 600 606 q 642 503 606 564 q 678 331 678 443 q 604 72 678 165 q 369 -21 531 -21 z "},"И":{"ha":819,"x_min":88,"x_max":732,"o":"m 88 1125 l 283 1125 l 283 481 l 571 1125 l 732 1125 l 732 0 l 532 0 l 532 656 l 239 0 l 88 0 l 88 1125 z "},"Й":{"ha":819,"x_min":88,"x_max":732,"o":"m 88 1125 l 283 1125 l 283 481 l 571 1125 l 732 1125 l 732 0 l 532 0 l 532 656 l 239 0 l 88 0 l 88 1125 z "},"Ѝ":{"ha":819,"x_min":88,"x_max":732,"o":"m 88 1125 l 283 1125 l 283 481 l 571 1125 l 732 1125 l 732 0 l 532 0 l 532 656 l 239 0 l 88 0 l 88 1125 m 185 1493 l 418 1493 l 503 1214 l 361 1214 l 185 1493 z "},"К":{"ha":794,"x_min":88,"x_max":781,"o":"m 88 1125 l 336 1125 l 336 679 l 361 679 l 526 1125 l 774 1125 l 568 597 l 781 0 l 525 0 l 361 490 l 336 490 l 336 0 l 88 0 l 88 1125 z "},"Ќ":{"ha":794,"x_min":88,"x_max":781,"o":"m 88 1125 l 336 1125 l 336 679 l 361 679 l 526 1125 l 774 1125 l 568 597 l 781 0 l 525 0 l 361 490 l 336 490 l 336 0 l 88 0 l 88 1125 z "},"Л":{"ha":911,"x_min":10,"x_max":822,"o":"m 10 175 q 118 196 89 174 q 159 288 147 218 q 186 565 171 358 l 190 622 l 226 1125 l 822 1125 l 822 0 l 575 0 l 575 935 l 451 935 l 429 575 q 390 209 411 315 q 302 51 369 103 q 81 -1 235 -1 q 10 0 35 -1 l 10 175 z "},"М":{"ha":978,"x_min":79,"x_max":899,"o":"m 99 1125 l 361 1125 l 489 482 l 624 1125 l 879 1125 l 899 0 l 722 0 l 704 733 l 556 0 l 431 0 l 274 739 l 258 0 l 79 0 l 99 1125 z "},"Н":{"ha":826,"x_min":83,"x_max":743,"o":"m 83 1125 l 332 1125 l 332 669 l 496 669 l 496 1125 l 743 1125 l 743 0 l 496 0 l 496 492 l 332 492 l 332 0 l 83 0 l 83 1125 z "},"О":{"ha":810,"x_min":65,"x_max":744,"o":"m 404 -17 q 143 77 221 -17 q 65 354 65 171 l 65 772 q 143 1048 65 956 q 404 1140 221 1140 q 665 1047 586 1140 q 744 772 744 954 l 744 354 q 666 77 744 171 q 404 -17 588 -17 m 404 160 q 472 195 456 160 q 489 292 489 231 l 489 833 q 472 931 489 896 q 404 965 456 965 q 335 931 351 965 q 319 833 319 896 l 319 292 q 335 195 319 231 q 404 160 351 160 z "},"П":{"ha":840,"x_min":83,"x_max":757,"o":"m 83 1125 l 757 1125 l 757 0 l 513 0 l 513 947 l 328 947 l 328 0 l 83 0 l 83 1125 z "},"Р":{"ha":789,"x_min":83,"x_max":757,"o":"m 83 1125 l 461 1125 q 683 1041 610 1125 q 757 799 757 957 q 672 548 757 618 q 432 478 586 478 l 332 478 l 332 0 l 83 0 l 83 1125 m 415 651 q 502 686 481 651 q 524 803 524 721 q 503 914 524 878 q 414 950 482 950 l 332 950 l 332 651 l 415 651 z "},"С":{"ha":781,"x_min":65,"x_max":726,"o":"m 403 -17 q 143 80 221 -17 q 65 358 65 176 l 65 764 q 142 1044 65 949 q 403 1140 219 1140 q 653 1056 579 1140 q 726 815 726 971 l 726 718 l 483 718 l 483 831 q 479 901 483 875 q 458 947 475 928 q 403 965 440 965 q 334 928 350 965 q 318 826 318 892 l 318 297 q 335 195 318 231 q 403 160 353 160 q 469 195 454 160 q 483 297 483 231 l 483 415 l 726 415 l 726 318 q 653 72 726 160 q 403 -17 581 -17 z "},"Т":{"ha":624,"x_min":19,"x_max":606,"o":"m 189 940 l 19 940 l 19 1125 l 606 1125 l 606 940 l 438 940 l 438 0 l 189 0 l 189 940 z "},"У":{"ha":769,"x_min":31,"x_max":753,"o":"m 74 -57 q 236 -33 182 -60 q 290 61 290 -7 q 283 114 290 82 l 31 1125 l 261 1125 l 358 663 l 404 361 l 438 664 l 519 1125 l 753 1125 l 519 76 q 446 -116 492 -53 q 316 -201 400 -179 q 74 -221 232 -224 l 74 -57 z "},"Ў":{"ha":769,"x_min":31,"x_max":753,"o":"m 74 -57 q 236 -33 182 -60 q 290 61 290 -7 q 283 114 290 82 l 31 1125 l 261 1125 l 358 663 l 404 361 l 438 664 l 519 1125 l 753 1125 l 519 76 q 446 -116 492 -53 q 316 -201 400 -179 q 74 -221 232 -224 l 74 -57 z "},"Ф":{"ha":1054,"x_min":64,"x_max":989,"o":"m 426 128 q 340 124 385 124 q 199 156 263 124 q 100 250 136 188 q 64 400 64 313 l 64 739 q 102 881 64 818 q 209 980 140 944 q 367 1015 278 1015 q 426 1013 393 1015 l 426 1190 l 626 1190 l 626 1013 q 682 1015 660 1015 q 842 980 772 1015 q 951 882 913 944 q 989 739 989 819 l 989 399 q 953 250 989 313 q 856 155 917 188 q 721 122 794 122 q 626 126 676 122 l 626 -40 l 426 -40 l 426 128 m 399 278 q 426 281 415 278 l 426 864 q 396 867 410 867 q 314 833 344 867 q 283 742 283 799 l 283 396 q 399 278 283 278 m 656 279 q 742 310 714 279 q 769 396 769 342 l 769 742 q 742 835 769 803 q 667 867 715 867 q 626 864 651 867 l 626 282 q 656 279 643 279 z "},"Х":{"ha":708,"x_min":8,"x_max":706,"o":"m 226 606 l 18 1125 l 253 1125 l 376 821 l 481 1125 l 688 1125 l 488 540 l 706 0 l 472 0 l 336 336 l 214 0 l 8 0 l 226 606 z "},"Ч":{"ha":842,"x_min":61,"x_max":754,"o":"m 506 463 q 376 453 436 453 q 217 484 289 453 q 103 577 146 515 q 61 724 61 639 l 61 1125 l 306 1125 l 306 725 q 314 660 306 685 q 351 620 322 635 q 439 606 381 606 q 506 611 474 606 l 506 1125 l 754 1125 l 754 0 l 506 0 l 506 463 z "},"Ц":{"ha":953,"x_min":88,"x_max":926,"o":"m 713 0 l 88 0 l 88 1125 l 336 1125 l 336 168 l 525 168 l 525 1125 l 774 1125 l 774 168 l 926 168 l 926 -243 l 744 -243 l 713 0 z "},"Ш":{"ha":1146,"x_min":88,"x_max":1058,"o":"m 88 1125 l 322 1125 l 322 178 l 460 178 l 460 1125 l 693 1125 l 693 178 l 825 178 l 825 1125 l 1058 1125 l 1058 0 l 88 0 l 88 1125 z "},"Щ":{"ha":1272,"x_min":88,"x_max":1213,"o":"m 1001 0 l 88 0 l 88 1125 l 322 1125 l 322 168 l 460 168 l 460 1125 l 693 1125 l 693 168 l 825 168 l 825 1125 l 1060 1125 l 1060 168 l 1213 168 l 1213 -243 l 1031 -243 l 1001 0 z "},"Џ":{"ha":832,"x_min":83,"x_max":749,"o":"m 321 0 l 83 0 l 83 1125 l 332 1125 l 332 188 l 500 188 l 500 1125 l 749 1125 l 749 0 l 518 0 l 508 -243 l 329 -243 l 321 0 z "},"Ь":{"ha":772,"x_min":88,"x_max":722,"o":"m 88 1125 l 336 1125 l 336 650 l 392 650 q 722 325 722 650 q 677 123 722 194 q 555 26 632 51 q 368 0 478 0 l 88 0 l 88 1125 m 369 163 q 464 200 435 163 q 493 318 493 238 q 467 436 493 394 q 367 478 440 478 l 336 478 l 336 163 l 369 163 z "},"Ъ":{"ha":878,"x_min":-17,"x_max":831,"o":"m 186 956 l -17 956 l -17 1125 l 435 1125 l 435 650 l 499 650 q 831 325 831 650 q 785 123 831 194 q 663 26 740 51 q 476 0 586 0 l 186 0 l 186 956 m 478 163 q 572 200 543 163 q 601 318 601 238 q 574 436 601 394 q 474 478 547 478 l 435 478 l 435 163 l 478 163 z "},"Ы":{"ha":1154,"x_min":88,"x_max":1067,"o":"m 88 1125 l 336 1125 l 336 650 l 392 650 q 724 325 724 650 q 678 123 724 194 q 557 26 633 51 q 369 0 481 0 l 88 0 l 88 1125 m 818 1125 l 1067 1125 l 1067 0 l 818 0 l 818 1125 m 371 163 q 465 200 436 163 q 494 318 494 238 q 468 436 494 394 q 368 478 442 478 l 336 478 l 336 163 l 371 163 z "},"Љ":{"ha":1233,"x_min":14,"x_max":1204,"o":"m 14 0 l 14 175 q 108 190 76 174 q 156 253 139 206 q 181 403 172 301 l 229 1125 l 826 1125 l 826 650 l 871 650 q 1204 325 1204 650 q 1159 123 1204 194 q 1037 26 1114 51 q 849 0 960 0 l 579 0 l 579 935 l 454 935 l 419 397 q 376 155 410 240 q 278 34 343 69 q 103 0 213 -1 l 14 0 m 851 163 q 946 200 917 163 q 975 318 975 238 q 948 436 975 394 q 849 478 921 478 l 826 478 l 826 163 l 851 163 z "},"Њ":{"ha":1160,"x_min":88,"x_max":1117,"o":"m 88 1126 l 336 1126 l 336 664 l 494 664 l 494 1126 l 743 1126 l 743 650 l 785 650 q 1117 325 1117 650 q 1072 123 1117 194 q 949 26 1026 51 q 763 0 872 0 l 494 1 l 494 476 l 336 476 l 336 1 l 88 1 l 88 1126 m 763 163 q 860 200 832 163 q 888 322 888 238 q 860 440 888 403 q 761 478 833 478 l 743 478 l 743 163 l 763 163 z "},"Ѕ":{"ha":665,"x_min":31,"x_max":647,"o":"m 353 -17 q 114 69 192 -17 q 31 340 36 154 l 243 372 q 268 219 244 265 q 340 172 292 172 q 403 254 403 172 q 373 366 403 319 q 281 468 343 413 l 182 553 q 69 683 107 619 q 31 846 31 747 q 117 1063 31 986 q 351 1140 203 1140 q 567 1048 511 1140 q 626 821 622 956 l 411 794 q 395 922 408 883 q 339 958 382 960 q 288 931 306 958 q 271 871 271 904 q 298 773 271 811 q 379 686 325 735 l 474 604 q 602 451 557 528 q 647 267 647 374 q 610 123 647 188 q 507 21 574 58 q 353 -17 440 -17 z "},"Є":{"ha":768,"x_min":68,"x_max":729,"o":"m 406 -17 q 145 80 222 -17 q 68 358 68 176 l 68 764 q 144 1045 68 950 q 406 1140 221 1140 q 656 1056 582 1140 q 729 815 729 971 l 729 749 l 486 749 l 486 831 q 472 931 486 896 q 406 965 458 965 q 336 928 353 965 q 319 826 319 892 l 319 635 l 500 635 l 500 500 l 319 500 l 319 297 q 337 195 319 231 q 406 160 354 160 q 472 195 457 160 q 486 297 486 231 l 486 374 l 729 374 l 729 318 q 656 72 729 160 q 406 -17 582 -17 z "},"Э":{"ha":799,"x_min":69,"x_max":731,"o":"m 393 -14 q 143 72 217 -14 q 69 311 69 157 l 69 371 l 313 371 l 313 297 q 326 197 313 231 q 393 163 340 163 q 462 199 446 163 q 478 303 478 236 l 478 500 l 292 500 l 292 625 l 478 625 l 478 831 q 460 933 478 897 q 393 968 443 968 q 327 933 342 968 q 313 831 313 897 l 313 753 l 69 753 l 69 808 q 143 1056 69 967 q 393 1144 217 1144 q 653 1048 576 1144 q 731 768 731 951 l 731 364 q 653 82 731 178 q 393 -14 576 -14 z "},"І":{"ha":385,"x_min":75,"x_max":322,"o":"m 75 1125 l 322 1125 l 322 0 l 75 0 l 75 1125 z "},"Ї":{"ha":385,"x_min":75,"x_max":322,"o":"m 75 1125 l 322 1125 l 322 0 l 75 0 l 75 1125 z "},"Ј":{"ha":451,"x_min":6,"x_max":389,"o":"m 6 144 q 88 152 60 143 q 129 185 117 161 q 142 258 142 210 l 142 1125 l 389 1125 l 389 247 q 364 92 388 151 q 283 1 340 32 q 126 -29 226 -29 l 6 -29 l 6 144 z "},"Ћ":{"ha":821,"x_min":7,"x_max":747,"o":"m 160 940 l 7 940 l 7 1125 l 565 1125 l 565 940 l 407 940 l 407 629 q 485 655 439 643 q 576 667 531 667 q 702 625 657 667 q 747 514 747 583 l 747 0 l 522 0 l 522 488 q 513 524 522 511 q 481 536 503 536 q 407 514 454 536 l 407 0 l 160 0 l 160 940 z "},"Ю":{"ha":1146,"x_min":88,"x_max":1078,"o":"m 767 -17 q 526 82 596 -17 q 456 368 456 181 l 456 478 l 333 478 l 333 0 l 88 0 l 88 1125 l 333 1125 l 333 661 l 456 661 l 456 758 q 526 1042 456 944 q 767 1140 596 1140 q 1007 1042 936 1140 q 1078 758 1078 944 l 1078 368 q 1007 83 1078 182 q 767 -17 936 -17 m 767 160 q 831 195 817 160 q 846 292 846 231 l 846 833 q 831 931 846 896 q 767 965 817 965 q 702 931 717 965 q 688 833 688 896 l 688 292 q 702 195 688 231 q 767 160 717 160 z "},"Я":{"ha":842,"x_min":14,"x_max":753,"o":"m 228 500 q 122 616 161 540 q 82 789 82 692 q 177 1050 82 975 q 464 1125 272 1125 l 753 1125 l 753 0 l 506 0 l 506 444 l 461 444 l 446 444 l 282 0 l 14 0 l 228 500 m 506 619 l 506 954 l 467 954 q 314 788 314 954 q 469 619 314 619 l 506 619 z "},"Ђ":{"ha":874,"x_min":-11,"x_max":819,"o":"m 149 951 l -11 951 l -11 1125 l 589 1125 l 589 951 l 394 951 l 394 619 q 582 682 481 682 q 699 658 644 682 q 787 588 754 633 q 819 481 819 542 l 819 275 q 791 113 819 172 q 697 27 763 54 q 519 0 632 0 l 465 0 l 465 142 q 563 173 532 142 q 593 275 593 204 l 593 454 q 570 513 593 486 q 506 539 547 539 q 394 497 457 539 l 394 0 l 149 0 l 149 951 z "},"Ү":{"ha":682,"x_min":10,"x_max":672,"o":"m 224 485 l 10 1125 l 243 1125 l 313 867 l 351 717 l 383 867 l 446 1125 l 672 1125 l 463 485 l 463 0 l 224 0 l 224 485 z "},"Ұ":{"ha":697,"x_min":19,"x_max":682,"o":"m 493 549 l 672 549 l 672 396 l 472 396 l 472 0 l 233 0 l 233 396 l 36 396 l 36 549 l 213 549 l 19 1125 l 253 1125 l 322 867 l 361 717 l 393 867 l 456 1125 l 682 1125 l 493 549 z "},"Ө":{"ha":814,"x_min":68,"x_max":746,"o":"m 406 1140 q 667 1047 589 1140 q 746 772 746 954 l 746 354 q 667 77 746 171 q 406 -17 589 -17 q 146 77 224 -17 q 68 354 68 171 l 68 772 q 146 1048 68 956 q 406 1140 224 1140 m 406 965 q 339 930 356 965 q 322 833 322 894 l 322 660 l 492 660 l 492 833 q 475 931 492 896 q 406 965 458 965 m 406 160 q 475 195 458 160 q 492 292 492 231 l 492 507 l 322 507 l 322 292 q 338 195 322 231 q 406 160 353 160 z "},"а":{"ha":661,"x_min":50,"x_max":611,"o":"m 236 -14 q 135 15 178 -14 q 72 88 93 43 q 50 182 50 133 q 92 327 50 269 q 192 416 135 385 q 336 481 249 447 l 381 497 l 381 578 q 370 631 381 613 q 333 649 360 649 q 296 632 307 649 q 283 585 285 615 l 278 526 l 67 535 l 68 561 q 149 755 78 693 q 354 817 221 817 q 535 751 472 817 q 597 575 597 685 l 597 200 q 611 0 597 97 l 408 0 q 390 114 396 93 q 335 22 374 58 q 236 -14 296 -14 m 317 139 q 351 151 335 139 q 381 179 368 163 l 381 399 q 290 322 325 371 q 254 226 254 272 q 272 163 254 186 q 317 139 290 139 z "},"б":{"ha":671,"x_min":63,"x_max":614,"o":"m 339 -14 q 168 23 228 -14 q 85 128 108 60 q 63 307 63 197 l 63 743 q 98 971 63 894 q 190 1076 133 1047 q 356 1132 246 1106 q 460 1158 417 1146 q 549 1190 503 1171 l 558 1018 q 478 988 515 997 q 417 973 442 978 q 385 967 392 968 q 315 949 336 960 q 281 906 293 939 q 269 801 269 874 l 269 750 q 335 775 297 765 q 406 785 374 785 q 565 716 517 785 q 614 485 614 647 l 614 289 q 581 104 614 171 q 488 12 547 38 q 339 -14 428 -14 m 343 132 q 381 146 369 132 q 397 196 393 160 q 401 311 401 232 l 401 532 q 390 628 401 601 q 344 654 379 654 q 304 633 319 654 q 281 558 289 611 l 281 313 q 285 198 281 235 q 302 147 289 161 q 343 132 315 132 z "},"в":{"ha":701,"x_min":71,"x_max":660,"o":"m 71 803 l 356 803 q 533 778 471 803 q 618 711 596 754 q 640 603 640 668 q 608 490 640 528 q 517 435 576 451 q 629 365 599 414 q 660 232 660 317 q 630 101 660 151 q 531 25 600 50 q 343 0 461 0 l 71 0 l 71 803 m 353 486 q 407 510 390 486 q 424 583 424 535 q 406 660 424 633 q 336 686 388 686 l 296 686 l 296 486 l 353 486 m 333 125 q 392 131 371 125 q 427 163 414 138 q 440 239 440 188 q 428 324 440 297 q 394 358 415 351 q 335 364 374 364 l 296 364 l 296 125 l 333 125 z "},"г":{"ha":489,"x_min":71,"x_max":471,"o":"m 71 803 l 471 803 l 471 650 l 297 650 l 297 0 l 71 0 l 71 803 z "},"ѓ":{"ha":489,"x_min":71,"x_max":471,"o":"m 71 803 l 471 803 l 471 650 l 297 650 l 297 0 l 71 0 l 71 803 z "},"ґ":{"ha":490,"x_min":71,"x_max":478,"o":"m 71 803 l 363 803 l 363 972 l 478 972 l 478 650 l 297 650 l 297 0 l 71 0 l 71 803 z "},"д":{"ha":843,"x_min":44,"x_max":819,"o":"m 44 138 q 181 276 135 181 q 238 542 228 371 l 261 803 l 703 803 l 703 139 l 819 139 l 819 -218 l 657 -218 l 642 0 l 222 0 l 210 -218 l 44 -218 l 44 138 m 496 139 l 496 668 l 429 668 l 413 488 q 373 264 404 344 q 289 139 342 183 l 496 139 z "},"е":{"ha":656,"x_min":54,"x_max":600,"o":"m 333 -14 q 128 56 201 -14 q 54 254 54 126 l 54 549 q 128 747 54 676 q 333 817 201 817 q 533 749 467 817 q 600 549 600 681 l 600 388 l 278 388 l 278 246 q 332 147 278 147 q 392 225 392 147 l 392 310 l 600 310 l 600 232 q 530 49 600 111 q 333 -14 460 -14 m 392 493 l 392 574 q 376 637 392 618 q 332 656 360 656 q 292 635 306 656 q 278 561 278 614 l 278 493 l 392 493 z "},"ѐ":{"ha":656,"x_min":54,"x_max":600,"o":"m 333 -14 q 128 56 201 -14 q 54 254 54 126 l 54 549 q 128 747 54 676 q 333 817 201 817 q 533 749 467 817 q 600 549 600 681 l 600 388 l 278 388 l 278 246 q 332 147 278 147 q 392 225 392 147 l 392 310 l 600 310 l 600 232 q 530 49 600 111 q 333 -14 460 -14 m 392 493 l 392 574 q 376 637 392 618 q 332 656 360 656 q 292 635 306 656 q 278 561 278 614 l 278 493 l 392 493 m 90 1171 l 324 1171 l 408 892 l 267 892 l 90 1171 z "}}}
